<svg width="46" height="46" viewBox="0 0 46 46" fill="none" xmlns="http://www.w3.org/2000/svg">
<path d="M21 7C17.2014 6.998 13.5261 8.38286 10.6323 10.9066C7.73846 13.4303 5.81508 16.9281 5.20656 20.7737C4.59804 24.6192 5.34411 28.5613 7.31119 31.8941C9.27826 35.2269 12.3379 37.7328 15.9421 38.963C16.7454 39.1155 17.0355 38.6121 17.0355 38.2001V35.4158C12.5727 36.4074 11.6504 33.2188 11.6504 33.2188C11.3552 32.2099 10.713 31.3452 9.84296 30.7853C8.39255 29.7707 9.95453 29.786 9.95453 29.786C10.4612 29.8587 10.945 30.0491 11.369 30.3425C11.7931 30.636 12.1463 31.0249 12.4016 31.4795C13.8297 33.9892 16.1207 33.2645 17.0578 32.845C17.1312 32.0115 17.4926 31.2323 18.0769 30.648C14.5215 30.2361 10.7876 28.8325 10.7876 22.5467C10.7648 20.9161 11.3563 19.3394 12.4388 18.1451C11.9467 16.7311 12.0026 15.1774 12.595 13.8045C12.595 13.8045 13.9339 13.3621 16.9909 15.4828C19.6109 14.7504 22.3742 14.7504 24.9942 15.4828C28.0512 13.3621 29.3901 13.8045 29.3901 13.8045C29.978 15.1785 30.0339 16.7304 29.5463 18.1451C30.6274 19.3398 31.2164 20.9169 31.1901 22.5467C31.1901 28.8477 27.4711 30.2284 23.8934 30.6404C24.2773 31.0393 24.5729 31.5183 24.7603 32.0448C24.9477 32.5713 25.0224 33.133 24.9793 33.6917V38.1925C24.9793 38.7341 25.2694 39.1384 26.0802 38.9553C29.6808 37.7204 32.7355 35.2119 34.6979 31.8787C36.6604 28.5454 37.4025 24.6048 36.7915 20.7618C36.1806 16.9187 34.2564 13.424 31.3632 10.9027C28.47 8.38138 24.7966 6.998 21 7Z" stroke="#FEFEFE" stroke-width="2" stroke-linecap="round" stroke-linejoin="round"/>
</svg>
