<svg width="779" height="638" viewBox="0 0 779 638" fill="none" xmlns="http://www.w3.org/2000/svg">
<path fill-rule="evenodd" clip-rule="evenodd" d="M459.978 67.0212L459.433 67.0697L418.886 70.6738C395.781 72.7276 379.942 92.9731 383.507 115.893L458.12 595.545C461.685 618.466 483.305 635.381 506.41 633.328L708.288 615.383C731.393 613.329 747.233 593.084 743.667 570.163L669.055 90.5113C665.49 67.591 643.869 50.6753 620.764 52.7291L577.871 56.5418L577.326 56.5902L577.721 59.1305L577.809 59.6945L578.884 66.6028C580.157 74.7887 574.5 82.0192 566.248 82.7527L478.782 90.5274C470.53 91.2609 462.809 85.2196 461.535 77.0338L460.461 70.1255L460.373 69.5614L459.978 67.0212ZM385.499 115.716C382.104 93.8874 397.189 74.606 419.194 72.65L458.347 69.1697C458.34 69.3555 458.351 69.5457 458.381 69.7385L459.543 77.2109C460.986 86.4881 469.737 93.335 479.089 92.5037L566.556 84.7289C575.908 83.8976 582.319 75.703 580.876 66.4257L579.714 58.9534C579.684 58.7605 579.636 58.5736 579.572 58.3942L621.072 54.7053C643.076 52.7494 663.667 68.8595 667.063 90.6884L741.675 570.34C745.071 592.169 729.985 611.451 707.981 613.407L506.103 631.351C484.098 633.307 463.507 617.197 460.112 595.368L385.499 115.716Z" fill="url(#paint0_linear_42_40)"/>
<g filter="url(#filter0_d_42_40)">
<rect width="260.755" height="239.549" rx="20" transform="matrix(0.996073 -0.0885398 0.153707 0.988117 435.264 372.138)" fill="url(#paint1_linear_42_40)"/>
</g>
<g clip-path="url(#clip0_42_40)">
<g filter="url(#filter1_d_42_40)">
<path d="M614.768 465.548L592.863 467.495L589.483 445.765C589.034 442.883 587.45 440.222 585.08 438.367C582.709 436.512 579.745 435.615 576.84 435.874C573.935 436.132 571.327 437.524 569.59 439.744C567.853 441.964 567.129 444.831 567.577 447.712L571.347 469.408L549.053 471.389C546.148 471.648 543.54 473.04 541.803 475.26C540.066 477.48 539.342 480.346 539.79 483.228C540.239 486.11 541.822 488.771 544.193 490.626C546.564 492.481 549.528 493.378 552.433 493.119L574.667 490.752L577.718 512.902C578.166 515.784 579.75 518.445 582.121 520.3C584.492 522.155 587.456 523.052 590.361 522.794C593.266 522.536 595.873 521.143 597.61 518.923C599.347 516.703 600.071 513.837 599.623 510.955L596.183 488.84L618.148 487.278C621.053 487.02 623.661 485.628 625.398 483.407C627.135 481.187 627.859 478.321 627.41 475.44C626.962 472.558 625.378 469.897 623.007 468.042C620.636 466.187 617.673 465.29 614.768 465.548Z" fill="url(#paint2_linear_42_40)"/>
</g>
</g>
<rect x="0.57489" y="0.449788" width="61" height="29" rx="14.5" transform="matrix(0.996073 -0.0885398 0.153707 0.988117 615.366 307.398)" stroke="#E5E5EF"/>
<path d="M642.093 324.005L639.411 324.244L638.069 315.62L640.871 315.371C641.714 315.296 642.462 315.405 643.116 315.697C643.769 315.986 644.306 316.438 644.725 317.052C645.145 317.664 645.424 318.416 645.563 319.308C645.702 320.207 645.661 320.994 645.44 321.672C645.217 322.346 644.825 322.884 644.262 323.287C643.699 323.688 642.976 323.927 642.093 324.005ZM640.319 323.224L641.881 323.085C642.6 323.021 643.174 322.831 643.604 322.513C644.034 322.196 644.325 321.773 644.478 321.245C644.631 320.716 644.653 320.101 644.544 319.399C644.436 318.703 644.228 318.114 643.92 317.632C643.613 317.147 643.21 316.79 642.712 316.561C642.214 316.329 641.626 316.243 640.947 316.304L639.266 316.453L640.319 323.224ZM649.808 323.473C649.395 323.51 649.008 323.466 648.647 323.342C648.286 323.214 647.983 323.012 647.74 322.735C647.495 322.455 647.34 322.105 647.275 321.683C647.217 321.313 647.244 321.006 647.355 320.763C647.466 320.517 647.634 320.317 647.86 320.163C648.086 320.009 648.342 319.887 648.629 319.796C648.919 319.702 649.212 319.622 649.508 319.555C649.897 319.47 650.212 319.403 650.454 319.356C650.699 319.306 650.873 319.243 650.976 319.169C651.082 319.094 651.123 318.976 651.098 318.816L651.092 318.783C651.028 318.367 650.863 318.055 650.598 317.845C650.336 317.635 649.974 317.55 649.513 317.591C649.035 317.634 648.676 317.771 648.436 318.003C648.197 318.235 648.041 318.473 647.967 318.719L646.964 318.467C647.072 318.059 647.251 317.733 647.5 317.488C647.751 317.241 648.039 317.059 648.362 316.942C648.687 316.822 649.014 316.748 649.343 316.718C649.552 316.7 649.796 316.704 650.076 316.73C650.358 316.753 650.638 316.83 650.916 316.958C651.197 317.087 651.447 317.297 651.664 317.588C651.881 317.879 652.03 318.281 652.11 318.795L652.773 323.056L651.771 323.145L651.635 322.269L651.584 322.274C651.538 322.42 651.448 322.58 651.314 322.754C651.181 322.929 650.991 323.083 650.745 323.219C650.5 323.355 650.187 323.439 649.808 323.473ZM649.822 322.567C650.218 322.532 650.54 322.425 650.788 322.246C651.038 322.068 651.214 321.85 651.314 321.593C651.418 321.337 651.449 321.073 651.407 320.804L651.265 319.894C651.231 319.949 651.145 320.003 651.007 320.058C650.871 320.11 650.713 320.16 650.531 320.207C650.351 320.252 650.175 320.293 650.003 320.331C649.834 320.366 649.696 320.395 649.591 320.419C649.336 320.476 649.101 320.552 648.887 320.648C648.674 320.741 648.511 320.868 648.395 321.029C648.282 321.187 648.245 321.392 648.284 321.645C648.338 321.99 648.507 322.24 648.792 322.394C649.08 322.545 649.423 322.602 649.822 322.567ZM655.39 325.282C655.22 325.297 655.067 325.297 654.929 325.281C654.792 325.267 654.697 325.25 654.642 325.229L654.76 324.331C655.013 324.371 655.232 324.374 655.416 324.341C655.6 324.307 655.753 324.21 655.874 324.048C655.998 323.889 656.096 323.64 656.166 323.301L656.274 322.779L652.852 316.492L653.939 316.395L656.54 321.389L656.608 321.383L657.606 316.069L658.693 315.973L657.078 323.63C657.006 323.975 656.894 324.265 656.744 324.5C656.595 324.738 656.407 324.922 656.18 325.05C655.956 325.178 655.693 325.255 655.39 325.282Z" fill="#EC9BC1"/>
<rect x="0.57489" y="0.449788" width="61" height="29" rx="14.5" transform="matrix(0.996073 -0.0885398 0.153707 0.988117 560.917 312.237)" stroke="#962DFF"/>
<path d="M584.792 329.099L584.674 328.341L587.059 324.97C587.339 324.575 587.567 324.233 587.743 323.944C587.918 323.653 588.04 323.383 588.107 323.135C588.177 322.884 588.192 322.626 588.151 322.363C588.104 322.059 587.989 321.803 587.808 321.595C587.629 321.386 587.404 321.232 587.133 321.134C586.863 321.036 586.57 321 586.256 321.028C585.922 321.058 585.642 321.153 585.414 321.312C585.189 321.469 585.027 321.675 584.929 321.932C584.834 322.188 584.812 322.48 584.864 322.808L583.862 322.898C583.783 322.392 583.832 321.938 584.007 321.536C584.183 321.133 584.456 320.807 584.828 320.558C585.202 320.308 585.642 320.161 586.149 320.116C586.658 320.071 587.126 320.137 587.553 320.315C587.979 320.494 588.332 320.754 588.612 321.096C588.892 321.439 589.067 321.832 589.136 322.275C589.185 322.592 589.175 322.908 589.106 323.221C589.04 323.532 588.894 323.885 588.669 324.28C588.446 324.673 588.126 325.157 587.711 325.731L586.081 327.977L586.091 328.044L590.132 327.685L590.276 328.611L584.792 329.099ZM591.364 326.722L591.23 325.863L594.117 319.527L594.746 319.471L594.953 320.802L594.528 320.839L592.347 325.627L592.357 325.694L597.501 325.237L597.646 326.163L591.364 326.722ZM595.73 328.126L595.415 326.097L595.353 325.697L594.389 319.503L595.391 319.414L596.732 328.037L595.73 328.126ZM599.925 323.809L600.53 327.7L599.528 327.789L598.187 319.165L599.189 319.076L599.681 322.243L599.766 322.235C599.867 321.888 600.055 321.602 600.33 321.378C600.607 321.151 601.002 321.015 601.514 320.97C601.959 320.93 602.361 320.984 602.723 321.131C603.084 321.276 603.384 321.521 603.625 321.867C603.867 322.209 604.032 322.659 604.118 323.214L604.758 327.324L603.756 327.413L603.127 323.371C603.047 322.857 602.851 322.472 602.539 322.215C602.228 321.955 601.837 321.846 601.365 321.888C601.036 321.917 600.753 322.012 600.514 322.173C600.278 322.333 600.105 322.552 599.996 322.829C599.89 323.106 599.866 323.433 599.925 323.809Z" fill="#962DFF"/>
<rect x="0.57489" y="0.449788" width="59" height="29" rx="14.5" transform="matrix(0.996073 -0.0885398 0.153707 0.988117 508.034 316.938)" stroke="#E5E5EF"/>
<path d="M533.59 324.907L534.932 333.531L533.879 333.624L532.708 326.096L532.657 326.1L530.752 327.687L530.587 326.626L532.538 325.001L533.59 324.907ZM537.432 333.309L537.314 332.551L539.699 329.18C539.979 328.785 540.207 328.443 540.383 328.154C540.558 327.862 540.68 327.593 540.747 327.345C540.817 327.094 540.832 326.836 540.791 326.572C540.743 326.269 540.629 326.013 540.447 325.805C540.269 325.596 540.044 325.442 539.773 325.344C539.503 325.245 539.21 325.21 538.896 325.238C538.562 325.268 538.282 325.363 538.054 325.522C537.829 325.679 537.667 325.885 537.569 326.142C537.474 326.398 537.452 326.69 537.503 327.018L536.502 327.107C536.423 326.602 536.472 326.148 536.647 325.745C536.822 325.343 537.096 325.017 537.467 324.768C537.842 324.518 538.282 324.371 538.789 324.326C539.298 324.28 539.766 324.347 540.192 324.525C540.619 324.704 540.972 324.964 541.252 325.306C541.532 325.649 541.706 326.041 541.775 326.485C541.825 326.802 541.815 327.117 541.746 327.431C541.68 327.741 541.534 328.094 541.308 328.49C541.085 328.883 540.766 329.367 540.351 329.941L538.72 332.187L538.731 332.254L542.772 331.895L542.916 332.821L537.432 333.309ZM545.082 328.684L545.688 332.575L544.686 332.664L543.345 324.04L544.346 323.951L544.839 327.118L544.924 327.11C545.025 326.762 545.212 326.477 545.488 326.253C545.765 326.026 546.16 325.89 546.672 325.845C547.116 325.805 547.519 325.859 547.881 326.006C548.241 326.151 548.542 326.396 548.782 326.741C549.025 327.084 549.19 327.533 549.276 328.089L549.915 332.199L548.914 332.288L548.285 328.246C548.205 327.732 548.009 327.347 547.696 327.09C547.386 326.83 546.995 326.721 546.522 326.763C546.194 326.792 545.91 326.887 545.671 327.048C545.435 327.208 545.263 327.427 545.154 327.704C545.048 327.981 545.024 328.308 545.082 328.684Z" fill="#DB87B6"/>
<rect x="0.57489" y="0.449788" width="52" height="29" rx="14.5" transform="matrix(0.996073 -0.0885398 0.153707 0.988117 460.626 321.152)" stroke="#E5E5EF"/>
<path d="M486.315 329.109L487.656 337.733L486.604 337.826L485.433 330.298L485.382 330.302L483.477 331.889L483.312 330.828L485.262 329.203L486.315 329.109ZM490.57 333.529L491.175 337.42L490.173 337.509L488.832 328.886L489.834 328.797L490.326 331.963L490.411 331.955C490.512 331.608 490.7 331.322 490.975 331.099C491.252 330.872 491.647 330.736 492.159 330.69C492.604 330.651 493.007 330.705 493.368 330.852C493.729 330.996 494.03 331.241 494.27 331.587C494.513 331.93 494.677 332.379 494.764 332.935L495.403 337.044L494.401 337.133L493.772 333.091C493.692 332.577 493.496 332.192 493.184 331.935C492.874 331.675 492.482 331.566 492.01 331.608C491.681 331.638 491.398 331.733 491.159 331.893C490.923 332.054 490.75 332.273 490.641 332.55C490.535 332.827 490.511 333.153 490.57 333.529Z" fill="#EC9BC1"/>
<path d="M459.265 309.992L459.131 309.133L462.018 302.798L462.647 302.742L462.854 304.073L462.429 304.11L460.248 308.898L460.258 308.965L465.403 308.508L465.547 309.434L459.265 309.992ZM463.632 311.397L463.316 309.368L463.254 308.968L462.29 302.774L463.292 302.685L464.633 311.308L463.632 311.397ZM465.01 325.419C464.653 325.445 464.286 325.41 463.909 325.312C463.532 325.215 463.173 325.026 462.831 324.746C462.489 324.464 462.188 324.068 461.928 323.559C461.668 323.047 461.475 322.392 461.351 321.595C461.233 320.831 461.2 320.148 461.252 319.546C461.304 318.941 461.436 318.424 461.648 317.996C461.859 317.564 462.142 317.226 462.497 316.981C462.855 316.736 463.278 316.591 463.768 316.548C464.255 316.504 464.703 316.563 465.112 316.723C465.524 316.88 465.876 317.119 466.17 317.44C466.464 317.761 466.681 318.141 466.821 318.582L465.786 318.674C465.629 318.295 465.392 317.99 465.075 317.759C464.758 317.528 464.37 317.433 463.912 317.474C463.239 317.534 462.753 317.872 462.456 318.487C462.161 319.102 462.094 319.935 462.255 320.985L462.323 320.979C462.444 320.727 462.601 320.506 462.792 320.319C462.986 320.128 463.209 319.974 463.461 319.858C463.712 319.742 463.987 319.67 464.284 319.644C464.782 319.6 465.257 319.683 465.708 319.893C466.159 320.1 466.543 320.409 466.859 320.819C467.175 321.227 467.376 321.708 467.463 322.264C467.546 322.797 467.502 323.297 467.33 323.762C467.158 324.224 466.874 324.605 466.479 324.904C466.087 325.201 465.597 325.373 465.01 325.419ZM464.866 324.493C465.223 324.461 465.529 324.344 465.784 324.142C466.042 323.94 466.23 323.683 466.348 323.371C466.469 323.058 466.501 322.72 466.444 322.355C466.389 321.998 466.258 321.681 466.051 321.403C465.847 321.123 465.591 320.908 465.284 320.759C464.979 320.609 464.649 320.551 464.292 320.582C464.023 320.606 463.781 320.682 463.566 320.809C463.35 320.934 463.168 321.095 463.021 321.293C462.877 321.491 462.774 321.712 462.712 321.956C462.649 322.198 462.637 322.448 462.678 322.707C462.731 323.049 462.861 323.362 463.069 323.645C463.279 323.928 463.54 324.148 463.852 324.306C464.166 324.463 464.504 324.525 464.866 324.493Z" fill="#615E83"/>
<path d="M451.431 259.636L451.298 258.777L454.185 252.442L454.813 252.386L455.02 253.717L454.596 253.754L452.414 258.542L452.425 258.609L457.569 258.152L457.713 259.078L451.431 259.636ZM455.798 261.041L455.482 259.012L455.42 258.612L454.457 252.418L455.458 252.329L456.8 260.952L455.798 261.041ZM457.168 275.064C456.585 275.116 456.054 275.059 455.575 274.894C455.099 274.726 454.708 274.471 454.402 274.131C454.097 273.789 453.909 273.384 453.839 272.918C453.78 272.553 453.799 272.21 453.899 271.888C453.997 271.563 454.158 271.286 454.38 271.056C454.605 270.822 454.871 270.663 455.18 270.579L455.172 270.528C454.739 270.459 454.372 270.257 454.07 269.922C453.768 269.584 453.583 269.187 453.515 268.729C453.444 268.291 453.495 267.89 453.667 267.524C453.84 267.159 454.109 266.859 454.474 266.625C454.842 266.39 455.281 266.25 455.79 266.204C456.294 266.16 456.759 266.219 457.186 266.383C457.614 266.548 457.967 266.792 458.247 267.117C458.53 267.442 458.707 267.824 458.778 268.261C458.846 268.719 458.784 269.139 458.591 269.52C458.4 269.898 458.109 270.159 457.718 270.302L457.726 270.353C458.049 270.381 458.353 270.489 458.638 270.677C458.922 270.862 459.163 271.104 459.361 271.402C459.559 271.698 459.688 272.028 459.748 272.393C459.817 272.859 459.755 273.286 459.56 273.673C459.367 274.057 459.065 274.373 458.653 274.62C458.243 274.864 457.748 275.012 457.168 275.064ZM457.024 274.137C457.417 274.103 457.747 274.009 458.013 273.857C458.28 273.706 458.473 273.508 458.592 273.264C458.712 273.02 458.749 272.743 458.704 272.434C458.651 272.109 458.521 271.829 458.315 271.594C458.11 271.359 457.851 271.182 457.54 271.065C457.232 270.947 456.894 270.905 456.526 270.937C456.156 270.97 455.836 271.071 455.566 271.24C455.3 271.409 455.103 271.626 454.975 271.891C454.85 272.155 454.814 272.45 454.867 272.775C454.912 273.084 455.029 273.347 455.218 273.564C455.409 273.78 455.659 273.939 455.967 274.039C456.276 274.14 456.628 274.173 457.024 274.137ZM456.387 270.045C456.699 270.017 456.965 269.931 457.186 269.786C457.41 269.641 457.575 269.451 457.679 269.217C457.783 268.983 457.813 268.717 457.77 268.419C457.722 268.127 457.613 267.88 457.443 267.675C457.273 267.469 457.059 267.317 456.8 267.22C456.541 267.121 456.251 267.086 455.932 267.114C455.606 267.143 455.331 267.229 455.107 267.371C454.882 267.51 454.72 267.696 454.621 267.926C454.521 268.154 454.496 268.414 454.544 268.706C454.587 269.004 454.694 269.257 454.865 269.467C455.038 269.677 455.256 269.832 455.518 269.934C455.781 270.036 456.071 270.073 456.387 270.045Z" fill="#615E83"/>
<path d="M455.321 284.64L455.187 283.781L458.075 277.446L458.703 277.39L458.91 278.72L458.485 278.758L456.304 283.545L456.314 283.613L461.459 283.155L461.603 284.082L455.321 284.64ZM459.688 286.045L459.372 284.015L459.31 283.615L458.346 277.421L459.348 277.332L460.689 285.956L459.688 286.045ZM459.064 300.125L461.765 292.15L461.754 292.083L457.272 292.481L457.128 291.555L462.697 291.06L462.849 292.037L460.167 300.027L459.064 300.125Z" fill="#615E83"/>
<path d="M447.542 234.632L447.408 233.773L450.295 227.438L450.924 227.382L451.131 228.712L450.706 228.75L448.525 233.538L448.535 233.605L453.679 233.148L453.824 234.074L447.542 234.632ZM451.908 236.037L451.593 234.008L451.531 233.608L450.567 227.414L451.569 227.325L452.91 235.948L451.908 236.037ZM451.79 241.21C452.147 241.181 452.514 241.217 452.891 241.317C453.268 241.418 453.628 241.608 453.97 241.887C454.311 242.164 454.612 242.557 454.872 243.067C455.132 243.576 455.323 244.226 455.446 245.018C455.566 245.784 455.598 246.471 455.543 247.079C455.491 247.685 455.359 248.203 455.148 248.634C454.94 249.065 454.657 249.404 454.299 249.649C453.944 249.894 453.522 250.038 453.032 250.082C452.546 250.125 452.096 250.068 451.685 249.911C451.275 249.751 450.922 249.511 450.626 249.19C450.332 248.866 450.115 248.48 449.976 248.031L451.012 247.939C451.167 248.326 451.403 248.637 451.721 248.871C452.041 249.101 452.43 249.196 452.888 249.155C453.559 249.096 454.043 248.758 454.34 248.143C454.64 247.527 454.708 246.688 454.543 245.627L454.475 245.633C454.353 245.883 454.197 246.103 454.005 246.294C453.814 246.485 453.593 246.638 453.341 246.754C453.089 246.871 452.814 246.942 452.514 246.969C452.016 247.013 451.54 246.932 451.086 246.724C450.634 246.514 450.25 246.205 449.935 245.798C449.621 245.387 449.421 244.904 449.335 244.348C449.253 243.821 449.296 243.327 449.466 242.868C449.638 242.406 449.92 242.025 450.312 241.726C450.708 241.426 451.2 241.254 451.79 241.21ZM451.934 242.137C451.578 242.168 451.27 242.285 451.012 242.488C450.756 242.687 450.568 242.943 450.447 243.255C450.329 243.564 450.298 243.899 450.353 244.258C450.409 244.617 450.539 244.937 450.744 245.218C450.951 245.495 451.206 245.709 451.51 245.858C451.817 246.005 452.149 246.062 452.505 246.03C452.774 246.006 453.017 245.932 453.233 245.808C453.448 245.68 453.628 245.518 453.772 245.32C453.919 245.119 454.023 244.898 454.086 244.656C454.149 244.411 454.16 244.161 454.12 243.906C454.068 243.569 453.937 243.261 453.727 242.98C453.519 242.7 453.259 242.481 452.945 242.324C452.633 242.167 452.296 242.104 451.934 242.137Z" fill="#615E83"/>
<path d="M447.407 212.149C446.909 212.194 446.446 212.135 446.016 211.974C445.586 211.813 445.225 211.572 444.931 211.251C444.637 210.93 444.445 210.551 444.354 210.115L445.373 210.025C445.473 210.412 445.702 210.719 446.058 210.946C446.417 211.17 446.819 211.262 447.263 211.223C447.62 211.191 447.924 211.08 448.175 210.89C448.43 210.699 448.614 210.453 448.727 210.149C448.843 209.843 448.872 209.506 448.815 209.138C448.757 208.762 448.621 208.434 448.408 208.154C448.198 207.871 447.935 207.657 447.62 207.511C447.305 207.366 446.961 207.308 446.59 207.338C446.324 207.359 446.057 207.424 445.79 207.533C445.522 207.639 445.308 207.765 445.147 207.91L444.144 207.88L444.01 203.589L448.526 203.187L448.671 204.114L445.037 204.437L445.127 207.007L445.178 207.003C445.335 206.847 445.54 206.71 445.794 206.594C446.049 206.477 446.322 206.406 446.613 206.38C447.145 206.333 447.639 206.417 448.094 206.633C448.552 206.845 448.933 207.158 449.239 207.572C449.547 207.986 449.744 208.472 449.831 209.031C449.917 209.581 449.869 210.083 449.687 210.538C449.508 210.989 449.221 211.359 448.827 211.647C448.432 211.933 447.959 212.1 447.407 212.149ZM449.48 225.99C448.84 226.047 448.269 225.923 447.765 225.617C447.261 225.309 446.839 224.836 446.498 224.197C446.158 223.556 445.914 222.767 445.768 221.829C445.624 220.897 445.619 220.091 445.754 219.41C445.891 218.726 446.158 218.19 446.554 217.802C446.952 217.411 447.468 217.187 448.102 217.131C448.735 217.074 449.305 217.202 449.809 217.512C450.316 217.82 450.74 218.295 451.081 218.936C451.424 219.575 451.668 220.36 451.813 221.292C451.959 222.229 451.964 223.04 451.83 223.723C451.695 224.404 451.429 224.939 451.033 225.327C450.637 225.712 450.119 225.933 449.48 225.99ZM449.336 225.064C449.969 225.007 450.415 224.66 450.671 224.023C450.928 223.385 450.969 222.505 450.794 221.382C450.678 220.636 450.498 220.007 450.255 219.496C450.015 218.985 449.724 218.606 449.381 218.357C449.041 218.109 448.662 218.003 448.243 218.04C447.615 218.096 447.172 218.447 446.914 219.093C446.655 219.737 446.613 220.618 446.787 221.738C446.903 222.485 447.081 223.112 447.321 223.621C447.561 224.129 447.85 224.506 448.19 224.751C448.532 224.997 448.914 225.101 449.336 225.064Z" fill="#615E83"/>
<line x1="0.75" y1="-0.75" x2="187.36" y2="-0.75" transform="matrix(0.996073 -0.0885398 0.153707 0.988117 474.272 304.939)" stroke="#F2F1FF" stroke-width="1.5" stroke-linecap="round"/>
<line x1="0.75" y1="-0.75" x2="187.36" y2="-0.75" transform="matrix(0.996073 -0.0885398 0.153707 0.988117 470.328 279.587)" stroke="#F2F1FF" stroke-width="1.5" stroke-linecap="round"/>
<line x1="0.75" y1="-0.75" x2="187.36" y2="-0.75" transform="matrix(0.996073 -0.0885398 0.153707 0.988117 466.493 254.929)" stroke="#E5E5EF" stroke-width="1.5" stroke-linecap="round" stroke-dasharray="4 7"/>
<line x1="0.75" y1="-0.75" x2="187.36" y2="-0.75" transform="matrix(0.996073 -0.0885398 0.153707 0.988117 462.657 230.271)" stroke="#F2F1FF" stroke-width="1.5" stroke-linecap="round"/>
<line x1="0.75" y1="-0.75" x2="187.36" y2="-0.75" transform="matrix(0.996073 -0.0885398 0.153707 0.988117 458.873 205.946)" stroke="#F2F1FF" stroke-width="1.5" stroke-linecap="round"/>
<rect width="1.84316" height="60.5845" rx="0.92158" transform="matrix(0.996073 -0.0885398 0.153707 0.988117 460.098 204.478)" fill="#C893FD"/>
<rect width="4.72736" height="38.1169" rx="2.36368" transform="matrix(0.996073 -0.0885398 0.153707 0.988117 460.356 215.483)" fill="#962DFF"/>
<rect width="1.84316" height="78.8453" rx="0.92158" transform="matrix(0.996073 -0.0885398 0.153707 0.988117 622.761 190.839)" fill="#C893FD"/>
<rect width="4.72736" height="49.6057" rx="2.36368" transform="matrix(0.996073 -0.0885398 0.153707 0.988117 623.528 205.122)" fill="#962DFF"/>
<rect width="1.84316" height="67.1173" rx="0.92158" transform="matrix(0.996073 -0.0885398 0.153707 0.988117 642.719 187.975)" fill="#C893FD"/>
<rect width="4.72736" height="41.9244" rx="2.36368" transform="matrix(0.996073 -0.0885398 0.153707 0.988117 643.745 203.915)" fill="#962DFF"/>
<rect width="1.84316" height="56.9447" rx="0.92158" transform="matrix(0.996073 -0.0885398 0.153707 0.988117 545.646 225.175)" fill="#C893FD"/>
<rect width="4.72736" height="34.9482" rx="2.36368" transform="matrix(0.996073 -0.0885398 0.153707 0.988117 546.496 239.986)" fill="#962DFF"/>
<rect width="1.84316" height="52.5956" rx="0.92158" transform="matrix(0.996073 -0.0885398 0.153707 0.988117 563.848 210.301)" fill="#C893FD"/>
<rect width="4.72736" height="34.0411" rx="2.36368" transform="matrix(0.996073 -0.0885398 0.153707 0.988117 564.448 223.504)" fill="#962DFF"/>
<rect width="1.84316" height="46.2149" rx="0.92158" transform="matrix(0.996073 -0.0885398 0.153707 0.988117 482.223 214.818)" fill="#93AAFD"/>
<rect width="4.72736" height="28.2077" rx="2.36368" transform="matrix(0.996073 -0.0885398 0.153707 0.988117 482.918 228.633)" fill="#4A3AFF"/>
<rect width="1.84316" height="62.3336" rx="0.92158" transform="matrix(0.996073 -0.0885398 0.153707 0.988117 504.086 223.471)" fill="#93AAFD"/>
<rect width="4.72736" height="36.5187" rx="2.36368" transform="matrix(0.996073 -0.0885398 0.153707 0.988117 504.82 237.535)" fill="#4A3AFF"/>
<rect width="1.84316" height="77.293" rx="0.92158" transform="matrix(0.996073 -0.0885398 0.153707 0.988117 606.173 215.784)" fill="#93AAFD"/>
<rect width="4.72736" height="46.7447" rx="2.36368" transform="matrix(0.996073 -0.0885398 0.153707 0.988117 606.922 229.947)" fill="#4A3AFF"/>
<rect width="1.84316" height="62.3336" rx="0.92158" transform="matrix(0.996073 -0.0885398 0.153707 0.988117 526.422 234.327)" fill="#93AAFD"/>
<rect width="4.72736" height="32.3632" rx="2.36368" transform="matrix(0.996073 -0.0885398 0.153707 0.988117 527.001 247.396)" fill="#4A3AFF"/>
<rect width="1.84316" height="61.449" rx="0.92158" transform="matrix(0.996073 -0.0885398 0.153707 0.988117 583.739 206.276)" fill="#93AAFD"/>
<rect width="4.72736" height="32.6151" rx="2.36368" transform="matrix(0.996073 -0.0885398 0.153707 0.988117 583.351 213.12)" fill="#4A3AFF"/>
<path d="M435.612 186.069L434.047 176.008L435.275 175.899L436.672 184.879L441.386 184.46L441.554 185.54L435.612 186.069ZM446.412 185.268C445.725 185.329 445.097 185.22 444.529 184.942C443.963 184.664 443.49 184.246 443.109 183.689C442.731 183.132 442.481 182.463 442.36 181.684C442.238 180.898 442.274 180.199 442.47 179.587C442.67 178.975 443.002 178.484 443.466 178.114C443.934 177.744 444.512 177.528 445.198 177.467C445.885 177.406 446.511 177.515 447.076 177.793C447.645 178.071 448.119 178.491 448.497 179.051C448.879 179.612 449.131 180.285 449.253 181.071C449.374 181.85 449.335 182.544 449.135 183.153C448.939 183.762 448.606 184.251 448.139 184.621C447.674 184.991 447.098 185.207 446.412 185.268ZM446.25 184.227C446.771 184.18 447.18 184.009 447.475 183.714C447.771 183.419 447.966 183.048 448.06 182.601C448.155 182.155 448.163 181.679 448.084 181.175C448.006 180.67 447.852 180.208 447.622 179.786C447.393 179.365 447.089 179.035 446.71 178.797C446.332 178.558 445.882 178.462 445.36 178.508C444.839 178.555 444.43 178.727 444.135 179.026C443.84 179.324 443.646 179.698 443.552 180.148C443.458 180.598 443.45 181.075 443.529 181.58C443.607 182.084 443.761 182.545 443.99 182.963C444.219 183.381 444.522 183.708 444.9 183.943C445.278 184.178 445.728 184.273 446.25 184.227ZM451.618 184.646L450.444 177.1L451.573 177L451.75 178.14L451.83 178.133C451.91 177.747 452.114 177.422 452.441 177.157C452.768 176.892 453.159 176.739 453.615 176.699C453.701 176.691 453.808 176.683 453.938 176.675C454.067 176.667 454.165 176.663 454.232 176.664L454.415 177.843C454.374 177.837 454.281 177.83 454.136 177.823C453.994 177.812 453.845 177.814 453.69 177.828C453.32 177.861 453.002 177.967 452.736 178.147C452.472 178.323 452.277 178.553 452.15 178.836C452.026 179.116 451.991 179.426 452.044 179.767L452.787 184.542L451.618 184.646ZM459.788 184.079C459.056 184.144 458.398 184.04 457.817 183.766C457.238 183.489 456.76 183.073 456.383 182.519C456.008 181.961 455.761 181.296 455.641 180.523C455.52 179.75 455.556 179.056 455.749 178.442C455.944 177.823 456.271 177.326 456.732 176.95C457.195 176.57 457.769 176.349 458.456 176.288C458.852 176.253 459.254 176.284 459.66 176.381C460.067 176.477 460.452 176.659 460.814 176.925C461.177 177.189 461.489 177.553 461.752 178.017C462.016 178.482 462.202 179.067 462.311 179.771L462.388 180.262L456.525 180.783L456.369 179.781L461.043 179.365C460.977 178.94 460.832 178.567 460.609 178.249C460.388 177.93 460.106 177.687 459.763 177.522C459.422 177.356 459.041 177.292 458.618 177.33C458.153 177.371 457.768 177.522 457.463 177.781C457.162 178.037 456.948 178.355 456.823 178.735C456.698 179.114 456.668 179.512 456.733 179.928L456.837 180.596C456.925 181.166 457.1 181.64 457.359 182.019C457.622 182.394 457.947 182.669 458.336 182.843C458.724 183.015 459.154 183.079 459.626 183.037C459.933 183.01 460.204 182.943 460.439 182.836C460.676 182.725 460.872 182.575 461.026 182.385C461.18 182.192 461.286 181.96 461.345 181.689L462.523 181.903C462.463 182.294 462.315 182.646 462.079 182.959C461.843 183.269 461.531 183.522 461.143 183.719C460.755 183.913 460.303 184.033 459.788 184.079ZM464.691 183.484L463.518 175.938L464.647 175.838L464.83 177.017L464.929 177.008C465.025 176.591 465.232 176.256 465.551 176.001C465.869 175.744 466.275 175.593 466.771 175.549C467.272 175.505 467.708 175.581 468.076 175.777C468.448 175.97 468.759 176.259 469.01 176.645L469.089 176.638C469.223 176.231 469.467 175.896 469.821 175.632C470.174 175.365 470.623 175.207 471.168 175.158C471.848 175.098 472.437 175.26 472.936 175.644C473.433 176.025 473.751 176.659 473.889 177.546L474.675 182.596L473.506 182.7L472.72 177.65C472.634 177.093 472.418 176.709 472.074 176.497C471.73 176.286 471.35 176.198 470.934 176.235C470.399 176.283 470.01 176.48 469.766 176.827C469.521 177.171 469.437 177.587 469.513 178.075L470.277 182.987L469.089 183.093L468.285 177.925C468.218 177.496 468.024 177.163 467.703 176.926C467.381 176.685 466.999 176.585 466.556 176.624C466.253 176.651 465.981 176.757 465.742 176.941C465.506 177.124 465.329 177.366 465.212 177.665C465.097 177.961 465.069 178.294 465.126 178.664L465.86 183.38L464.691 183.484ZM480.734 182.058L479.56 174.512L480.728 174.408L481.902 181.954L480.734 182.058ZM479.958 173.202C479.731 173.222 479.522 173.162 479.333 173.023C479.147 172.884 479.038 172.706 479.004 172.49C478.971 172.274 479.023 172.081 479.16 171.913C479.302 171.744 479.486 171.65 479.714 171.63C479.942 171.609 480.148 171.669 480.334 171.809C480.523 171.948 480.634 172.126 480.668 172.342C480.702 172.558 480.648 172.75 480.507 172.919C480.369 173.087 480.186 173.181 479.958 173.202ZM484.483 184.593L482.869 174.218L483.998 174.118L484.185 175.316L484.323 175.304C484.389 175.165 484.482 174.988 484.602 174.771C484.725 174.551 484.918 174.348 485.18 174.162C485.445 173.972 485.825 173.856 486.32 173.812C486.961 173.755 487.55 173.863 488.088 174.138C488.626 174.412 489.077 174.828 489.442 175.387C489.807 175.945 490.051 176.621 490.174 177.414C490.298 178.213 490.269 178.918 490.086 179.528C489.903 180.135 489.593 180.621 489.158 180.985C488.722 181.346 488.187 181.555 487.553 181.611C487.065 181.654 486.661 181.609 486.342 181.475C486.023 181.337 485.768 181.172 485.578 180.98C485.387 180.784 485.237 180.622 485.13 180.492L485.031 180.5L485.652 184.489L484.483 184.593ZM484.605 177.889C484.693 178.459 484.856 178.954 485.092 179.374C485.328 179.792 485.626 180.109 485.988 180.326C486.349 180.539 486.764 180.625 487.233 180.584C487.722 180.54 488.109 180.376 488.397 180.092C488.686 179.804 488.88 179.434 488.977 178.984C489.077 178.53 489.086 178.035 489.002 177.498C488.92 176.967 488.763 176.496 488.531 176.085C488.303 175.671 488.004 175.354 487.635 175.134C487.269 174.911 486.839 174.821 486.344 174.865C485.868 174.908 485.487 175.063 485.201 175.331C484.914 175.595 484.721 175.948 484.622 176.388C484.523 176.825 484.517 177.325 484.605 177.889ZM497.017 174.674L496.013 175.062C495.92 174.894 495.797 174.734 495.643 174.582C495.491 174.426 495.298 174.304 495.063 174.215C494.829 174.126 494.541 174.097 494.201 174.127C493.736 174.168 493.364 174.309 493.087 174.55C492.813 174.787 492.701 175.067 492.751 175.392C492.796 175.68 492.937 175.898 493.174 176.046C493.412 176.194 493.763 176.304 494.23 176.376L495.402 176.55C496.107 176.654 496.653 176.859 497.039 177.167C497.424 177.471 497.658 177.887 497.74 178.414C497.807 178.847 497.742 179.244 497.544 179.607C497.349 179.97 497.044 180.269 496.629 180.505C496.214 180.741 495.711 180.886 495.12 180.938C494.344 181.007 493.676 180.897 493.116 180.608C492.556 180.32 492.158 179.86 491.923 179.23L492.989 178.857C493.158 179.253 493.405 179.54 493.73 179.717C494.059 179.894 494.463 179.961 494.941 179.918C495.486 179.87 495.901 179.717 496.185 179.459C496.473 179.198 496.591 178.905 496.541 178.581C496.5 178.319 496.373 178.108 496.161 177.947C495.948 177.784 495.643 177.674 495.247 177.62L493.933 177.438C493.211 177.336 492.66 177.128 492.28 176.813C491.902 176.495 491.673 176.075 491.592 175.554C491.525 175.129 491.587 174.741 491.777 174.392C491.971 174.043 492.263 173.757 492.653 173.533C493.046 173.308 493.511 173.172 494.045 173.125C494.798 173.058 495.415 173.169 495.895 173.459C496.378 173.748 496.752 174.153 497.017 174.674ZM504.14 176.849L503.446 172.389L504.615 172.285L505.789 179.831L504.62 179.935L504.421 178.657L504.342 178.664C504.223 179.063 503.997 179.414 503.662 179.716C503.327 180.015 502.872 180.19 502.298 180.241C501.822 180.283 501.384 180.217 500.982 180.044C500.58 179.867 500.24 179.578 499.964 179.178C499.687 178.774 499.498 178.252 499.398 177.61L498.652 172.815L499.821 172.711L500.555 177.427C500.64 177.977 500.864 178.402 501.225 178.702C501.59 179.002 502.015 179.13 502.5 179.087C502.79 179.061 503.074 178.961 503.352 178.787C503.633 178.613 503.852 178.364 504.009 178.041C504.17 177.718 504.213 177.321 504.14 176.849ZM507.929 179.64L506.755 172.095L507.884 171.994L508.068 173.173L508.167 173.165C508.263 172.748 508.47 172.412 508.788 172.158C509.107 171.901 509.513 171.75 510.008 171.706C510.51 171.661 510.945 171.737 511.314 171.934C511.685 172.126 511.996 172.416 512.247 172.802L512.327 172.795C512.461 172.388 512.705 172.052 513.059 171.788C513.412 171.521 513.861 171.364 514.406 171.315C515.086 171.255 515.675 171.416 516.173 171.801C516.671 172.181 516.989 172.815 517.127 173.703L517.912 178.753L516.744 178.857L515.958 173.807C515.872 173.25 515.656 172.866 515.312 172.654C514.968 172.442 514.588 172.355 514.172 172.392C513.637 172.439 513.247 172.637 513.004 172.984C512.759 173.328 512.675 173.743 512.751 174.231L513.515 179.144L512.326 179.25L511.523 174.082C511.456 173.653 511.262 173.319 510.94 173.082C510.619 172.842 510.236 172.742 509.794 172.781C509.49 172.808 509.219 172.913 508.98 173.097C508.744 173.281 508.567 173.522 508.45 173.822C508.335 174.118 508.307 174.45 508.364 174.821L509.098 179.537L507.929 179.64ZM526.868 178.116C526.234 178.173 525.65 178.064 525.115 177.789C524.58 177.511 524.13 177.093 523.765 176.534C523.4 175.973 523.155 175.292 523.031 174.493C522.908 173.7 522.938 173 523.121 172.393C523.304 171.786 523.616 171.302 524.055 170.941C524.494 170.579 525.034 170.37 525.674 170.313C526.169 170.269 526.573 170.317 526.886 170.455C527.202 170.589 527.451 170.753 527.635 170.946C527.822 171.135 527.968 171.292 528.075 171.415L528.174 171.406L527.596 167.692L528.765 167.588L530.33 177.649L529.201 177.75L529.02 176.59L528.882 176.603C528.817 176.748 528.722 176.932 528.596 177.156C528.47 177.376 528.272 177.581 528.004 177.771C527.735 177.958 527.357 178.073 526.868 178.116ZM526.864 177.061C527.333 177.019 527.71 176.863 527.996 176.592C528.282 176.317 528.475 175.956 528.576 175.509C528.677 175.059 528.683 174.548 528.594 173.979C528.506 173.415 528.347 172.93 528.116 172.522C527.885 172.111 527.589 171.802 527.229 171.595C526.868 171.384 526.45 171.3 525.975 171.343C525.48 171.387 525.087 171.549 524.796 171.831C524.508 172.109 524.314 172.47 524.216 172.913C524.12 173.354 524.114 173.839 524.197 174.369C524.28 174.907 524.439 175.387 524.672 175.811C524.908 176.232 525.21 176.557 525.577 176.787C525.947 177.013 526.376 177.104 526.864 177.061ZM535.747 177.327C535.06 177.388 534.433 177.28 533.864 177.001C533.298 176.723 532.825 176.305 532.444 175.748C532.066 175.191 531.816 174.522 531.695 173.743C531.573 172.957 531.61 172.258 531.806 171.646C532.005 171.034 532.337 170.543 532.802 170.173C533.27 169.803 533.847 169.587 534.533 169.526C535.22 169.465 535.846 169.574 536.412 169.852C536.98 170.13 537.454 170.55 537.832 171.11C538.214 171.671 538.466 172.344 538.588 173.13C538.71 173.909 538.67 174.604 538.471 175.212C538.274 175.821 537.942 176.31 537.474 176.681C537.009 177.051 536.434 177.266 535.747 177.327ZM535.585 176.286C536.107 176.239 536.515 176.068 536.811 175.773C537.106 175.478 537.301 175.107 537.396 174.66C537.49 174.214 537.498 173.738 537.42 173.234C537.341 172.73 537.187 172.267 536.958 171.846C536.728 171.424 536.424 171.094 536.046 170.856C535.667 170.617 535.217 170.521 534.695 170.567C534.174 170.614 533.766 170.786 533.471 171.085C533.176 171.383 532.981 171.757 532.887 172.207C532.793 172.657 532.785 173.134 532.864 173.639C532.942 174.143 533.096 174.604 533.325 175.022C533.554 175.44 533.858 175.767 534.236 176.002C534.614 176.237 535.063 176.332 535.585 176.286ZM540.557 166.54L542.122 176.601L540.953 176.705L539.388 166.644L540.557 166.54ZM547.377 176.293C546.69 176.354 546.062 176.246 545.494 175.968C544.928 175.689 544.455 175.271 544.074 174.714C543.696 174.157 543.446 173.488 543.325 172.709C543.203 171.923 543.24 171.224 543.436 170.612C543.635 170 543.967 169.509 544.432 169.139C544.899 168.769 545.477 168.553 546.163 168.492C546.85 168.431 547.476 168.54 548.042 168.818C548.61 169.096 549.084 169.516 549.462 170.077C549.844 170.637 550.096 171.31 550.218 172.096C550.34 172.876 550.3 173.57 550.1 174.179C549.904 174.787 549.572 175.276 549.104 175.647C548.639 176.017 548.064 176.232 547.377 176.293ZM547.215 175.252C547.737 175.205 548.145 175.035 548.441 174.739C548.736 174.444 548.931 174.073 549.026 173.627C549.12 173.18 549.128 172.704 549.05 172.2C548.971 171.696 548.817 171.233 548.588 170.812C548.358 170.391 548.054 170.061 547.676 169.822C547.297 169.583 546.847 169.487 546.325 169.534C545.804 169.58 545.395 169.752 545.101 170.051C544.806 170.349 544.611 170.724 544.517 171.174C544.423 171.624 544.415 172.101 544.494 172.605C544.572 173.109 544.726 173.571 544.955 173.988C545.184 174.406 545.487 174.733 545.865 174.968C546.243 175.204 546.693 175.298 547.215 175.252ZM552.583 175.671L551.409 168.126L552.538 168.025L552.716 169.165L552.795 169.158C552.875 168.772 553.079 168.447 553.406 168.182C553.733 167.917 554.125 167.765 554.58 167.724C554.666 167.717 554.773 167.709 554.903 167.7C555.032 167.692 555.13 167.689 555.197 167.689L555.381 168.868C555.339 168.862 555.246 168.855 555.101 168.848C554.959 168.838 554.81 168.839 554.655 168.853C554.286 168.886 553.967 168.992 553.701 169.172C553.437 169.348 553.242 169.578 553.115 169.861C552.991 170.141 552.956 170.452 553.009 170.792L553.752 175.567L552.583 175.671ZM442.389 195.558L441.385 195.946C441.292 195.778 441.169 195.618 441.014 195.466C440.863 195.31 440.67 195.188 440.435 195.099C440.201 195.01 439.913 194.981 439.573 195.011C439.108 195.053 438.736 195.194 438.459 195.434C438.185 195.671 438.073 195.952 438.123 196.276C438.168 196.564 438.309 196.782 438.546 196.93C438.784 197.079 439.135 197.189 439.602 197.26L440.774 197.435C441.479 197.538 442.025 197.744 442.411 198.051C442.796 198.356 443.03 198.771 443.112 199.299C443.179 199.731 443.114 200.129 442.916 200.492C442.721 200.854 442.416 201.154 442.001 201.39C441.586 201.626 441.083 201.77 440.492 201.823C439.716 201.892 439.048 201.782 438.488 201.493C437.927 201.204 437.53 200.745 437.294 200.115L438.361 199.741C438.53 200.138 438.777 200.425 439.102 200.601C439.431 200.778 439.835 200.845 440.313 200.803C440.858 200.754 441.273 200.601 441.557 200.343C441.845 200.082 441.963 199.789 441.913 199.465C441.872 199.203 441.745 198.992 441.533 198.832C441.32 198.668 441.015 198.559 440.619 198.504L439.305 198.322C438.583 198.22 438.032 198.012 437.651 197.697C437.274 197.379 437.045 196.959 436.964 196.439C436.897 196.013 436.959 195.626 437.149 195.277C437.343 194.927 437.635 194.641 438.025 194.417C438.418 194.193 438.882 194.057 439.417 194.009C440.17 193.942 440.786 194.054 441.267 194.343C441.75 194.632 442.124 195.037 442.389 195.558ZM445.198 201.245L444.024 193.699L445.193 193.595L446.367 201.141L445.198 201.245ZM444.423 192.389C444.195 192.409 443.987 192.35 443.798 192.21C443.612 192.071 443.502 191.893 443.469 191.677C443.435 191.461 443.487 191.268 443.625 191.1C443.766 190.932 443.951 190.837 444.178 190.817C444.406 190.797 444.613 190.856 444.799 190.996C444.988 191.135 445.099 191.313 445.133 191.529C445.166 191.745 445.113 191.937 444.971 192.106C444.834 192.274 444.651 192.369 444.423 192.389ZM450.642 193.111L450.794 194.094L446.853 194.444L446.7 193.462L450.642 193.111ZM447.567 191.552L448.736 191.448L449.855 198.64C449.906 198.967 449.992 199.209 450.113 199.364C450.237 199.515 450.379 199.612 450.54 199.655C450.703 199.693 450.871 199.705 451.042 199.69C451.171 199.678 451.276 199.662 451.356 199.642C451.436 199.618 451.5 199.599 451.548 199.585L451.948 200.605C451.873 200.642 451.767 200.681 451.63 200.723C451.493 200.768 451.316 200.801 451.098 200.82C450.768 200.85 450.433 200.808 450.094 200.695C449.759 200.582 449.465 200.391 449.212 200.121C448.962 199.851 448.803 199.497 448.735 199.058L447.567 191.552ZM459.761 200.13C459.279 200.173 458.828 200.121 458.407 199.976C457.985 199.828 457.632 199.592 457.348 199.268C457.063 198.942 456.882 198.533 456.806 198.042C456.738 197.609 456.77 197.251 456.9 196.968C457.029 196.68 457.225 196.447 457.489 196.268C457.752 196.088 458.051 195.945 458.386 195.839C458.724 195.73 459.066 195.636 459.412 195.559C459.865 195.459 460.232 195.381 460.515 195.326C460.801 195.268 461.003 195.195 461.124 195.108C461.247 195.021 461.295 194.884 461.266 194.697L461.26 194.658C461.184 194.173 460.992 193.808 460.683 193.563C460.377 193.318 459.955 193.22 459.417 193.267C458.859 193.317 458.44 193.477 458.161 193.748C457.882 194.018 457.699 194.297 457.613 194.583L456.443 194.289C456.57 193.813 456.778 193.432 457.068 193.147C457.362 192.859 457.697 192.647 458.074 192.51C458.454 192.37 458.835 192.283 459.218 192.249C459.462 192.227 459.748 192.232 460.074 192.263C460.403 192.29 460.729 192.379 461.054 192.529C461.382 192.679 461.673 192.924 461.926 193.264C462.18 193.603 462.353 194.072 462.447 194.672L463.22 199.643L462.051 199.747L461.892 198.725L461.833 198.73C461.779 198.901 461.674 199.088 461.518 199.291C461.363 199.494 461.141 199.675 460.855 199.833C460.568 199.992 460.204 200.09 459.761 200.13ZM459.777 199.072C460.24 199.031 460.615 198.907 460.904 198.698C461.196 198.49 461.401 198.236 461.519 197.937C461.639 197.637 461.675 197.33 461.626 197.016L461.461 195.954C461.421 196.018 461.32 196.082 461.16 196.146C461.002 196.206 460.817 196.264 460.604 196.319C460.395 196.371 460.19 196.419 459.989 196.464C459.791 196.505 459.631 196.539 459.508 196.566C459.211 196.633 458.937 196.722 458.686 196.834C458.439 196.942 458.247 197.09 458.113 197.278C457.981 197.462 457.938 197.702 457.983 197.997C458.046 198.4 458.244 198.691 458.576 198.87C458.912 199.046 459.312 199.114 459.777 199.072ZM465.353 199.453L464.179 191.908L465.308 191.807L465.492 192.986L465.591 192.978C465.687 192.561 465.894 192.225 466.212 191.971C466.53 191.714 466.937 191.563 467.432 191.519C467.934 191.474 468.369 191.55 468.738 191.747C469.109 191.939 469.42 192.229 469.671 192.615L469.751 192.608C469.885 192.201 470.129 191.865 470.483 191.601C470.836 191.334 471.285 191.177 471.83 191.128C472.51 191.068 473.099 191.229 473.597 191.614C474.095 191.994 474.413 192.628 474.551 193.516L475.336 198.566L474.168 198.67L473.382 193.62C473.296 193.063 473.08 192.679 472.736 192.467C472.392 192.255 472.012 192.168 471.596 192.205C471.061 192.252 470.671 192.45 470.428 192.797C470.183 193.141 470.099 193.556 470.175 194.044L470.939 198.957L469.75 199.063L468.947 193.895C468.88 193.466 468.686 193.132 468.364 192.895C468.043 192.655 467.66 192.555 467.218 192.594C466.914 192.621 466.643 192.726 466.404 192.91C466.168 193.094 465.991 193.335 465.874 193.635C465.759 193.931 465.731 194.263 465.788 194.634L466.522 199.35L465.353 199.453ZM480.687 198.25C479.954 198.315 479.297 198.211 478.715 197.937C478.137 197.66 477.659 197.244 477.281 196.69C476.907 196.132 476.659 195.467 476.539 194.694C476.419 193.921 476.455 193.227 476.647 192.612C476.842 191.994 477.17 191.497 477.63 191.121C478.093 190.741 478.668 190.52 479.354 190.459C479.751 190.424 480.152 190.455 480.559 190.551C480.965 190.648 481.35 190.83 481.713 191.096C482.075 191.36 482.388 191.724 482.651 192.188C482.914 192.653 483.1 193.237 483.21 193.942L483.286 194.433L477.423 194.954L477.267 193.952L481.942 193.536C481.876 193.111 481.731 192.738 481.507 192.419C481.287 192.1 481.005 191.858 480.661 191.693C480.321 191.527 479.939 191.463 479.516 191.501C479.051 191.542 478.666 191.693 478.362 191.952C478.06 192.208 477.847 192.526 477.722 192.905C477.597 193.285 477.567 193.683 477.631 194.099L477.735 194.767C477.824 195.337 477.998 195.811 478.258 196.19C478.52 196.565 478.846 196.84 479.234 197.014C479.623 197.186 480.053 197.25 480.525 197.208C480.832 197.181 481.103 197.114 481.337 197.007C481.574 196.896 481.77 196.746 481.924 196.556C482.079 196.363 482.185 196.131 482.243 195.86L483.421 196.074C483.361 196.465 483.213 196.817 482.978 197.13C482.741 197.44 482.429 197.693 482.042 197.89C481.653 198.084 481.202 198.204 480.687 198.25ZM487.724 189.815L487.877 190.797L483.935 191.148L483.782 190.165L487.724 189.815ZM484.65 188.255L485.818 188.152L486.937 195.343C486.988 195.671 487.074 195.912 487.195 196.068C487.319 196.219 487.462 196.316 487.622 196.358C487.785 196.397 487.953 196.409 488.125 196.393C488.253 196.382 488.358 196.366 488.439 196.346C488.518 196.322 488.582 196.303 488.63 196.289L489.03 197.309C488.956 197.345 488.85 197.385 488.712 197.427C488.575 197.472 488.398 197.505 488.18 197.524C487.85 197.553 487.515 197.512 487.177 197.399C486.841 197.286 486.547 197.095 486.294 196.825C486.044 196.555 485.886 196.201 485.817 195.762L484.65 188.255Z" fill="url(#paint3_linear_42_40)"/>
<path d="M499.222 111.225L502.903 110.898C503.686 110.829 504.385 110.894 505 111.095C505.616 111.296 506.117 111.63 506.505 112.096C506.898 112.557 507.15 113.145 507.261 113.86C507.343 114.391 507.304 114.882 507.143 115.334C506.987 115.787 506.735 116.177 506.386 116.505C506.037 116.828 505.611 117.067 505.109 117.221L504.794 117.375L500.864 117.724L500.722 116.915L504.014 116.622C504.606 116.57 505.081 116.413 505.44 116.151C505.799 115.89 506.048 115.565 506.188 115.177C506.332 114.783 506.37 114.373 506.304 113.946C506.225 113.436 506.045 113.006 505.764 112.655C505.488 112.299 505.118 112.04 504.657 111.877C504.195 111.715 503.653 111.661 503.03 111.716L500.306 111.959L501.928 122.38L500.97 122.465L499.222 111.225ZM507.966 121.843L504.251 117.079L505.277 116.98L508.97 121.652L508.986 121.753L507.966 121.843ZM518.042 120.126L518.168 120.936L511.795 121.503L511.669 120.692L518.042 120.126ZM510.334 110.238L512.083 121.477L511.126 121.562L509.377 110.323L510.334 110.238ZM516.41 114.808L516.536 115.619L510.957 116.115L510.831 115.304L516.41 114.808ZM516.381 109.7L516.508 110.518L510.174 111.081L510.047 110.263L516.381 109.7ZM523.339 115.836L520.11 116.123L519.984 115.312L523.213 115.025C523.888 114.965 524.418 114.809 524.805 114.555C525.196 114.296 525.458 113.97 525.591 113.577C525.73 113.184 525.763 112.753 525.69 112.285C525.619 111.827 525.455 111.414 525.198 111.045C524.946 110.676 524.589 110.395 524.127 110.201C523.67 110.002 523.105 109.932 522.43 109.992L519.535 110.249L521.156 120.671L520.199 120.756L518.451 109.516L522.303 109.174C523.133 109.1 523.853 109.179 524.462 109.412C525.077 109.645 525.569 110 525.938 110.478C526.307 110.957 526.542 111.526 526.645 112.184C526.752 112.874 526.699 113.481 526.487 114.006C526.273 114.526 525.904 114.943 525.379 115.255C524.854 115.568 524.174 115.762 523.339 115.836ZM537.418 112.917L537.605 114.122C537.727 114.909 537.734 115.631 537.626 116.288C537.522 116.939 537.311 117.508 536.992 117.995C536.679 118.482 536.271 118.871 535.769 119.161C535.268 119.45 534.679 119.625 534.005 119.685C533.346 119.744 532.725 119.676 532.143 119.483C531.566 119.289 531.048 118.983 530.588 118.565C530.128 118.146 529.743 117.63 529.432 117.016C529.12 116.397 528.903 115.693 528.78 114.906L528.593 113.702C528.47 112.914 528.464 112.195 528.573 111.543C528.686 110.886 528.902 110.314 529.221 109.827C529.54 109.339 529.95 108.95 530.452 108.661C530.954 108.371 531.534 108.197 532.193 108.138C532.867 108.078 533.493 108.145 534.07 108.339C534.647 108.533 535.166 108.839 535.625 109.257C536.085 109.676 536.468 110.195 536.775 110.814C537.081 111.429 537.295 112.13 537.418 112.917ZM536.655 114.206L536.466 112.986C536.362 112.322 536.192 111.732 535.954 111.216C535.721 110.699 535.425 110.267 535.065 109.918C534.711 109.568 534.303 109.312 533.841 109.15C533.38 108.987 532.874 108.931 532.324 108.979C531.789 109.027 531.325 109.17 530.931 109.409C530.537 109.647 530.218 109.968 529.976 110.37C529.739 110.772 529.581 111.245 529.503 111.789C529.429 112.333 529.444 112.937 529.548 113.601L529.737 114.821C529.842 115.49 530.013 116.085 530.252 116.607C530.495 117.122 530.797 117.557 531.157 117.911C531.516 118.26 531.924 118.516 532.381 118.679C532.843 118.842 533.341 118.899 533.875 118.852C534.43 118.802 534.905 118.658 535.299 118.42C535.693 118.181 536.009 117.861 536.246 117.459C536.483 117.052 536.635 116.577 536.703 116.033C536.775 115.484 536.76 114.875 536.655 114.206ZM539.034 107.686L542.715 107.359C543.498 107.29 544.197 107.355 544.812 107.556C545.427 107.757 545.929 108.091 546.317 108.557C546.71 109.018 546.961 109.606 547.073 110.322C547.155 110.852 547.116 111.343 546.955 111.796C546.799 112.248 546.547 112.638 546.198 112.966C545.849 113.29 545.423 113.528 544.921 113.683L544.606 113.836L540.676 114.185L540.534 113.376L543.826 113.083C544.417 113.031 544.893 112.874 545.252 112.612C545.611 112.351 545.86 112.026 545.999 111.638C546.143 111.244 546.182 110.834 546.116 110.407C546.036 109.897 545.856 109.467 545.576 109.116C545.299 108.76 544.93 108.501 544.468 108.338C544.007 108.176 543.464 108.122 542.842 108.178L540.118 108.42L541.739 118.841L540.782 118.926L539.034 107.686ZM547.778 118.304L544.063 113.54L545.089 113.441L548.782 118.113L548.797 118.214L547.778 118.304ZM552.364 106.502L554.112 117.741L553.163 117.826L551.415 106.586L552.364 106.502ZM556.247 106.156L556.374 106.975L547.667 107.749L547.539 106.93L556.247 106.156Z" fill="white"/>
<g filter="url(#filter2_d_42_40)">
<rect width="158.469" height="152.526" rx="24" transform="matrix(0.996073 -0.0885398 0.153707 0.988117 456.812 204.434)" fill="url(#paint4_linear_42_40)"/>
</g>
<path d="M514.983 283.992L515.049 283.924L519.502 279.507C519.784 279.225 519.989 278.876 520.102 278.49C520.214 278.103 520.231 277.69 520.15 277.283L519.861 275.43C519.814 275.024 519.671 274.627 519.443 274.274C519.215 273.921 518.909 273.621 518.55 273.399L512.864 269.881L512.779 269.827C511.896 269.247 511.231 268.387 510.902 267.403C510.572 266.418 510.601 265.372 510.982 264.452L516.001 251.998C516.007 251.986 516.013 251.973 516.017 251.961C516.402 251.052 517.107 250.328 518.008 249.912C518.909 249.497 519.949 249.417 520.948 249.686L521.008 249.702L527.34 251.565C527.74 251.683 528.156 251.708 528.555 251.636C528.954 251.564 529.323 251.398 529.633 251.152C530.108 250.774 530.595 250.413 531.093 250.07C531.416 249.847 531.677 249.55 531.854 249.2C532.032 248.851 532.121 248.46 532.114 248.058L532.025 241.633L532.027 241.516C532.069 240.516 532.46 239.583 533.134 238.875C533.807 238.166 534.722 237.725 535.725 237.625L549.464 236.404C550.483 236.317 551.524 236.591 552.403 237.178C553.283 237.766 553.944 238.629 554.271 239.615L554.3 239.703L556.184 245.982C556.3 246.373 556.505 246.737 556.783 247.045C557.061 247.354 557.404 247.599 557.785 247.76C558.376 248.005 558.96 248.269 559.536 248.55C559.912 248.734 560.321 248.83 560.73 248.83C561.138 248.829 561.535 248.733 561.886 248.548L567.477 245.614L567.53 245.586C568.42 245.148 569.459 245.044 570.464 245.291C571.469 245.539 572.377 246.122 573.031 246.94L573.057 246.973L581.772 258.215C582.426 259.044 582.775 260.057 582.758 261.074C582.74 262.091 582.356 263.044 581.674 263.765L581.608 263.832L577.155 268.25C576.873 268.532 576.668 268.88 576.555 269.267C576.443 269.653 576.426 270.067 576.508 270.473L576.796 272.326C576.843 272.733 576.986 273.129 577.214 273.482C577.442 273.836 577.748 274.136 578.107 274.358L583.793 277.876L583.878 277.93C584.761 278.51 585.426 279.369 585.755 280.354C586.085 281.339 586.056 282.384 585.675 283.305L580.656 295.759C580.65 295.771 580.645 295.783 580.64 295.796C580.255 296.704 579.55 297.429 578.649 297.844C577.748 298.26 576.708 298.34 575.709 298.07L575.649 298.055L569.322 296.191C568.922 296.073 568.506 296.049 568.107 296.12C567.708 296.192 567.339 296.358 567.029 296.604C566.554 296.984 566.067 297.344 565.569 297.687C565.246 297.909 564.985 298.207 564.808 298.556C564.63 298.905 564.541 299.296 564.548 299.698L564.641 306.123L564.64 306.24C564.597 307.242 564.205 308.176 563.53 308.885C562.855 309.593 561.937 310.034 560.932 310.131L547.193 311.352C546.174 311.44 545.133 311.166 544.254 310.578C543.374 309.991 542.713 309.128 542.386 308.142L542.357 308.053L540.473 301.774C540.356 301.383 540.149 301.019 539.87 300.71C539.591 300.401 539.246 300.157 538.865 299.997C538.269 299.751 537.684 299.486 537.113 299.207C536.737 299.023 536.328 298.927 535.919 298.928C535.511 298.928 535.114 299.025 534.763 299.209L529.171 302.136L529.118 302.163C528.227 302.602 527.189 302.706 526.184 302.459C525.179 302.212 524.27 301.628 523.617 300.809C523.609 300.798 523.6 300.787 523.591 300.776L514.887 289.543C514.232 288.714 513.882 287.701 513.899 286.684C513.917 285.666 514.301 284.712 514.983 283.992ZM535.584 275.622C536.087 278.094 537.297 280.414 539.067 282.3C540.836 284.187 543.089 285.559 545.551 286.249C548.014 286.939 550.579 286.918 552.936 286.188C555.293 285.458 557.34 284.05 558.828 282.137C560.315 280.223 561.18 277.886 561.316 275.409C561.452 272.932 560.854 270.422 559.595 268.185C558.335 265.948 556.469 264.079 554.222 262.807C551.975 261.534 549.445 260.912 546.939 261.017C545.14 261.097 543.403 261.549 541.837 262.343C540.271 263.138 538.911 264.257 537.843 265.631C536.775 267.005 536.023 268.602 535.634 270.322C535.245 272.042 535.228 273.847 535.584 275.622Z" fill="url(#paint5_linear_42_40)"/>
<rect width="57.0127" height="54.8748" rx="17" transform="matrix(0.996073 -0.0885398 0.153707 0.988117 642.675 349.221)" fill="url(#paint6_linear_42_40)"/>
<rect width="57.0127" height="54.8748" rx="17" transform="matrix(0.996073 -0.0885398 0.153707 0.988117 645.725 346.349)" fill="url(#paint7_linear_42_40)"/>
<path d="M686.824 360.209C687.188 359.768 687.722 359.495 688.312 359.447C688.903 359.399 689.503 359.58 689.988 359.952C690.473 360.324 690.803 360.859 690.91 361.442C691.016 362.025 690.89 362.612 690.559 363.079L680.798 379.16C680.624 379.401 680.401 379.602 680.141 379.75C679.881 379.899 679.59 379.992 679.286 380.025C678.981 380.058 678.669 380.029 678.367 379.941C678.066 379.853 677.783 379.707 677.533 379.511L668.274 372.267C668.018 372.08 667.8 371.847 667.633 371.582C667.466 371.316 667.353 371.023 667.3 370.721C667.248 370.419 667.257 370.113 667.328 369.822C667.398 369.531 667.529 369.261 667.711 369.027C667.894 368.794 668.125 368.602 668.39 368.464C668.656 368.325 668.95 368.242 669.257 368.221C669.563 368.199 669.874 368.238 670.172 368.337C670.47 368.435 670.749 368.591 670.991 368.794L678.318 374.524L686.777 360.281L686.824 360.209Z" fill="#E4E4E4"/>
<rect width="285.888" height="569.421" rx="43" transform="matrix(0.996073 -0.0885398 0.153707 0.988117 122.94 49.8954)" fill="#2D238A"/>
<rect x="4.59912" y="3.59831" width="278.674" height="561.421" rx="38" transform="matrix(0.996073 -0.0885398 0.153707 0.988117 132.209 36.885)" fill="url(#paint8_linear_42_40)" stroke="url(#paint9_linear_42_40)" stroke-width="8"/>
<path d="M216.065 31.6041C215.98 31.0584 216.357 30.5763 216.907 30.5274L332.264 20.2735C332.814 20.2246 333.328 20.6274 333.413 21.1731L334.576 28.6455C335.849 36.8313 330.192 44.0618 321.94 44.7953L234.474 52.5701C226.222 53.3036 218.501 47.2623 217.227 39.0764L216.065 31.6041Z" fill="#FEB0CD"/>
<g filter="url(#filter3_d_42_40)">
<path d="M358.941 257.248C332.047 259.615 306.148 248.183 289.083 229.118C286.086 207.958 326.968 192.577 348.483 190.684C369.998 188.79 414.532 196.654 418.174 217.757C412.698 228.785 404.431 238.155 394.101 245.042C383.772 251.929 371.697 256.12 358.941 257.248ZM335.368 107.215C343.928 106.461 352.661 109.078 359.647 114.49C366.634 119.902 371.301 127.665 372.621 136.071C373.942 144.478 371.809 152.84 366.69 159.317C361.572 165.794 353.888 169.856 345.329 170.609C336.769 171.362 328.036 168.745 321.05 163.333C314.063 157.922 309.397 150.159 308.076 141.752C306.755 133.345 308.888 124.984 314.007 118.507C319.125 112.03 326.809 107.968 335.368 107.215ZM330.388 75.5174C316.261 76.7606 302.702 80.7246 290.484 87.1831C278.267 93.6415 267.631 102.468 259.183 113.158C242.122 134.748 235.01 162.62 239.413 190.642C243.816 218.664 259.372 244.541 282.659 262.58C294.19 271.512 307.272 278.251 321.158 282.412C335.044 286.573 349.462 288.075 363.589 286.832C392.12 284.321 417.733 270.781 434.795 249.191C451.856 227.601 458.967 199.729 454.565 171.707C445.385 113.279 389.555 70.3103 330.388 75.5174Z" fill="url(#paint10_linear_42_40)"/>
</g>
<rect width="285.934" height="48" rx="21" transform="matrix(0.996073 -0.0885398 0.153707 0.988117 211.669 347.693)" fill="url(#paint11_linear_42_40)"/>
<path d="M250.352 375.49L250.478 376.3L244.602 376.823L244.476 376.012L250.352 375.49ZM243.134 365.558L244.883 376.798L243.925 376.883L242.177 365.643L243.134 365.558ZM259.214 369.216L259.401 370.42C259.524 371.207 259.531 371.929 259.422 372.586C259.319 373.237 259.107 373.806 258.789 374.294C258.475 374.781 258.068 375.169 257.566 375.459C257.064 375.749 256.476 375.924 255.801 375.984C255.142 376.042 254.522 375.975 253.939 375.781C253.362 375.587 252.844 375.281 252.384 374.863C251.925 374.445 251.539 373.928 251.228 373.314C250.916 372.695 250.699 371.992 250.577 371.204L250.389 370C250.267 369.213 250.26 368.493 250.369 367.842C250.482 367.185 250.698 366.612 251.017 366.125C251.336 365.638 251.746 365.249 252.248 364.959C252.75 364.669 253.33 364.495 253.989 364.436C254.664 364.376 255.289 364.443 255.867 364.637C256.444 364.831 256.962 365.137 257.422 365.556C257.881 365.974 258.264 366.493 258.571 367.113C258.877 367.727 259.091 368.428 259.214 369.216ZM258.452 370.504L258.262 369.285C258.159 368.621 257.988 368.031 257.75 367.514C257.517 366.998 257.221 366.565 256.862 366.216C256.507 365.867 256.099 365.611 255.638 365.448C255.176 365.286 254.67 365.229 254.12 365.278C253.586 365.325 253.121 365.468 252.727 365.707C252.333 365.945 252.015 366.266 251.772 366.668C251.535 367.07 251.377 367.543 251.299 368.088C251.226 368.632 251.241 369.236 251.344 369.9L251.534 371.119C251.638 371.788 251.809 372.384 252.048 372.905C252.291 373.421 252.593 373.856 252.953 374.21C253.313 374.559 253.721 374.815 254.177 374.978C254.639 375.14 255.137 375.197 255.671 375.15C256.227 375.101 256.701 374.957 257.095 374.718C257.49 374.48 257.805 374.159 258.043 373.757C258.279 373.35 258.431 372.875 258.499 372.332C258.572 371.782 258.556 371.173 258.452 370.504ZM260.83 363.985L264.511 363.658C265.294 363.588 265.993 363.654 266.608 363.855C267.224 364.056 267.725 364.389 268.113 364.856C268.506 365.317 268.758 365.905 268.869 366.62C268.951 367.15 268.912 367.641 268.751 368.094C268.595 368.546 268.343 368.936 267.994 369.265C267.645 369.588 267.219 369.827 266.717 369.981L266.402 370.134L262.472 370.484L262.33 369.674L265.622 369.382C266.214 369.329 266.689 369.172 267.048 368.911C267.407 368.649 267.656 368.324 267.796 367.936C267.94 367.543 267.978 367.132 267.912 366.705C267.833 366.196 267.653 365.765 267.372 365.415C267.096 365.058 266.726 364.799 266.265 364.637C265.803 364.474 265.261 364.421 264.638 364.476L261.914 364.718L263.536 375.14L262.578 375.225L260.83 363.985ZM269.574 374.603L265.859 369.838L266.885 369.739L270.578 374.412L270.594 374.512L269.574 374.603ZM279.65 372.885L279.776 373.696L273.403 374.263L273.277 373.452L279.65 372.885ZM271.942 362.997L273.691 374.237L272.734 374.322L270.985 363.082L271.942 362.997ZM278.018 367.568L278.144 368.378L272.565 368.874L272.439 368.064L278.018 367.568ZM277.989 362.46L278.116 363.278L271.782 363.841L271.655 363.023L277.989 362.46ZM280.355 362.249L281.32 362.164L287.046 371.688L289.701 361.419L290.658 361.334L287.62 372.999L286.889 373.064L280.355 362.249ZM280.059 362.276L280.907 362.2L281.993 368.521L282.757 373.431L281.807 373.515L280.059 362.276ZM290.121 361.381L290.969 361.306L292.717 372.546L291.76 372.631L290.997 367.721L290.121 361.381ZM298.906 360.6L300.655 371.84L299.698 371.925L297.949 360.685L298.906 360.6ZM306.876 366.646L303.647 366.933L303.521 366.123L306.75 365.835C307.425 365.776 307.955 365.619 308.342 365.365C308.733 365.106 308.995 364.78 309.129 364.388C309.267 363.994 309.3 363.564 309.227 363.095C309.156 362.637 308.992 362.224 308.735 361.855C308.483 361.487 308.126 361.205 307.665 361.011C307.207 360.812 306.642 360.742 305.967 360.802L303.073 361.06L304.694 371.481L303.736 371.566L301.988 360.326L305.84 359.984C306.67 359.91 307.39 359.99 307.999 360.222C308.614 360.455 309.106 360.81 309.475 361.289C309.844 361.767 310.08 362.336 310.182 362.995C310.289 363.684 310.237 364.292 310.024 364.817C309.81 365.337 309.441 365.753 308.916 366.066C308.392 366.378 307.712 366.572 306.876 366.646ZM319.539 367.36C319.491 367.051 319.397 366.78 319.255 366.547C319.114 366.315 318.909 366.114 318.641 365.945C318.377 365.77 318.032 365.618 317.607 365.489C317.187 365.354 316.668 365.23 316.051 365.118C315.461 365.009 314.922 364.88 314.436 364.73C313.95 364.58 313.524 364.396 313.159 364.178C312.799 363.96 312.508 363.693 312.285 363.379C312.062 363.06 311.916 362.679 311.847 362.236C311.78 361.804 311.812 361.402 311.944 361.03C312.075 360.659 312.289 360.329 312.587 360.042C312.889 359.754 313.26 359.52 313.7 359.34C314.146 359.16 314.646 359.045 315.201 358.995C315.995 358.925 316.703 359.013 317.325 359.261C317.952 359.507 318.464 359.871 318.86 360.353C319.26 360.829 319.509 361.38 319.606 362.008L318.649 362.093C318.573 361.604 318.389 361.18 318.096 360.82C317.808 360.454 317.429 360.183 316.96 360.005C316.495 359.822 315.951 359.758 315.328 359.814C314.706 359.869 314.196 360.011 313.801 360.239C313.409 360.462 313.129 360.74 312.96 361.073C312.795 361.401 312.743 361.755 312.802 362.136C312.844 362.403 312.934 362.646 313.073 362.863C313.211 363.075 313.412 363.268 313.676 363.443C313.944 363.612 314.286 363.765 314.702 363.9C315.116 364.03 315.621 364.144 316.214 364.243C316.842 364.354 317.405 364.489 317.903 364.648C318.401 364.808 318.831 365.004 319.194 365.238C319.555 365.467 319.846 365.746 320.066 366.076C320.285 366.406 320.431 366.8 320.502 367.258C320.573 367.716 320.539 368.137 320.398 368.52C320.262 368.897 320.038 369.228 319.724 369.511C319.416 369.794 319.033 370.024 318.577 370.2C318.126 370.376 317.62 370.489 317.06 370.538C316.556 370.583 316.046 370.563 315.528 370.479C315.01 370.395 314.522 370.237 314.066 370.006C313.613 369.77 313.229 369.449 312.914 369.044C312.604 368.639 312.403 368.14 312.311 367.548L313.26 367.464C313.334 367.937 313.492 368.328 313.734 368.635C313.976 368.942 314.271 369.182 314.619 369.354C314.972 369.527 315.348 369.642 315.746 369.7C316.149 369.753 316.544 369.762 316.934 369.728C317.53 369.675 318.033 369.541 318.441 369.328C318.855 369.114 319.157 368.839 319.347 368.504C319.541 368.163 319.605 367.782 319.539 367.36ZM328.096 358.006L329.053 357.921L330.237 365.532C330.369 366.376 330.299 367.095 330.028 367.687C329.757 368.28 329.34 368.742 328.776 369.074C328.218 369.406 327.573 369.604 326.841 369.669C326.089 369.736 325.39 369.657 324.745 369.433C324.1 369.208 323.558 368.831 323.118 368.302C322.683 367.772 322.4 367.085 322.269 366.24L321.085 358.629L322.034 358.545L323.218 366.156C323.32 366.81 323.535 367.346 323.863 367.766C324.191 368.185 324.601 368.485 325.092 368.666C325.583 368.847 326.124 368.911 326.715 368.858C327.301 368.806 327.806 368.649 328.228 368.387C328.65 368.126 328.956 367.762 329.147 367.296C329.337 366.83 329.382 366.271 329.28 365.617L328.096 358.006ZM332.041 357.655L333.006 357.569L338.732 367.094L341.387 356.824L342.345 356.739L339.307 368.404L338.576 368.469L332.041 357.655ZM331.746 357.681L332.594 357.606L333.68 363.927L334.444 368.837L333.494 368.921L331.746 357.681ZM341.808 356.787L342.656 356.711L344.404 367.951L343.447 368.036L342.683 363.127L341.808 356.787Z" fill="white"/>
<rect width="285.35" height="48" rx="21" transform="matrix(0.996073 -0.0885398 0.153707 0.988117 221.747 414.845)" fill="url(#paint12_linear_42_40)"/>
<path d="M247.101 435.161C247.029 434.698 247.137 434.297 247.426 433.958C247.715 433.613 248.125 433.417 248.656 433.37C249.195 433.322 249.654 433.441 250.033 433.727C250.419 434.006 250.647 434.377 250.719 434.84C250.791 435.303 250.683 435.707 250.395 436.052C250.112 436.39 249.702 436.584 249.164 436.631C248.632 436.679 248.173 436.563 247.788 436.284C247.402 435.999 247.173 435.625 247.101 435.161ZM261.897 433.846C261.825 433.383 261.934 432.982 262.223 432.643C262.511 432.298 262.921 432.102 263.453 432.055C263.991 432.007 264.45 432.126 264.83 432.412C265.215 432.69 265.444 433.061 265.516 433.525C265.588 433.988 265.48 434.392 265.191 434.737C264.909 435.075 264.498 435.268 263.96 435.316C263.428 435.363 262.97 435.248 262.585 434.969C262.198 434.684 261.969 434.309 261.897 433.846ZM276.693 432.531C276.621 432.068 276.73 431.667 277.019 431.328C277.307 430.983 277.717 430.787 278.249 430.739C278.787 430.691 279.246 430.81 279.626 431.096C280.011 431.375 280.24 431.746 280.312 432.209C280.384 432.672 280.276 433.077 279.988 433.422C279.705 433.76 279.295 433.953 278.756 434.001C278.225 434.048 277.766 433.932 277.381 433.654C276.995 433.368 276.766 432.994 276.693 432.531ZM291.49 431.216C291.418 430.753 291.526 430.352 291.815 430.013C292.104 429.668 292.514 429.471 293.045 429.424C293.584 429.376 294.043 429.495 294.422 429.781C294.808 430.06 295.036 430.431 295.108 430.894C295.18 431.357 295.072 431.761 294.784 432.107C294.501 432.445 294.091 432.638 293.553 432.686C293.021 432.733 292.562 432.617 292.177 432.338C291.791 432.053 291.562 431.679 291.49 431.216ZM306.286 429.9C306.214 429.437 306.323 429.036 306.612 428.698C306.9 428.352 307.31 428.156 307.842 428.109C308.38 428.061 308.839 428.18 309.219 428.466C309.604 428.745 309.833 429.116 309.905 429.579C309.977 430.042 309.869 430.446 309.581 430.791C309.298 431.13 308.887 431.323 308.349 431.37C307.817 431.418 307.359 431.302 306.974 431.023C306.587 430.738 306.358 430.364 306.286 429.9ZM321.082 428.585C321.01 428.122 321.119 427.721 321.408 427.382C321.696 427.037 322.106 426.841 322.638 426.794C323.176 426.746 323.635 426.865 324.015 427.151C324.4 427.429 324.629 427.8 324.701 428.264C324.773 428.727 324.665 429.131 324.377 429.476C324.094 429.814 323.684 430.007 323.145 430.055C322.614 430.102 322.155 429.987 321.77 429.708C321.384 429.423 321.155 429.048 321.082 428.585ZM335.879 427.27C335.807 426.807 335.915 426.406 336.205 426.067C336.493 425.722 336.903 425.526 337.434 425.478C337.973 425.431 338.432 425.55 338.811 425.835C339.197 426.114 339.425 426.485 339.497 426.948C339.569 427.412 339.461 427.816 339.173 428.161C338.891 428.499 338.48 428.692 337.942 428.74C337.41 428.787 336.952 428.671 336.566 428.393C336.18 428.107 335.951 427.733 335.879 427.27ZM350.675 425.955C350.603 425.492 350.712 425.091 351.001 424.752C351.289 424.407 351.699 424.21 352.231 424.163C352.769 424.115 353.228 424.234 353.608 424.52C353.993 424.799 354.222 425.17 354.294 425.633C354.366 426.096 354.258 426.501 353.97 426.846C353.687 427.184 353.276 427.377 352.738 427.425C352.206 427.472 351.748 427.356 351.363 427.077C350.976 426.792 350.747 426.418 350.675 425.955Z" fill="white"/>
<rect width="150" height="42" rx="21" transform="matrix(0.996073 -0.0885398 0.153707 0.988117 292.117 494.816)" fill="url(#paint13_linear_42_40)"/>
<path d="M342.753 512.886L339.563 513.17L339.422 512.368L342.169 512.124C342.729 512.075 343.194 511.952 343.564 511.758C343.933 511.563 344.195 511.3 344.348 510.968C344.506 510.63 344.549 510.23 344.477 509.767C344.403 509.293 344.241 508.911 343.991 508.62C343.74 508.325 343.4 508.12 342.972 508.007C342.544 507.893 342.024 507.864 341.412 507.918L339.031 508.13L340.652 518.552L339.695 518.637L337.947 507.397L341.285 507.1C341.861 507.049 342.386 507.06 342.86 507.132C343.334 507.205 343.751 507.348 344.11 507.561C344.469 507.774 344.761 508.059 344.984 508.415C345.212 508.765 345.366 509.195 345.445 509.704C345.517 510.167 345.479 510.596 345.33 510.99C345.18 511.379 344.934 511.709 344.592 511.979C344.255 512.244 343.828 512.428 343.313 512.531L342.753 512.886ZM343.524 518.296L340.1 518.601L340.464 517.747L343.398 517.486C343.958 517.436 344.421 517.301 344.786 517.081C345.156 516.855 345.42 516.557 345.578 516.188C345.737 515.82 345.778 515.393 345.703 514.909C345.636 514.482 345.483 514.107 345.244 513.784C345.004 513.461 344.677 513.219 344.263 513.057C343.848 512.891 343.344 512.834 342.753 512.886L340.769 513.063L340.659 512.258L343.469 512.009L343.684 512.279C344.201 512.285 344.669 512.403 345.088 512.632C345.512 512.855 345.859 513.156 346.128 513.533C346.402 513.911 346.576 514.336 346.65 514.81C346.755 515.489 346.692 516.079 346.46 516.58C346.232 517.075 345.864 517.47 345.358 517.765C344.856 518.055 344.245 518.232 343.524 518.296ZM354.561 505.92L355.518 505.835L356.702 513.447C356.833 514.291 356.763 515.009 356.493 515.602C356.222 516.194 355.805 516.657 355.241 516.989C354.683 517.32 354.038 517.518 353.306 517.583C352.554 517.65 351.855 517.571 351.21 517.347C350.565 517.123 350.023 516.746 349.583 516.216C349.148 515.686 348.865 514.999 348.733 514.155L347.549 506.543L348.499 506.459L349.683 514.07C349.784 514.724 349.999 515.261 350.328 515.68C350.656 516.1 351.065 516.4 351.556 516.581C352.047 516.761 352.589 516.825 353.18 516.773C353.766 516.721 354.27 516.564 354.692 516.302C355.115 516.04 355.421 515.676 355.611 515.21C355.802 514.745 355.846 514.185 355.745 513.532L354.561 505.92ZM362.008 505.258L363.756 516.498L362.807 516.582L361.059 505.342L362.008 505.258ZM365.891 504.913L366.018 505.731L357.31 506.505L357.183 505.687L365.891 504.913ZM371.657 504.4L373.406 515.64L372.456 515.725L370.708 504.485L371.657 504.4ZM375.54 504.055L375.668 504.873L366.96 505.647L366.833 504.829L375.54 504.055ZM386.313 508.185L386.5 509.389C386.623 510.176 386.63 510.898 386.522 511.555C386.418 512.206 386.206 512.775 385.888 513.263C385.574 513.75 385.167 514.138 384.665 514.428C384.163 514.718 383.575 514.893 382.9 514.953C382.241 515.011 381.621 514.944 381.038 514.75C380.461 514.556 379.943 514.25 379.483 513.832C379.024 513.414 378.638 512.898 378.327 512.283C378.015 511.664 377.798 510.961 377.676 510.173L377.488 508.969C377.366 508.182 377.359 507.462 377.468 506.811C377.582 506.154 377.798 505.582 378.116 505.094C378.435 504.607 378.845 504.218 379.347 503.928C379.849 503.638 380.429 503.464 381.088 503.405C381.763 503.346 382.388 503.413 382.966 503.606C383.543 503.8 384.061 504.106 384.521 504.525C384.98 504.943 385.363 505.462 385.67 506.082C385.976 506.696 386.19 507.397 386.313 508.185ZM385.551 509.473L385.361 508.254C385.258 507.59 385.087 507 384.849 506.483C384.616 505.967 384.32 505.534 383.961 505.185C383.607 504.836 383.199 504.58 382.737 504.417C382.275 504.255 381.769 504.198 381.219 504.247C380.685 504.294 380.221 504.437 379.826 504.676C379.432 504.914 379.114 505.235 378.871 505.637C378.634 506.039 378.476 506.513 378.398 507.057C378.325 507.601 378.34 508.205 378.443 508.869L378.633 510.088C378.737 510.757 378.908 511.353 379.147 511.874C379.391 512.39 379.692 512.825 380.052 513.179C380.412 513.528 380.82 513.784 381.276 513.947C381.738 514.109 382.236 514.166 382.771 514.119C383.326 514.07 383.8 513.926 384.195 513.687C384.589 513.449 384.904 513.128 385.142 512.726C385.378 512.319 385.53 511.844 385.598 511.301C385.671 510.751 385.655 510.142 385.551 509.473ZM396.388 502.202L398.136 513.442L397.171 513.528L389.164 504.503L390.658 514.107L389.701 514.192L387.952 502.952L388.91 502.867L396.932 511.89L395.439 502.286L396.388 502.202Z" fill="white"/>
<rect width="69.1159" height="3.14163" rx="1.57082" transform="matrix(0.996073 -0.0885398 0.153707 0.988117 241.371 36.2209)" fill="#19379C"/>
<g filter="url(#filter4_d_42_40)">
<rect width="130.561" height="125.665" rx="24" transform="matrix(0.996073 -0.0885398 0.153707 0.988117 70.7427 11.5597)" fill="url(#paint14_linear_42_40)"/>
</g>
<path d="M181.028 39.8576C181.137 40.5511 181.07 41.2493 180.836 41.8901C180.601 42.531 180.205 43.0946 179.683 43.5309L146.288 71.4608L105.232 50.1488C104.395 49.7154 103.706 49.0367 103.265 48.2132C102.824 47.3897 102.656 46.4651 102.786 45.5762C102.915 44.6873 103.335 43.8814 103.983 43.2777C104.632 42.674 105.474 42.3046 106.385 42.2241L176.136 36.024C178.483 35.8154 180.674 37.5352 181.035 39.857M183.365 54.8352L188.428 87.3851C188.695 89.1003 188.264 90.8063 187.23 92.1279C186.196 93.4494 184.644 94.2782 182.915 94.4318L117.721 100.227C115.992 100.381 114.228 99.8465 112.817 98.7424C111.405 97.6382 110.463 96.0543 110.196 94.339L105.133 61.7892C104.931 60.4957 106.266 59.5969 107.459 60.2186L147.797 81.1617L180.614 53.7225C180.834 53.5381 181.104 53.4192 181.396 53.3783C181.688 53.3374 181.991 53.3762 182.273 53.4904C182.555 53.6047 182.804 53.7901 182.995 54.027C183.187 54.2639 183.312 54.5435 183.358 54.8358" fill="url(#paint15_linear_42_40)"/>
<rect width="71.9372" height="69.2395" rx="16" transform="matrix(0.996073 -0.0885398 0.153707 0.988117 68.9399 296.087)" fill="url(#paint16_linear_42_40)"/>
<rect width="71.9372" height="69.2395" rx="16" transform="matrix(0.996073 -0.0885398 0.153707 0.988117 71.9893 293.215)" fill="url(#paint17_linear_42_40)"/>
<g clip-path="url(#clip1_42_40)">
<rect width="41" height="7" rx="2" transform="matrix(0.996073 -0.0885398 0.153707 0.988117 89.1816 306.378)" fill="url(#paint18_linear_42_40)"/>
<rect width="41" height="7" rx="2" transform="matrix(0.996073 -0.0885398 0.153707 0.988117 91.6411 322.188)" fill="url(#paint19_linear_42_40)"/>
<rect width="41" height="7" rx="2" transform="matrix(0.996073 -0.0885398 0.153707 0.988117 94.1001 337.997)" fill="url(#paint20_linear_42_40)"/>
</g>
<rect width="71.9372" height="69.2395" rx="16" transform="matrix(0.996073 -0.0885398 0.153707 0.988117 42.811 401.331)" fill="url(#paint21_linear_42_40)"/>
<rect width="71.9372" height="69.2395" rx="16" transform="matrix(0.996073 -0.0885398 0.153707 0.988117 45.8604 398.459)" fill="url(#paint22_linear_42_40)"/>
<path d="M80.917 404.861C81.7381 404.789 82.5757 405.013 83.2667 405.488C83.9576 405.964 84.4522 406.658 84.6542 407.435L84.7173 407.737L90.0245 441.516C90.1518 442.329 89.948 443.14 89.4551 443.78C88.9623 444.42 88.2182 444.841 87.3772 444.954C86.5361 445.068 85.6625 444.866 84.9374 444.391C84.2122 443.915 83.6912 443.202 83.4821 442.4L83.419 442.097L78.1118 408.319C77.9799 407.479 78.2013 406.643 78.7274 405.994C79.2534 405.346 80.0411 404.938 80.917 404.861ZM73.1047 411.97C73.9807 411.893 74.8732 412.152 75.5859 412.692C76.2986 413.231 76.7731 414.006 76.9051 414.846L80.222 435.958C80.354 436.798 80.1326 437.634 79.6065 438.282C79.0804 438.93 78.2928 439.338 77.4168 439.415C76.5409 439.492 75.6484 439.232 74.9357 438.693C74.223 438.154 73.7484 437.379 73.6165 436.539L70.2995 415.427C70.1676 414.587 70.389 413.751 70.9151 413.103C71.4411 412.455 72.2288 412.047 73.1047 411.97ZM90.7195 410.42C91.5955 410.343 92.4879 410.602 93.2006 411.142C93.9133 411.681 94.3879 412.456 94.5198 413.296L97.8368 434.407C97.9687 435.247 97.7473 436.083 97.2212 436.732C96.6952 437.38 95.9075 437.788 95.0316 437.865C94.1556 437.942 93.2631 437.682 92.5504 437.143C91.8377 436.603 91.3632 435.829 91.2312 434.989L87.9143 413.877C87.7823 413.037 88.0037 412.201 88.5298 411.553C89.0559 410.904 89.8436 410.497 90.7195 410.42ZM65.2925 419.078C66.1684 419.001 67.0609 419.261 67.7736 419.8C68.4863 420.34 68.9608 421.115 69.0928 421.955L70.4196 430.399C70.5515 431.239 70.3301 432.075 69.804 432.724C69.2779 433.372 68.4903 433.78 67.6143 433.857C66.7384 433.934 65.8459 433.674 65.1332 433.135C64.4205 432.595 63.946 431.82 63.814 430.981L62.4872 422.536C62.3553 421.696 62.5767 420.86 63.1028 420.212C63.6289 419.563 64.4165 419.156 65.2925 419.078ZM100.522 415.978C101.343 415.906 102.181 416.129 102.872 416.605C103.563 417.081 104.057 417.775 104.259 418.551L104.322 418.854L105.649 427.299C105.776 428.112 105.573 428.923 105.08 429.563C104.587 430.203 103.843 430.623 103.002 430.737C102.161 430.851 101.287 430.649 100.562 430.173C99.8368 429.698 99.3157 428.985 99.1067 428.183L99.0435 427.88L97.7168 419.435C97.5848 418.596 97.8062 417.759 98.3323 417.111C98.8584 416.463 99.646 416.055 100.522 415.978Z" fill="url(#paint23_linear_42_40)"/>
<g clip-path="url(#clip2_42_40)">
<g filter="url(#filter5_d_42_40)">
<path d="M55.5202 237.724C60.2412 237.304 63.9997 235.309 66.7959 231.738C69.5921 228.167 70.6245 224.039 69.8931 219.353C69.1616 214.668 66.8908 210.834 63.0805 207.853C59.2702 204.872 55.0017 203.589 50.2749 204.004C45.5482 204.419 41.791 206.416 39.0036 209.993C36.2161 213.571 35.1823 217.698 35.9021 222.375C36.6219 227.051 38.8942 230.885 42.719 233.878C46.5438 236.87 50.8109 238.152 55.5202 237.724ZM54.3546 230.23C51.7108 230.465 49.3354 229.759 47.2283 228.11C45.1211 226.461 43.8636 224.326 43.4556 221.703C43.0477 219.08 43.6156 216.783 45.1593 214.809C46.7031 212.836 48.7968 211.732 51.4406 211.497C54.0843 211.262 56.4597 211.969 58.5669 213.618C60.674 215.266 61.9315 217.402 62.3395 220.025C62.7475 222.647 62.1796 224.945 60.6358 226.918C59.0921 228.891 56.9983 229.995 54.3546 230.23ZM27.3458 253.522C25.2686 253.707 23.3769 253.132 21.6709 251.797C19.9648 250.462 18.9501 248.764 18.6267 246.701L11.633 201.741C11.3124 199.681 11.7784 197.851 13.0308 196.254C14.2832 194.656 15.9466 193.764 18.0209 193.577L29.9178 192.519L35.7392 184.405L58.3998 182.391L66.5525 189.263L78.4493 188.205C80.5265 188.021 82.4196 188.597 84.1286 189.934C85.8376 191.271 86.8509 192.969 87.1685 195.027L94.1622 239.986C94.4827 242.047 94.0182 243.877 92.7687 245.477C91.5192 247.077 89.8544 247.969 87.7742 248.151L27.3458 253.522Z" fill="url(#paint24_linear_42_40)"/>
</g>
</g>
<defs>
<filter id="filter0_d_42_40" x="432.1" y="346.741" width="302.881" height="268.409" filterUnits="userSpaceOnUse" color-interpolation-filters="sRGB">
<feFlood flood-opacity="0" result="BackgroundImageFix"/>
<feColorMatrix in="SourceAlpha" type="matrix" values="0 0 0 0 0 0 0 0 0 0 0 0 0 0 0 0 0 0 127 0" result="hardAlpha"/>
<feOffset dy="2"/>
<feGaussianBlur stdDeviation="3"/>
<feComposite in2="hardAlpha" operator="out"/>
<feColorMatrix type="matrix" values="0 0 0 0 0.0509804 0 0 0 0 0.0392157 0 0 0 0 0.172549 0 0 0 0.08 0"/>
<feBlend mode="normal" in2="BackgroundImageFix" result="effect1_dropShadow_42_40"/>
<feBlend mode="normal" in="SourceGraphic" in2="effect1_dropShadow_42_40" result="shape"/>
</filter>
<filter id="filter1_d_42_40" x="521.661" y="428.83" width="115.879" height="115.007" filterUnits="userSpaceOnUse" color-interpolation-filters="sRGB">
<feFlood flood-opacity="0" result="BackgroundImageFix"/>
<feColorMatrix in="SourceAlpha" type="matrix" values="0 0 0 0 0 0 0 0 0 0 0 0 0 0 0 0 0 0 127 0" result="hardAlpha"/>
<feOffset dx="-4" dy="7"/>
<feGaussianBlur stdDeviation="7"/>
<feComposite in2="hardAlpha" operator="out"/>
<feColorMatrix type="matrix" values="0 0 0 0 0 0 0 0 0 0 0 0 0 0 0 0 0 0 0.25 0"/>
<feBlend mode="normal" in2="BackgroundImageFix" result="effect1_dropShadow_42_40"/>
<feBlend mode="normal" in="SourceGraphic" in2="effect1_dropShadow_42_40" result="shape"/>
</filter>
<filter id="filter2_d_42_40" x="456.214" y="192.432" width="178.485" height="164.688" filterUnits="userSpaceOnUse" color-interpolation-filters="sRGB">
<feFlood flood-opacity="0" result="BackgroundImageFix"/>
<feColorMatrix in="SourceAlpha" type="matrix" values="0 0 0 0 0 0 0 0 0 0 0 0 0 0 0 0 0 0 127 0" result="hardAlpha"/>
<feOffset dx="-4" dy="4"/>
<feComposite in2="hardAlpha" operator="out"/>
<feColorMatrix type="matrix" values="0 0 0 0 0.305882 0 0 0 0 0.282353 0 0 0 0 0.666667 0 0 0 1 0"/>
<feBlend mode="normal" in2="BackgroundImageFix" result="effect1_dropShadow_42_40"/>
<feBlend mode="normal" in="SourceGraphic" in2="effect1_dropShadow_42_40" result="shape"/>
</filter>
<filter id="filter3_d_42_40" x="166.139" y="45.09" width="311.699" height="306.165" filterUnits="userSpaceOnUse" color-interpolation-filters="sRGB">
<feFlood flood-opacity="0" result="BackgroundImageFix"/>
<feColorMatrix in="SourceAlpha" type="matrix" values="0 0 0 0 0 0 0 0 0 0 0 0 0 0 0 0 0 0 127 0" result="hardAlpha"/>
<feMorphology radius="1" operator="dilate" in="SourceAlpha" result="effect1_dropShadow_42_40"/>
<feOffset dx="-25" dy="17"/>
<feGaussianBlur stdDeviation="23"/>
<feComposite in2="hardAlpha" operator="out"/>
<feColorMatrix type="matrix" values="0 0 0 0 0.578304 0 0 0 0 0.310725 0 0 0 0 0.386455 0 0 0 1 0"/>
<feBlend mode="normal" in2="BackgroundImageFix" result="effect1_dropShadow_42_40"/>
<feBlend mode="normal" in="SourceGraphic" in2="effect1_dropShadow_42_40" result="shape"/>
</filter>
<filter id="filter4_d_42_40" x="70.1455" y="2.02832" width="146.559" height="135.675" filterUnits="userSpaceOnUse" color-interpolation-filters="sRGB">
<feFlood flood-opacity="0" result="BackgroundImageFix"/>
<feColorMatrix in="SourceAlpha" type="matrix" values="0 0 0 0 0 0 0 0 0 0 0 0 0 0 0 0 0 0 127 0" result="hardAlpha"/>
<feOffset dx="-4" dy="4"/>
<feComposite in2="hardAlpha" operator="out"/>
<feColorMatrix type="matrix" values="0 0 0 0 0.305882 0 0 0 0 0.282353 0 0 0 0 0.666667 0 0 0 1 0"/>
<feBlend mode="normal" in2="BackgroundImageFix" result="effect1_dropShadow_42_40"/>
<feBlend mode="normal" in="SourceGraphic" in2="effect1_dropShadow_42_40" result="shape"/>
</filter>
<filter id="filter5_d_42_40" x="8.53516" y="182.391" width="85.7251" height="75.1654" filterUnits="userSpaceOnUse" color-interpolation-filters="sRGB">
<feFlood flood-opacity="0" result="BackgroundImageFix"/>
<feColorMatrix in="SourceAlpha" type="matrix" values="0 0 0 0 0 0 0 0 0 0 0 0 0 0 0 0 0 0 127 0" result="hardAlpha"/>
<feOffset dx="-3" dy="4"/>
<feComposite in2="hardAlpha" operator="out"/>
<feColorMatrix type="matrix" values="0 0 0 0 0.172549 0 0 0 0 0.101961 0 0 0 0 0.439216 0 0 0 1 0"/>
<feBlend mode="normal" in2="BackgroundImageFix" result="effect1_dropShadow_42_40"/>
<feBlend mode="normal" in="SourceGraphic" in2="effect1_dropShadow_42_40" result="shape"/>
</filter>
<linearGradient id="paint0_linear_42_40" x1="519.825" y1="61.7014" x2="570.133" y2="627.663" gradientUnits="userSpaceOnUse">
<stop stop-color="#FFB1CD"/>
<stop offset="1" stop-color="#9F4390"/>
</linearGradient>
<linearGradient id="paint1_linear_42_40" x1="5.89056" y1="10.2103" x2="278.427" y2="254.079" gradientUnits="userSpaceOnUse">
<stop stop-color="#C6C9CB"/>
<stop offset="1" stop-color="#A2A6BE"/>
</linearGradient>
<linearGradient id="paint2_linear_42_40" x1="543.567" y1="451.42" x2="638.534" y2="527.276" gradientUnits="userSpaceOnUse">
<stop offset="0.0242305" stop-color="#B36A8F"/>
<stop offset="1" stop-color="#6F4496"/>
</linearGradient>
<linearGradient id="paint3_linear_42_40" x1="433.351" y1="179.541" x2="572.743" y2="157.858" gradientUnits="userSpaceOnUse">
<stop stop-color="#FA578B"/>
<stop offset="1" stop-color="#66397C"/>
</linearGradient>
<linearGradient id="paint4_linear_42_40" x1="8.10295" y1="5.24309" x2="150.143" y2="149.19" gradientUnits="userSpaceOnUse">
<stop stop-color="#9795CA"/>
<stop offset="1" stop-color="#474491"/>
</linearGradient>
<linearGradient id="paint5_linear_42_40" x1="504.563" y1="227.071" x2="592.398" y2="309.42" gradientUnits="userSpaceOnUse">
<stop stop-color="#FFFCFF"/>
<stop offset="1" stop-color="#C5C0FF"/>
</linearGradient>
<linearGradient id="paint6_linear_42_40" x1="-3.42355" y1="-0.190416" x2="44.5062" y2="54.5864" gradientUnits="userSpaceOnUse">
<stop stop-color="#883C80"/>
<stop offset="1" stop-color="#461F8A"/>
</linearGradient>
<linearGradient id="paint7_linear_42_40" x1="2.91522" y1="1.88632" x2="66.6611" y2="79.9866" gradientUnits="userSpaceOnUse">
<stop stop-color="#EC84A5"/>
<stop offset="1" stop-color="#474491"/>
</linearGradient>
<linearGradient id="paint8_linear_42_40" x1="143.337" y1="0" x2="143.337" y2="569.421" gradientUnits="userSpaceOnUse">
<stop stop-color="#F78AA4"/>
<stop offset="0.645001" stop-color="#AF62A9"/>
<stop offset="0.997029" stop-color="#7442B1"/>
</linearGradient>
<linearGradient id="paint9_linear_42_40" x1="143.337" y1="0" x2="143.337" y2="569.421" gradientUnits="userSpaceOnUse">
<stop stop-color="#FFB1CD"/>
<stop offset="1" stop-color="#9F4390"/>
</linearGradient>
<linearGradient id="paint10_linear_42_40" x1="253.519" y1="233.159" x2="480.69" y2="132.48" gradientUnits="userSpaceOnUse">
<stop offset="0.00122123" stop-color="#F591F2"/>
<stop offset="1" stop-color="#F4F4F4"/>
</linearGradient>
<linearGradient id="paint11_linear_42_40" x1="281.419" y1="28" x2="-0.000198991" y2="28.4404" gradientUnits="userSpaceOnUse">
<stop offset="0.00364045" stop-color="white" stop-opacity="0.24"/>
<stop offset="0.491205" stop-color="#E16EF3"/>
<stop offset="0.958411" stop-color="#F289F4"/>
</linearGradient>
<linearGradient id="paint12_linear_42_40" x1="280.844" y1="28" x2="-0.000201392" y2="28.4386" gradientUnits="userSpaceOnUse">
<stop offset="0.00364045" stop-color="white" stop-opacity="0.24"/>
<stop offset="0.491205" stop-color="#E16EF3"/>
<stop offset="0.958411" stop-color="#F289F4"/>
</linearGradient>
<linearGradient id="paint13_linear_42_40" x1="0" y1="21" x2="150" y2="21" gradientUnits="userSpaceOnUse">
<stop stop-color="#F292F6"/>
<stop offset="1" stop-color="#CD69F4"/>
</linearGradient>
<linearGradient id="paint14_linear_42_40" x1="6.67596" y1="4.31974" x2="123.702" y2="122.916" gradientUnits="userSpaceOnUse">
<stop stop-color="#9795CA"/>
<stop offset="1" stop-color="#474491"/>
</linearGradient>
<linearGradient id="paint15_linear_42_40" x1="108.221" y1="45.9949" x2="188.574" y2="113.526" gradientUnits="userSpaceOnUse">
<stop stop-color="#FFFCFF"/>
<stop offset="1" stop-color="#B7B1FF"/>
</linearGradient>
<linearGradient id="paint16_linear_42_40" x1="-4.31974" y1="-0.240262" x2="56.1567" y2="68.8756" gradientUnits="userSpaceOnUse">
<stop stop-color="#883C80"/>
<stop offset="1" stop-color="#461F8A"/>
</linearGradient>
<linearGradient id="paint17_linear_42_40" x1="3.67835" y1="2.38011" x2="84.1111" y2="100.925" gradientUnits="userSpaceOnUse">
<stop stop-color="#EC84A5"/>
<stop offset="1" stop-color="#474491"/>
</linearGradient>
<linearGradient id="paint18_linear_42_40" x1="0" y1="3.5" x2="41" y2="3.5" gradientUnits="userSpaceOnUse">
<stop stop-color="#FFEDFF"/>
<stop offset="1" stop-color="#FFC1FF"/>
</linearGradient>
<linearGradient id="paint19_linear_42_40" x1="0" y1="3.5" x2="41" y2="3.5" gradientUnits="userSpaceOnUse">
<stop stop-color="#FFDBFF"/>
<stop offset="1" stop-color="#FFB3FF"/>
</linearGradient>
<linearGradient id="paint20_linear_42_40" x1="0" y1="3.5" x2="41" y2="3.5" gradientUnits="userSpaceOnUse">
<stop stop-color="#FFC8FF"/>
<stop offset="1" stop-color="#FFA4FF"/>
</linearGradient>
<linearGradient id="paint21_linear_42_40" x1="-4.31974" y1="-0.240262" x2="56.1567" y2="68.8756" gradientUnits="userSpaceOnUse">
<stop stop-color="#883C80"/>
<stop offset="1" stop-color="#461F8A"/>
</linearGradient>
<linearGradient id="paint22_linear_42_40" x1="3.67835" y1="2.38011" x2="84.1111" y2="100.925" gradientUnits="userSpaceOnUse">
<stop stop-color="#EC84A5"/>
<stop offset="1" stop-color="#474491"/>
</linearGradient>
<linearGradient id="paint23_linear_42_40" x1="62.9621" y1="410.278" x2="113.273" y2="442.422" gradientUnits="userSpaceOnUse">
<stop stop-color="#FFEAFF"/>
<stop offset="1" stop-color="#FFA6FF"/>
</linearGradient>
<linearGradient id="paint24_linear_42_40" x1="12.9894" y1="188.392" x2="92.5507" y2="247.922" gradientUnits="userSpaceOnUse">
<stop stop-color="#EC84A5"/>
<stop offset="1" stop-color="#7A46B0"/>
</linearGradient>
<clipPath id="clip0_42_40">
<rect width="131.949" height="131.949" fill="white" transform="matrix(0.996073 -0.0885398 0.153707 0.988117 507.745 419.985)"/>
</clipPath>
<clipPath id="clip1_42_40">
<rect width="54.0934" height="54.0934" fill="white" transform="matrix(0.996073 -0.0885398 0.153707 0.988117 82.2388 300.107)"/>
</clipPath>
<clipPath id="clip2_42_40">
<rect width="91" height="91" fill="white" transform="matrix(0.996073 -0.0885398 0.153707 0.988117 0 176.187)"/>
</clipPath>
</defs>
</svg>
