<svg width="1009" height="826" viewBox="0 0 1009 826" fill="none" xmlns="http://www.w3.org/2000/svg">
<path fill-rule="evenodd" clip-rule="evenodd" d="M605.74 92.7071L542.501 102.544C519.581 106.11 503.89 127.581 507.456 150.501L605.982 783.884C609.547 806.804 631.018 822.494 653.938 818.929L931.599 775.737C954.52 772.172 970.21 750.701 966.644 727.781L868.118 94.3978C864.553 71.4775 843.082 55.7873 820.162 59.3526L753.958 69.651L754.419 72.6154L754.573 73.6035L756.571 86.449C757.844 94.6348 752.241 102.303 744.055 103.576L625.481 122.021C617.295 123.295 609.627 117.691 608.353 109.505L606.355 96.6595L606.201 95.6714L605.74 92.7071ZM509.432 150.193C506.036 128.365 520.979 107.916 542.808 104.521L604.24 94.9645C604.179 95.2905 604.171 95.6324 604.225 95.9788L606.377 109.812C607.82 119.09 616.511 125.441 625.788 123.997L744.362 105.553C753.639 104.109 759.99 95.4188 758.547 86.1416L756.395 72.3079C756.341 71.9615 756.23 71.6381 756.073 71.3461L820.469 61.3289C842.298 57.9333 862.746 72.8764 866.142 94.7052L964.668 728.088C968.064 749.917 953.121 770.365 931.292 773.761L653.631 816.953C631.802 820.348 611.354 805.405 607.958 783.576L509.432 150.193Z" fill="url(#paint0_linear_202_1713)"/>
<g filter="url(#filter0_d_202_1713)">
<rect x="574.999" y="487.119" width="332" height="305" rx="20" transform="rotate(-8.84181 574.999 487.119)" fill="url(#paint1_linear_202_1713)"/>
</g>
<g clip-path="url(#clip0_202_1713)">
<g filter="url(#filter1_d_202_1713)">
<path d="M801.892 592.496L774.224 596.8L769.921 569.133C769.35 565.464 767.345 562.172 764.347 559.981C761.349 557.79 757.604 556.88 753.935 557.451C750.266 558.022 746.974 560.027 744.784 563.024C742.593 566.022 741.683 569.768 742.253 573.437L747.048 601.027L718.89 605.408C715.221 605.978 711.929 607.983 709.738 610.981C707.548 613.979 706.637 617.724 707.208 621.393C707.779 625.062 709.784 628.354 712.782 630.545C715.779 632.735 719.525 633.646 723.194 633.075L751.276 628.204L755.165 656.438C755.735 660.107 757.74 663.399 760.738 665.59C763.736 667.781 767.481 668.691 771.15 668.12C774.819 667.549 778.111 665.545 780.302 662.547C782.493 659.549 783.403 655.803 782.832 652.135L778.452 623.976L806.195 620.163C809.864 619.593 813.156 617.588 815.347 614.59C817.538 611.592 818.448 607.847 817.877 604.178C817.307 600.509 815.302 597.217 812.304 595.026C809.306 592.836 805.561 591.925 801.892 592.496Z" fill="url(#paint2_linear_202_1713)"/>
</g>
</g>
<rect x="803.056" y="389.405" width="61" height="29" rx="14.5" transform="rotate(-8.84181 803.056 389.405)" stroke="#E5E5EF"/>
<path d="M828.957 404.098L826.296 404.512L824.954 395.889L827.733 395.456C828.57 395.326 829.312 395.388 829.961 395.64C830.61 395.89 831.142 396.312 831.56 396.905C831.976 397.496 832.254 398.238 832.393 399.13C832.533 400.029 832.493 400.827 832.274 401.525C832.054 402.221 831.666 402.79 831.108 403.233C830.55 403.674 829.833 403.962 828.957 404.098ZM827.196 403.423L828.745 403.182C829.458 403.072 830.028 402.842 830.454 402.494C830.88 402.146 831.168 401.7 831.32 401.156C831.471 400.612 831.492 399.989 831.382 399.288C831.274 398.591 831.067 398.01 830.762 397.543C830.456 397.073 830.056 396.738 829.562 396.539C829.068 396.337 828.484 396.288 827.81 396.393L826.142 396.653L827.196 403.423ZM836.61 403.063C836.2 403.127 835.816 403.107 835.458 403.005C835.1 402.9 834.799 402.715 834.557 402.451C834.314 402.184 834.16 401.84 834.095 401.419C834.037 401.048 834.063 400.737 834.173 400.484C834.283 400.228 834.45 400.015 834.673 399.845C834.897 399.675 835.151 399.535 835.436 399.425C835.723 399.311 836.014 399.211 836.308 399.125C836.693 399.014 837.006 398.926 837.246 398.863C837.489 398.796 837.661 398.722 837.764 398.64C837.869 398.558 837.909 398.436 837.884 398.276L837.879 398.243C837.814 397.827 837.65 397.522 837.387 397.327C837.127 397.132 836.768 397.07 836.31 397.141C835.836 397.215 835.48 397.377 835.243 397.626C835.005 397.876 834.85 398.127 834.778 398.38L833.782 398.19C833.889 397.771 834.066 397.43 834.313 397.167C834.562 396.901 834.847 396.699 835.167 396.56C835.49 396.418 835.814 396.321 836.14 396.271C836.348 396.238 836.59 396.226 836.868 396.235C837.147 396.24 837.425 396.299 837.702 396.411C837.981 396.523 838.228 396.719 838.444 396.999C838.66 397.279 838.808 397.675 838.888 398.189L839.551 402.45L838.557 402.605L838.421 401.729L838.37 401.737C838.325 401.888 838.236 402.055 838.104 402.24C837.971 402.424 837.783 402.593 837.54 402.746C837.296 402.899 836.986 403.005 836.61 403.063ZM836.623 402.147C837.016 402.086 837.335 401.957 837.581 401.761C837.829 401.564 838.003 401.333 838.102 401.067C838.205 400.801 838.235 400.533 838.193 400.264L838.052 399.354C838.017 399.411 837.932 399.472 837.795 399.536C837.661 399.598 837.504 399.658 837.323 399.718C837.145 399.774 836.971 399.827 836.8 399.877C836.632 399.923 836.496 399.961 836.391 399.992C836.138 400.066 835.905 400.158 835.692 400.269C835.482 400.376 835.32 400.515 835.205 400.685C835.093 400.852 835.057 401.062 835.096 401.315C835.15 401.66 835.318 401.901 835.601 402.038C835.886 402.172 836.227 402.208 836.623 402.147ZM842.15 404.53C841.982 404.556 841.83 404.566 841.693 404.558C841.557 404.553 841.462 404.542 841.408 404.525L841.524 403.61C841.775 403.634 841.992 403.623 842.175 403.577C842.357 403.532 842.509 403.423 842.629 403.252C842.752 403.084 842.848 402.826 842.918 402.479L843.025 401.944L839.622 395.815L840.7 395.647L843.287 400.524L843.354 400.513L844.338 395.082L845.416 394.914L843.823 402.752C843.752 403.105 843.642 403.405 843.493 403.653C843.345 403.903 843.159 404.1 842.934 404.244C842.712 404.388 842.451 404.483 842.15 404.53Z" fill="#37B7C3"/>
<rect x="734.285" y="400.102" width="61" height="29" rx="14.5" transform="rotate(-8.84181 734.285 400.102)" stroke="#97FEED"/>
<path d="M757.355 415.236L757.237 414.478L759.599 410.919C759.876 410.502 760.102 410.142 760.276 409.839C760.45 409.533 760.57 409.253 760.637 408.998C760.706 408.74 760.72 408.479 760.679 408.215C760.632 407.912 760.518 407.661 760.338 407.462C760.16 407.263 759.937 407.122 759.668 407.04C759.4 406.958 759.11 406.941 758.798 406.99C758.467 407.041 758.188 407.155 757.963 407.331C757.739 407.504 757.579 407.723 757.483 407.988C757.389 408.253 757.367 408.549 757.418 408.878L756.425 409.032C756.346 408.527 756.394 408.065 756.567 407.647C756.741 407.229 757.012 406.883 757.38 406.607C757.751 406.331 758.188 406.153 758.69 406.075C759.195 405.997 759.66 406.034 760.083 406.186C760.507 406.339 760.857 406.579 761.135 406.907C761.414 407.234 761.587 407.62 761.656 408.063C761.705 408.381 761.696 408.7 761.628 409.021C761.563 409.339 761.418 409.705 761.195 410.119C760.975 410.53 760.658 411.039 760.247 411.646L758.632 414.019L758.643 414.087L762.651 413.463L762.795 414.39L757.355 415.236ZM763.872 412.411L763.738 411.552L766.595 404.966L767.218 404.869L767.425 406.2L767.004 406.265L764.846 411.242L764.856 411.309L769.96 410.515L770.104 411.441L763.872 412.411ZM768.206 413.548L767.89 411.518L767.828 411.118L766.865 404.924L767.858 404.77L769.2 413.393L768.206 413.548ZM772.362 408.917L772.967 412.807L771.974 412.962L770.632 404.338L771.626 404.184L772.119 407.35L772.203 407.337C772.302 406.979 772.489 406.679 772.761 406.435C773.036 406.188 773.428 406.025 773.936 405.946C774.376 405.878 774.776 405.906 775.135 406.031C775.493 406.154 775.792 406.382 776.031 406.716C776.272 407.046 776.436 407.489 776.522 408.045L777.161 412.155L776.168 412.309L775.539 408.267C775.459 407.753 775.264 407.377 774.953 407.138C774.645 406.895 774.257 406.811 773.788 406.883C773.463 406.934 773.181 407.048 772.945 407.226C772.71 407.403 772.54 407.635 772.432 407.922C772.327 408.209 772.304 408.54 772.362 408.917Z" fill="#962DFF"/>
<rect x="667.49" y="410.492" width="59" height="29" rx="14.5" transform="rotate(-8.84181 667.49 410.492)" stroke="#E5E5EF"/>
<path d="M692.218 416.536L693.559 425.16L692.515 425.322L691.344 417.794L691.293 417.801L689.405 419.527L689.24 418.466L691.173 416.699L692.218 416.536ZM696.039 424.774L695.921 424.016L698.283 420.458C698.56 420.041 698.786 419.681 698.96 419.378C699.134 419.072 699.254 418.791 699.321 418.536C699.39 418.278 699.404 418.018 699.363 417.754C699.316 417.451 699.202 417.199 699.022 417C698.844 416.801 698.621 416.66 698.352 416.578C698.084 416.496 697.794 416.48 697.482 416.528C697.151 416.58 696.872 416.694 696.647 416.87C696.424 417.042 696.264 417.261 696.167 417.526C696.073 417.791 696.051 418.088 696.102 418.416L695.109 418.571C695.03 418.065 695.078 417.604 695.251 417.186C695.425 416.768 695.696 416.421 696.064 416.145C696.435 415.869 696.872 415.692 697.374 415.614C697.88 415.535 698.344 415.572 698.767 415.725C699.191 415.877 699.541 416.117 699.82 416.445C700.098 416.773 700.271 417.158 700.34 417.602C700.389 417.919 700.38 418.238 700.312 418.559C700.247 418.877 700.102 419.243 699.879 419.657C699.659 420.068 699.342 420.577 698.931 421.185L697.316 423.558L697.327 423.625L701.335 423.002L701.479 423.928L696.039 424.774ZM703.624 419.609L704.229 423.5L703.235 423.655L701.894 415.031L702.888 414.877L703.38 418.043L703.464 418.03C703.564 417.672 703.75 417.372 704.023 417.128C704.298 416.881 704.689 416.718 705.197 416.639C705.638 416.571 706.038 416.599 706.397 416.724C706.755 416.847 707.053 417.075 707.292 417.409C707.533 417.739 707.697 418.182 707.784 418.738L708.423 422.848L707.429 423.002L706.8 418.96C706.721 418.446 706.525 418.07 706.215 417.831C705.907 417.588 705.519 417.503 705.05 417.576C704.724 417.627 704.443 417.741 704.206 417.919C703.972 418.096 703.801 418.328 703.693 418.615C703.589 418.902 703.565 419.233 703.624 419.609Z" fill="#DB87B6"/>
<rect x="607.612" y="419.807" width="52" height="29" rx="14.5" transform="rotate(-8.84181 607.612 419.807)" stroke="#E5E5EF"/>
<path d="M632.471 425.83L633.812 434.454L632.768 434.616L631.597 427.088L631.546 427.096L629.659 428.821L629.494 427.76L631.427 425.993L632.471 425.83ZM636.698 430.02L637.303 433.911L636.309 434.066L634.968 425.442L635.962 425.287L636.454 428.454L636.538 428.441C636.638 428.083 636.824 427.783 637.097 427.539C637.372 427.292 637.763 427.129 638.271 427.05C638.712 426.981 639.112 427.01 639.471 427.135C639.829 427.258 640.127 427.486 640.366 427.819C640.607 428.15 640.771 428.593 640.858 429.149L641.497 433.259L640.503 433.413L639.874 429.371C639.795 428.857 639.599 428.481 639.289 428.242C638.981 427.999 638.593 427.914 638.124 427.987C637.798 428.038 637.517 428.152 637.28 428.33C637.046 428.507 636.875 428.739 636.768 429.026C636.663 429.313 636.639 429.644 636.698 430.02Z" fill="#EC9BC1"/>
<path d="M599.322 403.598L599.189 402.739L602.045 396.153L602.669 396.056L602.876 397.387L602.455 397.453L600.296 402.429L600.307 402.496L605.41 401.702L605.554 402.629L599.322 403.598ZM603.656 404.735L603.341 402.705L603.278 402.305L602.315 396.111L603.309 395.957L604.65 404.58L603.656 404.735ZM610.289 403.824C609.934 403.874 609.57 403.861 609.196 403.787C608.822 403.713 608.466 403.546 608.126 403.285C607.786 403.022 607.487 402.641 607.228 402.144C606.97 401.644 606.778 400.995 606.654 400.198C606.535 399.434 606.502 398.746 606.553 398.135C606.604 397.52 606.734 396.99 606.944 396.543C607.153 396.094 607.433 395.734 607.785 395.463C608.14 395.192 608.56 395.019 609.045 394.944C609.528 394.869 609.973 394.899 610.379 395.034C610.788 395.166 611.138 395.384 611.43 395.69C611.722 395.995 611.937 396.366 612.077 396.801L611.05 396.961C610.894 396.588 610.659 396.296 610.344 396.083C610.029 395.87 609.644 395.799 609.189 395.87C608.521 395.974 608.04 396.346 607.746 396.987C607.455 397.628 607.389 398.473 607.55 399.524L607.617 399.513C607.737 399.25 607.892 399.017 608.082 398.815C608.274 398.61 608.495 398.441 608.745 398.307C608.994 398.173 609.266 398.083 609.561 398.038C610.055 397.961 610.526 398.014 610.975 398.197C611.422 398.378 611.804 398.665 612.118 399.059C612.432 399.45 612.632 399.923 612.718 400.479C612.801 401.012 612.758 401.519 612.588 402C612.418 402.478 612.137 402.881 611.746 403.209C611.356 403.534 610.871 403.739 610.289 403.824ZM610.145 402.898C610.498 402.843 610.802 402.705 611.055 402.484C611.311 402.263 611.497 401.992 611.614 401.669C611.733 401.345 611.764 401.001 611.708 400.636C611.652 400.28 611.522 399.968 611.316 399.701C611.113 399.431 610.859 399.23 610.554 399.099C610.252 398.968 609.924 398.93 609.57 398.985C609.304 399.026 609.064 399.118 608.85 399.261C608.636 399.401 608.456 399.575 608.311 399.785C608.168 399.994 608.065 400.224 608.004 400.475C607.942 400.723 607.931 400.977 607.971 401.235C608.024 401.577 608.154 401.885 608.361 402.157C608.57 402.43 608.829 402.635 609.138 402.774C609.45 402.912 609.785 402.954 610.145 402.898Z" fill="#615E83"/>
<path d="M589.442 339.469L589.309 338.61L592.165 332.025L592.789 331.928L592.996 333.258L592.575 333.324L590.416 338.3L590.427 338.367L595.53 337.574L595.674 338.5L589.442 339.469ZM593.776 340.606L593.461 338.577L593.398 338.177L592.435 331.983L593.429 331.828L594.77 340.452L593.776 340.606ZM600.308 339.711C599.729 339.801 599.203 339.778 598.727 339.642C598.254 339.503 597.866 339.272 597.563 338.948C597.259 338.621 597.072 338.225 597.002 337.759C596.943 337.394 596.962 337.046 597.06 336.715C597.157 336.38 597.316 336.09 597.537 335.843C597.759 335.592 598.024 335.415 598.329 335.31L598.321 335.259C597.892 335.217 597.528 335.036 597.228 334.718C596.928 334.396 596.744 334.007 596.675 333.549C596.604 333.111 596.654 332.702 596.825 332.322C596.996 331.942 597.262 331.621 597.624 331.361C597.989 331.1 598.424 330.93 598.93 330.852C599.429 330.774 599.891 330.804 600.315 330.942C600.739 331.081 601.09 331.305 601.368 331.615C601.65 331.925 601.826 332.299 601.897 332.736C601.965 333.194 601.903 333.622 601.712 334.02C601.524 334.414 601.235 334.696 600.848 334.866L600.856 334.917C601.176 334.924 601.477 335.014 601.76 335.186C602.042 335.354 602.282 335.583 602.479 335.872C602.676 336.157 602.804 336.482 602.864 336.847C602.933 337.313 602.872 337.748 602.679 338.152C602.488 338.553 602.188 338.891 601.78 339.167C601.374 339.44 600.883 339.622 600.308 339.711ZM600.164 338.785C600.554 338.724 600.881 338.609 601.145 338.438C601.409 338.268 601.6 338.055 601.718 337.801C601.837 337.547 601.874 337.265 601.828 336.956C601.775 336.631 601.646 336.356 601.441 336.132C601.237 335.908 600.98 335.747 600.672 335.648C600.366 335.549 600.031 335.528 599.666 335.585C599.298 335.642 598.981 335.765 598.714 335.953C598.45 336.14 598.254 336.372 598.128 336.648C598.004 336.923 597.968 337.223 598.022 337.548C598.067 337.857 598.183 338.115 598.371 338.322C598.561 338.528 598.809 338.672 599.115 338.754C599.421 338.836 599.771 338.846 600.164 338.785ZM599.527 334.692C599.836 334.644 600.1 334.54 600.319 334.379C600.541 334.218 600.704 334.016 600.807 333.773C600.91 333.529 600.94 333.259 600.896 332.961C600.848 332.669 600.74 332.426 600.572 332.231C600.403 332.033 600.19 331.893 599.933 331.813C599.676 331.729 599.388 331.712 599.071 331.761C598.748 331.812 598.475 331.916 598.253 332.074C598.03 332.229 597.869 332.427 597.771 332.666C597.673 332.903 597.648 333.167 597.696 333.459C597.74 333.757 597.846 334.006 598.015 334.207C598.187 334.407 598.404 334.55 598.664 334.636C598.925 334.722 599.212 334.741 599.527 334.692Z" fill="#615E83"/>
<path d="M594.927 371.222L594.793 370.363L597.65 363.777L598.274 363.68L598.481 365.011L598.06 365.076L595.901 370.053L595.911 370.12L601.015 369.326L601.159 370.252L594.927 371.222ZM599.261 372.359L598.946 370.329L598.883 369.929L597.92 363.735L598.914 363.581L600.255 372.204L599.261 372.359ZM603.282 371.734L605.952 363.504L605.941 363.436L601.495 364.128L601.351 363.202L606.875 362.342L607.027 363.319L604.376 371.563L603.282 371.734Z" fill="#615E83"/>
<path d="M584.397 307.648L584.264 306.789L587.121 300.203L587.744 300.106L587.951 301.437L587.53 301.502L585.371 306.478L585.382 306.546L590.485 305.752L590.629 306.678L584.397 307.648ZM588.732 308.785L588.416 306.755L588.354 306.355L587.39 300.161L588.384 300.007L589.725 308.63L588.732 308.785ZM593.868 299.033C594.222 298.981 594.586 298.993 594.96 299.07C595.335 299.147 595.692 299.316 596.031 299.576C596.37 299.834 596.669 300.212 596.928 300.709C597.186 301.206 597.377 301.851 597.5 302.643C597.619 303.409 597.652 304.101 597.599 304.719C597.548 305.333 597.418 305.865 597.209 306.315C597.003 306.764 596.722 307.124 596.367 307.394C596.016 307.665 595.597 307.838 595.111 307.913C594.628 307.988 594.183 307.96 593.774 307.828C593.368 307.693 593.017 307.473 592.723 307.168C592.43 306.86 592.215 306.483 592.077 306.039L593.104 305.879C593.259 306.261 593.493 306.559 593.809 306.775C594.126 306.987 594.512 307.058 594.967 306.987C595.632 306.883 596.112 306.511 596.406 305.87C596.703 305.229 596.769 304.378 596.604 303.317L596.537 303.327C596.416 303.587 596.261 303.82 596.072 304.025C595.882 304.23 595.663 304.399 595.413 304.533C595.164 304.666 594.89 304.756 594.593 304.803C594.099 304.879 593.626 304.828 593.176 304.648C592.728 304.464 592.347 304.177 592.033 303.786C591.721 303.392 591.522 302.917 591.436 302.361C591.354 301.833 591.396 301.332 591.564 300.858C591.734 300.38 592.014 299.977 592.403 299.649C592.794 299.321 593.283 299.115 593.868 299.033ZM594.012 299.959C593.658 300.014 593.353 300.152 593.097 300.373C592.844 300.591 592.657 300.861 592.538 301.185C592.421 301.505 592.39 301.845 592.446 302.204C592.502 302.563 592.632 302.878 592.835 303.148C593.04 303.415 593.294 303.614 593.596 303.746C593.901 303.874 594.23 303.91 594.584 303.855C594.85 303.814 595.091 303.723 595.305 303.583C595.518 303.441 595.696 303.265 595.839 303.056C595.985 302.844 596.088 302.613 596.15 302.365C596.212 302.114 596.223 301.861 596.183 301.605C596.13 301.268 596 300.965 595.791 300.696C595.585 300.426 595.327 300.222 595.015 300.084C594.706 299.945 594.371 299.903 594.012 299.959Z" fill="#615E83"/>
<path d="M583.202 278.372C582.707 278.449 582.247 278.42 581.821 278.285C581.394 278.15 581.035 277.93 580.743 277.625C580.452 277.319 580.26 276.949 580.17 276.515L581.18 276.358C581.28 276.742 581.507 277.037 581.862 277.244C582.218 277.447 582.617 277.514 583.057 277.446C583.411 277.391 583.713 277.259 583.962 277.051C584.214 276.842 584.396 276.581 584.509 276.267C584.623 275.95 584.652 275.608 584.595 275.24C584.536 274.864 584.401 274.541 584.19 274.272C583.981 274 583.719 273.801 583.407 273.674C583.094 273.547 582.753 273.511 582.385 273.566C582.121 273.604 581.856 273.687 581.591 273.814C581.326 273.939 581.113 274.08 580.954 274.237L579.959 274.271L579.821 269.945L584.301 269.248L584.445 270.175L580.841 270.735L580.933 273.326L580.983 273.318C581.139 273.15 581.342 272.999 581.594 272.865C581.847 272.731 582.117 272.641 582.407 272.596C582.934 272.514 583.424 272.567 583.876 272.756C584.33 272.941 584.709 273.233 585.013 273.631C585.319 274.029 585.516 274.507 585.603 275.066C585.688 275.616 585.641 276.127 585.461 276.597C585.284 277.065 585 277.457 584.609 277.774C584.218 278.087 583.749 278.287 583.202 278.372ZM590.533 277.232C589.899 277.33 589.332 277.242 588.832 276.966C588.331 276.687 587.912 276.236 587.573 275.613C587.235 274.988 586.992 274.206 586.846 273.268C586.701 272.336 586.695 271.522 586.829 270.826C586.964 270.126 587.228 269.568 587.62 269.15C588.015 268.729 588.527 268.47 589.155 268.372C589.784 268.274 590.349 268.366 590.85 268.648C591.353 268.926 591.774 269.378 592.113 270.004C592.454 270.626 592.697 271.404 592.842 272.336C592.988 273.273 592.995 274.092 592.862 274.791C592.729 275.487 592.466 276.044 592.074 276.462C591.681 276.876 591.168 277.133 590.533 277.232ZM590.389 276.305C591.018 276.207 591.459 275.828 591.713 275.168C591.967 274.507 592.007 273.616 591.832 272.493C591.716 271.746 591.537 271.123 591.295 270.623C591.056 270.122 590.767 269.758 590.426 269.529C590.089 269.299 589.712 269.217 589.297 269.282C588.674 269.379 588.234 269.762 587.979 270.431C587.723 271.098 587.683 271.991 587.857 273.111C587.973 273.858 588.15 274.48 588.389 274.978C588.627 275.475 588.915 275.837 589.252 276.064C589.592 276.29 589.971 276.37 590.389 276.305Z" fill="#615E83"/>
<line x1="624.794" y1="396.641" x2="859.971" y2="360.058" stroke="#F2F1FF" stroke-width="1.5" stroke-linecap="round"/>
<line x1="619.772" y1="364.361" x2="854.95" y2="327.778" stroke="#F2F1FF" stroke-width="1.5" stroke-linecap="round"/>
<line x1="614.889" y1="332.966" x2="850.066" y2="296.383" stroke="#E5E5EF" stroke-width="1.5" stroke-linecap="round" stroke-dasharray="4 7"/>
<line x1="610.005" y1="301.57" x2="845.182" y2="264.987" stroke="#F2F1FF" stroke-width="1.5" stroke-linecap="round"/>
<line x1="605.187" y1="270.6" x2="840.365" y2="234.017" stroke="#F2F1FF" stroke-width="1.5" stroke-linecap="round"/>
<rect x="606.106" y="269.468" width="2.34676" height="77.1377" rx="1.17338" transform="rotate(-8.84181 606.106 269.468)" fill="#C893FD"/>
<rect x="606.45" y="283.599" width="6.01898" height="48.5314" rx="3.00949" transform="rotate(-8.84181 606.45 283.599)" fill="#962DFF"/>
<rect x="811.561" y="238.562" width="2.34676" height="100.388" rx="1.17338" transform="rotate(-8.84181 811.561 238.562)" fill="#37B7C3"/>
<rect x="812.552" y="256.867" width="6.01898" height="63.1592" rx="3.00949" transform="rotate(-8.84181 812.552 256.867)" fill="#37B7C3"/>
<rect x="836.766" y="233.24" width="2.34676" height="85.4553" rx="1.17338" transform="rotate(-8.84181 836.766 233.24)" fill="#37B7C3"/>
<rect x="838.087" y="253.653" width="6.01898" height="53.3792" rx="3.00949" transform="rotate(-8.84181 838.087 253.653)" fill="#97FEED"/>
<rect x="714.201" y="289.056" width="2.34676" height="72.5033" rx="1.17338" transform="rotate(-8.84181 714.201 289.056)" fill="#C893FD"/>
<rect x="715.299" y="308.031" width="6.01898" height="44.4969" rx="3.00949" transform="rotate(-8.84181 715.299 308.031)" fill="#962DFF"/>
<rect x="737.173" y="268.432" width="2.34676" height="66.966" rx="1.17338" transform="rotate(-8.84181 737.173 268.432)" fill="#C893FD"/>
<rect x="737.951" y="285.362" width="6.01898" height="43.3419" rx="3.00949" transform="rotate(-8.84181 737.951 285.362)" fill="#962DFF"/>
<rect x="634.071" y="280.947" width="2.34676" height="58.842" rx="1.17338" transform="rotate(-8.84181 634.071 280.947)" fill="#93AAFD"/>
<rect x="634.971" y="298.656" width="6.01898" height="35.9148" rx="3.00949" transform="rotate(-8.84181 634.971 298.656)" fill="#4A3AFF"/>
<rect x="661.701" y="290.278" width="2.34676" height="79.3647" rx="1.17338" transform="rotate(-8.84181 661.701 290.278)" fill="#93AAFD"/>
<rect x="662.651" y="308.304" width="6.01898" height="46.4965" rx="3.00949" transform="rotate(-8.84181 662.651 308.304)" fill="#4A3AFF"/>
<rect x="790.646" y="272.006" width="2.34676" height="98.4113" rx="1.17338" transform="rotate(-8.84181 790.646 272.006)" fill="#37B7C3"/>
<rect x="791.613" y="290.156" width="6.01898" height="59.5164" rx="3.00949" transform="rotate(-8.84181 791.613 290.156)" fill="#35A29F"/>
<rect x="689.933" y="302.404" width="2.34676" height="79.3647" rx="1.17338" transform="rotate(-8.84181 689.933 302.404)" fill="#93AAFD"/>
<rect x="690.686" y="319.162" width="6.01898" height="41.2056" rx="3.00949" transform="rotate(-8.84181 690.686 319.162)" fill="#4A3AFF"/>
<rect x="762.292" y="261.62" width="2.34676" height="78.2383" rx="1.17338" transform="rotate(-8.84181 762.292 261.62)" fill="#93AAFD"/>
<rect x="761.812" y="270.453" width="6.01898" height="41.5264" rx="3.00949" transform="rotate(-8.84181 761.812 270.453)" fill="#4A3AFF"/>
<path d="M574.268 244.346L572.703 234.286L573.922 234.096L575.318 243.076L579.995 242.349L580.163 243.429L574.268 244.346ZM584.982 242.841C584.301 242.947 583.678 242.878 583.114 242.633C582.552 242.389 582.082 241.997 581.703 241.459C581.328 240.92 581.079 240.261 580.958 239.482C580.836 238.696 580.871 237.988 581.065 237.357C581.262 236.726 581.591 236.209 582.051 235.805C582.515 235.401 583.088 235.146 583.769 235.04C584.45 234.934 585.071 235.003 585.633 235.248C586.197 235.492 586.668 235.885 587.044 236.427C587.423 236.969 587.674 237.632 587.796 238.418C587.917 239.198 587.879 239.901 587.682 240.529C587.488 241.156 587.159 241.672 586.695 242.076C586.234 242.48 585.664 242.735 584.982 242.841ZM584.82 241.799C585.338 241.719 585.743 241.52 586.036 241.203C586.328 240.886 586.521 240.498 586.615 240.041C586.708 239.584 586.715 239.103 586.637 238.599C586.558 238.094 586.405 237.637 586.177 237.226C585.949 236.816 585.647 236.502 585.271 236.285C584.895 236.069 584.448 236.001 583.931 236.081C583.413 236.162 583.009 236.362 582.716 236.683C582.424 237.003 582.231 237.394 582.139 237.854C582.046 238.315 582.039 238.797 582.117 239.302C582.196 239.806 582.349 240.262 582.577 240.669C582.804 241.076 583.106 241.387 583.481 241.6C583.856 241.813 584.303 241.88 584.82 241.799ZM590.147 241.876L588.973 234.331L590.093 234.157L590.27 235.296L590.349 235.284C590.428 234.889 590.63 234.548 590.954 234.259C591.278 233.971 591.666 233.791 592.118 233.721C592.203 233.708 592.31 233.693 592.438 233.676C592.567 233.659 592.664 233.649 592.73 233.646L592.914 234.825C592.873 234.821 592.781 234.82 592.637 234.823C592.496 234.821 592.348 234.832 592.194 234.856C591.827 234.913 591.512 235.041 591.248 235.24C590.986 235.435 590.793 235.68 590.668 235.974C590.545 236.265 590.51 236.581 590.563 236.921L591.306 241.696L590.147 241.876ZM598.252 240.777C597.525 240.89 596.873 240.827 596.296 240.588C595.721 240.345 595.247 239.956 594.872 239.421C594.499 238.882 594.253 238.226 594.133 237.453C594.012 236.68 594.047 235.977 594.237 235.343C594.43 234.706 594.754 234.183 595.211 233.773C595.67 233.36 596.24 233.1 596.921 232.994C597.314 232.933 597.712 232.938 598.116 233.009C598.519 233.081 598.901 233.239 599.261 233.485C599.621 233.728 599.932 234.075 600.193 234.528C600.455 234.98 600.64 235.558 600.75 236.262L600.826 236.754L595.01 237.658L594.854 236.656L599.492 235.935C599.425 235.509 599.281 235.142 599.059 234.835C598.84 234.527 598.56 234.3 598.219 234.156C597.881 234.01 597.502 233.97 597.083 234.035C596.621 234.107 596.239 234.284 595.938 234.566C595.639 234.844 595.428 235.178 595.304 235.57C595.18 235.961 595.151 236.365 595.216 236.781L595.32 237.449C595.408 238.019 595.582 238.487 595.84 238.853C596.101 239.214 596.424 239.471 596.81 239.622C597.195 239.77 597.622 239.808 598.09 239.735C598.395 239.688 598.663 239.602 598.896 239.479C599.131 239.352 599.325 239.188 599.478 238.986C599.631 238.781 599.736 238.54 599.793 238.263L600.962 238.403C600.903 238.801 600.757 239.166 600.524 239.497C600.29 239.826 599.98 240.102 599.596 240.326C599.211 240.547 598.763 240.697 598.252 240.777ZM603.116 239.859L601.942 232.313L603.062 232.139L603.245 233.318L603.344 233.303C603.438 232.876 603.643 232.523 603.959 232.246C604.274 231.966 604.678 231.787 605.169 231.711C605.667 231.633 606.099 231.682 606.465 231.856C606.833 232.027 607.142 232.299 607.392 232.673L607.47 232.661C607.603 232.241 607.844 231.887 608.195 231.597C608.546 231.305 608.991 231.116 609.531 231.032C610.206 230.927 610.791 231.053 611.285 231.408C611.78 231.761 612.096 232.381 612.234 233.268L613.019 238.318L611.86 238.499L611.074 233.449C610.988 232.892 610.774 232.518 610.432 232.326C610.09 232.134 609.713 232.071 609.3 232.135C608.77 232.217 608.384 232.442 608.142 232.808C607.9 233.171 607.817 233.597 607.893 234.085L608.657 238.997L607.478 239.18L606.674 234.012C606.607 233.583 606.414 233.26 606.095 233.041C605.776 232.819 605.396 232.742 604.958 232.81C604.656 232.857 604.387 232.981 604.15 233.183C603.916 233.383 603.741 233.639 603.625 233.948C603.512 234.255 603.484 234.593 603.541 234.963L604.275 239.679L603.116 239.859ZM619.03 237.384L617.856 229.838L619.015 229.658L620.189 237.203L619.03 237.384ZM618.25 228.489C618.024 228.524 617.817 228.477 617.629 228.349C617.445 228.22 617.336 228.047 617.302 227.831C617.269 227.615 617.32 227.417 617.457 227.238C617.597 227.059 617.779 226.952 618.005 226.917C618.231 226.881 618.437 226.928 618.621 227.057C618.809 227.186 618.919 227.358 618.953 227.574C618.987 227.79 618.934 227.988 618.794 228.168C618.657 228.346 618.476 228.453 618.25 228.489ZM622.753 239.702L621.139 229.327L622.259 229.153L622.445 230.352L622.583 230.33C622.648 230.186 622.74 230.001 622.859 229.774C622.98 229.544 623.171 229.326 623.431 229.122C623.694 228.913 624.071 228.77 624.562 228.694C625.198 228.595 625.782 228.667 626.317 228.909C626.851 229.152 627.299 229.543 627.661 230.084C628.024 230.624 628.267 231.291 628.39 232.083C628.514 232.883 628.486 233.596 628.306 234.225C628.125 234.85 627.818 235.361 627.387 235.757C626.955 236.149 626.424 236.394 625.795 236.492C625.311 236.567 624.91 236.548 624.594 236.432C624.277 236.314 624.024 236.164 623.834 235.982C623.645 235.797 623.496 235.642 623.39 235.518L623.292 235.533L623.912 239.522L622.753 239.702ZM622.865 232.923C622.954 233.493 623.116 233.982 623.351 234.392C623.585 234.798 623.882 235.099 624.241 235.295C624.599 235.487 625.011 235.547 625.476 235.475C625.961 235.4 626.346 235.209 626.63 234.903C626.917 234.593 627.109 234.208 627.205 233.747C627.304 233.282 627.311 232.781 627.228 232.244C627.145 231.714 626.989 231.248 626.759 230.848C626.532 230.444 626.235 230.143 625.869 229.945C625.505 229.743 625.078 229.681 624.587 229.757C624.115 229.83 623.737 230.011 623.454 230.3C623.169 230.586 622.979 230.955 622.881 231.406C622.783 231.854 622.778 232.359 622.865 232.923ZM635.176 228.874L634.181 229.331C634.088 229.168 633.965 229.014 633.812 228.87C633.662 228.723 633.47 228.612 633.237 228.537C633.004 228.463 632.719 228.452 632.382 228.504C631.92 228.576 631.552 228.742 631.277 229.003C631.005 229.26 630.894 229.551 630.945 229.875C630.989 230.163 631.13 230.374 631.365 230.509C631.601 230.643 631.95 230.731 632.413 230.773L633.576 230.874C634.276 230.933 634.817 231.106 635.201 231.391C635.583 231.674 635.816 232.079 635.898 232.606C635.965 233.038 635.901 233.444 635.705 233.824C635.512 234.202 635.21 234.524 634.798 234.79C634.387 235.055 633.888 235.233 633.302 235.324C632.532 235.444 631.869 235.376 631.313 235.121C630.757 234.865 630.361 234.427 630.127 233.806L631.185 233.359C631.353 233.749 631.598 234.023 631.921 234.181C632.248 234.338 632.648 234.38 633.123 234.306C633.664 234.222 634.075 234.04 634.357 233.762C634.642 233.479 634.759 233.176 634.708 232.852C634.668 232.59 634.542 232.384 634.331 232.236C634.119 232.085 633.817 231.994 633.423 231.965L632.12 231.866C631.403 231.809 630.856 231.634 630.478 231.341C630.103 231.044 629.875 230.635 629.794 230.114C629.728 229.688 629.789 229.293 629.977 228.928C630.169 228.563 630.458 228.255 630.845 228.004C631.235 227.752 631.695 227.585 632.226 227.502C632.973 227.386 633.584 227.458 634.061 227.72C634.541 227.98 634.913 228.365 635.176 228.874ZM642.245 230.612L641.552 226.152L642.711 225.972L643.885 233.517L642.725 233.698L642.527 232.42L642.448 232.433C642.331 232.843 642.106 233.212 641.775 233.538C641.443 233.862 640.992 234.068 640.422 234.156C639.95 234.23 639.515 234.192 639.116 234.043C638.717 233.89 638.38 233.621 638.105 233.234C637.83 232.844 637.642 232.328 637.542 231.686L636.796 226.892L637.956 226.711L638.689 231.427C638.775 231.978 638.997 232.392 639.356 232.672C639.718 232.951 640.14 233.053 640.621 232.978C640.909 232.934 641.191 232.814 641.466 232.621C641.744 232.426 641.961 232.161 642.117 231.825C642.276 231.488 642.319 231.084 642.245 230.612ZM646.008 233.187L644.834 225.641L645.954 225.467L646.138 226.646L646.236 226.631C646.331 226.203 646.536 225.851 646.852 225.574C647.167 225.294 647.57 225.115 648.061 225.039C648.559 224.961 648.991 225.01 649.357 225.184C649.726 225.355 650.035 225.627 650.284 226.001L650.363 225.989C650.495 225.569 650.737 225.215 651.088 224.925C651.438 224.633 651.883 224.444 652.424 224.36C653.098 224.255 653.683 224.381 654.178 224.736C654.672 225.089 654.988 225.709 655.126 226.596L655.912 231.646L654.752 231.827L653.967 226.777C653.88 226.22 653.666 225.846 653.324 225.654C652.982 225.462 652.605 225.398 652.193 225.463C651.662 225.545 651.276 225.77 651.034 226.136C650.792 226.499 650.709 226.924 650.785 227.412L651.549 232.325L650.37 232.508L649.567 227.34C649.5 226.911 649.307 226.587 648.988 226.369C648.668 226.147 648.289 226.07 647.85 226.138C647.549 226.185 647.28 226.309 647.042 226.51C646.809 226.711 646.634 226.966 646.518 227.276C646.404 227.582 646.376 227.92 646.434 228.291L647.167 233.007L646.008 233.187ZM664.796 230.425C664.167 230.523 663.587 230.451 663.056 230.208C662.525 229.962 662.078 229.568 661.716 229.028C661.353 228.484 661.109 227.812 660.985 227.013C660.861 226.221 660.89 225.512 661.071 224.887C661.253 224.261 661.561 223.752 661.996 223.359C662.431 222.966 662.967 222.72 663.602 222.621C664.093 222.545 664.494 222.566 664.805 222.686C665.118 222.801 665.366 222.951 665.548 223.134C665.734 223.313 665.879 223.461 665.985 223.579L666.083 223.564L665.505 219.85L666.665 219.669L668.23 229.73L667.11 229.904L666.929 228.745L666.792 228.766C666.728 228.917 666.634 229.11 666.509 229.344C666.384 229.575 666.189 229.794 665.923 230.004C665.656 230.209 665.281 230.35 664.796 230.425ZM664.791 229.359C665.256 229.287 665.63 229.105 665.914 228.813C666.196 228.517 666.388 228.14 666.487 227.682C666.587 227.22 666.592 226.705 666.503 226.135C666.416 225.571 666.257 225.091 666.028 224.694C665.798 224.294 665.504 224.001 665.146 223.815C664.788 223.626 664.373 223.568 663.902 223.641C663.41 223.718 663.021 223.907 662.732 224.211C662.447 224.51 662.256 224.887 662.159 225.341C662.064 225.792 662.058 226.283 662.141 226.813C662.225 227.35 662.382 227.826 662.614 228.239C662.849 228.649 663.149 228.957 663.513 229.166C663.88 229.37 664.306 229.435 664.791 229.359ZM673.604 229.055C672.923 229.161 672.3 229.092 671.735 228.848C671.174 228.603 670.704 228.212 670.325 227.673C669.949 227.135 669.701 226.476 669.58 225.696C669.457 224.91 669.493 224.202 669.687 223.572C669.884 222.94 670.213 222.423 670.673 222.019C671.137 221.615 671.709 221.36 672.391 221.254C673.072 221.148 673.693 221.218 674.254 221.462C674.819 221.707 675.289 222.1 675.665 222.642C676.045 223.183 676.296 223.847 676.418 224.633C676.539 225.412 676.501 226.116 676.304 226.743C676.109 227.371 675.78 227.886 675.317 228.291C674.856 228.694 674.285 228.949 673.604 229.055ZM673.442 228.014C673.959 227.933 674.365 227.734 674.657 227.417C674.95 227.1 675.143 226.713 675.236 226.255C675.33 225.798 675.337 225.317 675.259 224.813C675.18 224.309 675.027 223.851 674.799 223.441C674.57 223.03 674.268 222.716 673.892 222.5C673.517 222.283 673.07 222.215 672.553 222.296C672.035 222.376 671.63 222.577 671.338 222.897C671.046 223.218 670.853 223.608 670.76 224.069C670.668 224.529 670.661 225.012 670.739 225.516C670.818 226.02 670.971 226.476 671.198 226.884C671.426 227.291 671.728 227.601 672.103 227.815C672.478 228.028 672.925 228.094 673.442 228.014ZM678.363 217.85L679.928 227.911L678.768 228.091L677.203 218.03L678.363 217.85ZM685.141 227.261C684.46 227.367 683.837 227.297 683.272 227.053C682.711 226.808 682.241 226.417 681.862 225.879C681.486 225.34 681.238 224.681 681.117 223.902C680.994 223.116 681.03 222.407 681.224 221.777C681.421 221.146 681.75 220.628 682.21 220.225C682.674 219.821 683.246 219.565 683.928 219.459C684.609 219.354 685.23 219.423 685.791 219.668C686.356 219.912 686.826 220.305 687.202 220.847C687.582 221.388 687.833 222.052 687.955 222.838C688.076 223.617 688.038 224.321 687.841 224.949C687.646 225.576 687.317 226.092 686.854 226.496C686.393 226.9 685.822 227.155 685.141 227.261ZM684.979 226.219C685.497 226.139 685.902 225.94 686.194 225.623C686.487 225.305 686.68 224.918 686.773 224.461C686.867 224.003 686.874 223.523 686.796 223.018C686.717 222.514 686.564 222.056 686.336 221.646C686.107 221.235 685.805 220.922 685.429 220.705C685.054 220.488 684.607 220.42 684.09 220.501C683.572 220.581 683.167 220.782 682.875 221.102C682.583 221.423 682.39 221.813 682.297 222.274C682.205 222.735 682.198 223.217 682.276 223.721C682.355 224.226 682.508 224.682 682.735 225.089C682.963 225.496 683.265 225.807 683.64 226.02C684.015 226.233 684.462 226.3 684.979 226.219ZM690.305 226.296L689.132 218.751L690.252 218.576L690.429 219.716L690.508 219.704C690.587 219.309 690.789 218.967 691.113 218.679C691.437 218.39 691.825 218.211 692.277 218.141C692.362 218.127 692.469 218.112 692.597 218.096C692.725 218.079 692.823 218.069 692.889 218.065L693.073 219.244C693.032 219.241 692.939 219.24 692.796 219.242C692.654 219.241 692.507 219.252 692.353 219.276C691.986 219.333 691.671 219.461 691.406 219.66C691.145 219.855 690.952 220.099 690.826 220.394C690.704 220.685 690.669 221 690.722 221.341L691.465 226.116L690.305 226.296ZM703.777 218.203L702.782 218.66C702.689 218.497 702.566 218.343 702.413 218.199C702.263 218.051 702.071 217.94 701.838 217.866C701.605 217.791 701.32 217.78 700.982 217.833C700.521 217.905 700.152 218.071 699.878 218.332C699.606 218.589 699.495 218.879 699.545 219.204C699.59 219.492 699.73 219.703 699.966 219.838C700.202 219.972 700.551 220.06 701.013 220.102L702.176 220.203C702.876 220.262 703.418 220.434 703.801 220.72C704.184 221.003 704.417 221.408 704.499 221.935C704.566 222.367 704.501 222.773 704.306 223.152C704.113 223.531 703.811 223.853 703.399 224.119C702.988 224.384 702.489 224.562 701.903 224.653C701.133 224.773 700.47 224.705 699.914 224.449C699.357 224.194 698.962 223.755 698.728 223.134L699.786 222.688C699.954 223.078 700.199 223.352 700.522 223.509C700.848 223.667 701.249 223.708 701.724 223.634C702.264 223.55 702.676 223.369 702.958 223.09C703.242 222.808 703.359 222.505 703.309 222.18C703.268 221.918 703.142 221.713 702.932 221.565C702.72 221.413 702.418 221.323 702.024 221.293L700.72 221.194C700.004 221.138 699.457 220.963 699.079 220.67C698.704 220.373 698.476 219.964 698.395 219.443C698.329 219.017 698.39 218.622 698.578 218.257C698.769 217.892 699.059 217.584 699.446 217.332C699.836 217.08 700.296 216.913 700.827 216.831C701.573 216.715 702.185 216.787 702.662 217.048C703.142 217.309 703.513 217.694 703.777 218.203ZM706.571 223.766L705.397 216.22L706.556 216.04L707.73 223.586L706.571 223.766ZM705.791 214.871C705.565 214.906 705.358 214.86 705.17 214.731C704.986 214.602 704.877 214.43 704.843 214.213C704.81 213.997 704.861 213.8 704.998 213.621C705.137 213.442 705.32 213.334 705.546 213.299C705.772 213.264 705.978 213.311 706.162 213.44C706.35 213.568 706.46 213.741 706.494 213.957C706.528 214.173 706.474 214.371 706.335 214.55C706.198 214.729 706.017 214.836 705.791 214.871ZM711.961 215.199L712.114 216.182L708.204 216.79L708.051 215.808L711.961 215.199ZM708.909 213.822L710.069 213.642L711.188 220.834C711.239 221.162 711.324 221.4 711.445 221.549C711.568 221.694 711.709 221.783 711.868 221.815C712.031 221.843 712.197 221.844 712.367 221.818C712.495 221.798 712.599 221.775 712.678 221.749C712.758 221.72 712.821 221.697 712.869 221.679L713.267 222.684C713.193 222.726 713.087 222.772 712.951 222.824C712.815 222.879 712.639 222.923 712.423 222.956C712.096 223.007 711.764 222.987 711.428 222.895C711.095 222.802 710.803 222.628 710.551 222.372C710.303 222.115 710.145 221.768 710.077 221.329L708.909 213.822ZM721.018 221.7C720.54 221.774 720.092 221.752 719.674 221.632C719.256 221.509 718.905 221.294 718.622 220.986C718.339 220.674 718.159 220.273 718.083 219.782C718.016 219.349 718.046 218.986 718.175 218.691C718.303 218.392 718.497 218.144 718.758 217.946C719.019 217.747 719.316 217.584 719.648 217.455C719.983 217.323 720.322 217.206 720.665 217.106C721.115 216.975 721.48 216.873 721.76 216.8C722.043 216.722 722.244 216.635 722.363 216.54C722.486 216.443 722.533 216.302 722.504 216.115L722.498 216.076C722.422 215.591 722.231 215.235 721.924 215.008C721.62 214.78 721.201 214.708 720.668 214.791C720.114 214.877 719.699 215.066 719.422 215.357C719.146 215.648 718.965 215.941 718.88 216.236L717.718 216.014C717.843 215.525 718.05 215.128 718.338 214.821C718.628 214.511 718.96 214.275 719.334 214.113C719.711 213.947 720.089 213.834 720.469 213.775C720.712 213.738 720.995 213.724 721.318 213.734C721.644 213.74 721.969 213.809 722.291 213.94C722.617 214.07 722.905 214.299 723.157 214.625C723.409 214.951 723.582 215.414 723.675 216.014L724.449 220.985L723.289 221.165L723.13 220.144L723.071 220.153C723.018 220.329 722.915 220.524 722.76 220.74C722.606 220.955 722.386 221.152 722.102 221.33C721.818 221.508 721.457 221.632 721.018 221.7ZM721.033 220.631C721.491 220.56 721.864 220.409 722.15 220.18C722.44 219.951 722.642 219.681 722.759 219.371C722.878 219.061 722.913 218.748 722.864 218.434L722.699 217.373C722.659 217.44 722.56 217.51 722.4 217.585C722.244 217.657 722.06 217.727 721.85 217.797C721.642 217.863 721.438 217.925 721.239 217.982C721.043 218.036 720.884 218.081 720.762 218.117C720.467 218.203 720.195 218.311 719.947 218.44C719.702 218.565 719.512 218.727 719.379 218.926C719.248 219.121 719.206 219.365 719.251 219.66C719.314 220.063 719.51 220.344 719.841 220.504C720.173 220.661 720.571 220.703 721.033 220.631ZM726.565 220.656L725.391 213.11L726.511 212.936L726.694 214.115L726.793 214.1C726.887 213.672 727.092 213.32 727.408 213.043C727.723 212.763 728.127 212.584 728.618 212.508C729.116 212.43 729.548 212.479 729.913 212.653C730.282 212.824 730.591 213.096 730.841 213.47L730.919 213.458C731.052 213.038 731.293 212.683 731.644 212.394C731.995 212.101 732.44 211.913 732.98 211.829C733.655 211.724 734.24 211.85 734.734 212.205C735.229 212.558 735.545 213.178 735.683 214.065L736.468 219.115L735.309 219.296L734.523 214.246C734.437 213.689 734.223 213.315 733.881 213.123C733.539 212.931 733.162 212.867 732.749 212.932C732.219 213.014 731.833 213.239 731.591 213.605C731.349 213.968 731.266 214.393 731.342 214.881L732.106 219.794L730.927 219.977L730.123 214.809C730.056 214.38 729.863 214.056 729.544 213.838C729.225 213.616 728.845 213.539 728.407 213.607C728.105 213.654 727.836 213.778 727.599 213.979C727.365 214.18 727.19 214.435 727.074 214.745C726.961 215.051 726.933 215.389 726.99 215.76L727.724 220.476L726.565 220.656ZM741.776 218.451C741.049 218.564 740.397 218.501 739.82 218.262C739.245 218.019 738.771 217.63 738.395 217.095C738.023 216.556 737.777 215.9 737.657 215.127C737.536 214.354 737.571 213.651 737.761 213.017C737.954 212.38 738.278 211.857 738.735 211.447C739.194 211.034 739.764 210.774 740.445 210.668C740.838 210.607 741.236 210.612 741.64 210.683C742.043 210.755 742.425 210.913 742.785 211.159C743.145 211.402 743.456 211.749 743.717 212.202C743.979 212.654 744.164 213.232 744.274 213.936L744.35 214.428L738.534 215.332L738.378 214.33L743.015 213.609C742.949 213.183 742.805 212.816 742.583 212.509C742.364 212.201 742.084 211.974 741.742 211.83C741.405 211.684 741.026 211.644 740.607 211.709C740.145 211.781 739.763 211.958 739.462 212.24C739.163 212.518 738.951 212.852 738.828 213.244C738.704 213.635 738.675 214.039 738.74 214.455L738.844 215.123C738.932 215.693 739.106 216.161 739.364 216.527C739.625 216.889 739.948 217.145 740.334 217.296C740.719 217.444 741.146 217.482 741.614 217.409C741.919 217.362 742.187 217.276 742.42 217.153C742.655 217.026 742.849 216.862 743.002 216.66C743.155 216.455 743.26 216.214 743.317 215.937L744.486 216.077C744.427 216.475 744.281 216.84 744.048 217.172C743.814 217.5 743.504 217.776 743.12 218C742.735 218.221 742.287 218.371 741.776 218.451ZM748.747 209.477L748.9 210.46L744.99 211.068L744.837 210.085L748.747 209.477ZM745.696 208.1L746.855 207.92L747.974 215.112C748.025 215.439 748.11 215.678 748.231 215.826C748.354 215.972 748.495 216.06 748.655 216.093C748.817 216.121 748.983 216.122 749.153 216.096C749.281 216.076 749.385 216.053 749.464 216.027C749.544 215.998 749.607 215.975 749.655 215.957L750.053 216.962C749.979 217.004 749.874 217.05 749.737 217.102C749.602 217.156 749.426 217.2 749.209 217.234C748.882 217.285 748.55 217.264 748.214 217.173C747.881 217.08 747.589 216.906 747.337 216.65C747.09 216.393 746.932 216.045 746.863 215.607L745.696 208.1Z" fill="url(#paint3_linear_202_1713)"/>
<path d="M654.847 145.41L658.498 144.842C659.275 144.721 659.969 144.743 660.58 144.906C661.19 145.069 661.688 145.374 662.074 145.82C662.464 146.26 662.715 146.838 662.826 147.553C662.908 148.083 662.87 148.582 662.711 149.049C662.557 149.516 662.307 149.927 661.961 150.281C661.615 150.63 661.193 150.898 660.695 151.087L660.382 151.262L656.484 151.868L656.342 151.06L659.608 150.552C660.195 150.461 660.666 150.272 661.022 149.984C661.378 149.697 661.625 149.353 661.763 148.952C661.905 148.545 661.943 148.128 661.876 147.701C661.797 147.191 661.618 146.768 661.339 146.432C661.064 146.09 660.698 145.852 660.24 145.718C659.781 145.584 659.243 145.564 658.626 145.661L655.924 146.081L657.545 156.502L656.595 156.65L654.847 145.41ZM663.535 155.571L659.843 150.998L660.861 150.832L664.531 155.313L664.547 155.413L663.535 155.571ZM673.53 153.186L673.656 153.996L667.333 154.98L667.207 154.169L673.53 153.186ZM665.871 143.695L667.619 154.935L666.67 155.083L664.921 143.843L665.871 143.695ZM671.904 147.92L672.03 148.73L666.495 149.591L666.369 148.781L671.904 147.92ZM671.869 142.762L671.996 143.581L665.712 144.558L665.585 143.74L671.869 142.762ZM678.78 148.511L675.576 149.009L675.45 148.198L678.654 147.7C679.323 147.596 679.849 147.403 680.232 147.122C680.62 146.836 680.879 146.489 681.011 146.084C681.149 145.678 681.181 145.241 681.108 144.772C681.037 144.314 680.873 143.908 680.618 143.552C680.367 143.196 680.013 142.935 679.555 142.769C679.101 142.597 678.54 142.563 677.871 142.667L674.999 143.114L676.62 153.535L675.671 153.683L673.922 142.443L677.743 141.849C678.567 141.72 679.281 141.754 679.886 141.95C680.496 142.145 680.985 142.472 681.351 142.932C681.718 143.391 681.952 143.951 682.055 144.609C682.162 145.299 682.111 145.916 681.9 146.46C681.689 146.999 681.323 147.443 680.803 147.793C680.283 148.142 679.608 148.382 678.78 148.511ZM692.744 144.654L692.931 145.859C693.053 146.646 693.061 147.375 692.955 148.045C692.853 148.709 692.644 149.298 692.328 149.811C692.018 150.323 691.614 150.742 691.116 151.067C690.619 151.392 690.035 151.606 689.366 151.711C688.713 151.812 688.097 151.784 687.519 151.626C686.946 151.468 686.431 151.192 685.975 150.799C685.518 150.406 685.135 149.91 684.826 149.31C684.516 148.704 684.299 148.008 684.177 147.22L683.99 146.016C683.867 145.229 683.859 144.503 683.967 143.837C684.079 143.167 684.292 142.575 684.608 142.062C684.923 141.549 685.33 141.13 685.827 140.805C686.325 140.479 686.901 140.266 687.554 140.164C688.223 140.06 688.844 140.088 689.417 140.246C689.99 140.405 690.505 140.68 690.961 141.073C691.417 141.466 691.798 141.966 692.103 142.572C692.408 143.173 692.621 143.867 692.744 144.654ZM691.989 146.005L691.799 144.785C691.696 144.122 691.526 143.537 691.289 143.031C691.058 142.524 690.763 142.106 690.406 141.776C690.054 141.446 689.649 141.214 689.191 141.08C688.733 140.946 688.231 140.921 687.685 141.006C687.155 141.088 686.695 141.263 686.304 141.529C685.913 141.795 685.598 142.14 685.358 142.562C685.123 142.983 684.967 143.471 684.89 144.026C684.818 144.58 684.833 145.189 684.937 145.853L685.126 147.073C685.23 147.742 685.401 148.332 685.639 148.843C685.881 149.348 686.181 149.768 686.539 150.103C686.895 150.432 687.301 150.664 687.754 150.799C688.212 150.933 688.706 150.959 689.236 150.877C689.787 150.791 690.258 150.615 690.649 150.349C691.039 150.082 691.352 149.739 691.587 149.317C691.821 148.891 691.972 148.401 692.039 147.848C692.11 147.288 692.093 146.674 691.989 146.005ZM694.341 139.267L697.992 138.699C698.769 138.578 699.463 138.599 700.074 138.762C700.684 138.926 701.182 139.23 701.568 139.676C701.958 140.117 702.208 140.694 702.32 141.41C702.402 141.94 702.364 142.438 702.204 142.906C702.05 143.373 701.801 143.783 701.455 144.137C701.109 144.486 700.687 144.755 700.189 144.943L699.876 145.118L695.978 145.725L695.836 144.917L699.102 144.409C699.688 144.317 700.16 144.128 700.516 143.841C700.871 143.553 701.118 143.209 701.256 142.808C701.399 142.401 701.437 141.984 701.37 141.557C701.291 141.048 701.112 140.625 700.833 140.289C700.558 139.947 700.192 139.709 699.733 139.574C699.275 139.44 698.737 139.421 698.119 139.517L695.418 139.937L697.039 150.359L696.089 150.507L694.341 139.267ZM703.029 149.427L699.337 144.854L700.355 144.688L704.025 149.169L704.04 149.27L703.029 149.427ZM707.564 137.21L709.313 148.45L708.371 148.596L706.623 137.356L707.564 137.21ZM711.417 136.611L711.544 137.429L702.906 138.773L702.778 137.954L711.417 136.611Z" fill="#37B7C3"/>
<g filter="url(#filter2_d_202_1713)">
<rect x="564.06" y="272.146" width="201.766" height="194.2" rx="24" transform="rotate(-8.84181 564.06 272.146)" fill="url(#paint4_linear_202_1713)"/>
</g>
<path d="M637.665 369.678L637.748 369.586L643.367 363.539C643.722 363.153 643.981 362.688 644.123 362.182C644.264 361.675 644.285 361.142 644.181 360.626L643.814 358.267C643.754 357.748 643.573 357.25 643.284 356.814C642.996 356.379 642.609 356.018 642.155 355.762L634.967 351.705L634.86 351.642C633.744 350.969 632.902 349.919 632.484 348.679C632.067 347.44 632.101 346.093 632.581 344.878L638.902 328.449C638.91 328.434 638.916 328.417 638.921 328.4C639.407 327.201 640.296 326.211 641.433 325.602C642.571 324.994 643.885 324.806 645.147 325.07L645.222 325.086L653.224 326.961C653.73 327.081 654.256 327.078 654.759 326.952C655.262 326.827 655.729 326.584 656.12 326.241C656.72 325.716 657.334 325.212 657.963 324.73C658.371 324.418 658.699 324.013 658.923 323.549C659.146 323.085 659.258 322.575 659.25 322.059L659.127 313.804L659.129 313.653C659.181 312.363 659.673 311.132 660.523 310.165C661.372 309.199 662.527 308.556 663.794 308.346L681.147 305.647C682.434 305.451 683.749 305.718 684.861 306.401C685.973 307.084 686.81 308.139 687.225 309.381L687.261 309.492L689.651 317.412C689.798 317.904 690.058 318.356 690.41 318.73C690.761 319.104 691.195 319.391 691.676 319.567C692.423 319.833 693.161 320.124 693.889 320.439C694.365 320.645 694.882 320.734 695.398 320.7C695.914 320.666 696.414 320.509 696.858 320.243L703.916 316.01L703.983 315.97C705.107 315.334 706.418 315.115 707.688 315.35C708.958 315.586 710.106 316.261 710.933 317.259L710.967 317.3L721.993 331.041C722.82 332.053 723.263 333.328 723.242 334.637C723.221 335.946 722.738 337.204 721.878 338.186L721.795 338.278L716.176 344.325C715.821 344.711 715.562 345.176 715.42 345.682C715.279 346.189 715.259 346.722 715.362 347.238L715.729 349.597C715.789 350.116 715.97 350.614 716.259 351.049C716.547 351.485 716.934 351.846 717.388 352.102L724.576 356.158L724.684 356.221C725.8 356.895 726.642 357.945 727.059 359.184C727.476 360.424 727.442 361.771 726.962 362.985L720.641 379.414C720.634 379.43 720.627 379.446 720.622 379.463C720.136 380.663 719.247 381.653 718.11 382.261C716.972 382.87 715.658 383.058 714.396 382.793L714.321 382.778L706.325 380.901C705.82 380.782 705.294 380.785 704.79 380.91C704.287 381.035 703.82 381.279 703.43 381.621C702.83 382.148 702.215 382.652 701.586 383.133C701.179 383.445 700.85 383.85 700.626 384.313C700.403 384.777 700.291 385.288 700.3 385.803L700.428 394.058L700.427 394.209C700.374 395.501 699.881 396.734 699.028 397.701C698.176 398.668 697.018 399.31 695.749 399.518L678.396 402.217C677.109 402.413 675.794 402.146 674.682 401.463C673.57 400.78 672.733 399.724 672.318 398.483L672.282 398.371L669.893 390.452C669.744 389.958 669.482 389.507 669.129 389.133C668.775 388.759 668.34 388.473 667.857 388.298C667.105 388.03 666.365 387.738 665.644 387.426C665.168 387.22 664.651 387.131 664.135 387.165C663.619 387.199 663.119 387.356 662.675 387.622L655.615 391.845L655.549 391.885C654.425 392.522 653.114 392.742 651.843 392.506C650.573 392.271 649.425 391.595 648.598 390.596C648.588 390.582 648.576 390.568 648.565 390.555L637.553 376.825C636.724 375.813 636.28 374.538 636.301 373.228C636.322 371.919 636.805 370.66 637.665 369.678ZM663.676 357.221C664.315 360.359 665.847 363.243 668.085 365.524C670.323 367.805 673.171 369.384 676.283 370.069C679.394 370.754 682.635 370.516 685.611 369.383C688.587 368.251 691.171 366.273 693.047 363.69C694.923 361.106 696.012 358.03 696.18 354.833C696.348 351.637 695.589 348.458 693.994 345.685C692.4 342.911 690.039 340.661 687.199 339.209C684.358 337.757 681.161 337.166 677.996 337.506C675.724 337.757 673.531 338.481 671.554 339.631C669.577 340.781 667.861 342.333 666.514 344.187C665.167 346.041 664.219 348.158 663.731 350.402C663.242 352.646 663.223 354.968 663.676 357.221Z" fill="url(#paint5_linear_202_1713)"/>
<g filter="url(#filter3_d_202_1713)">
<rect x="840.811" y="436.663" width="72.59" height="69.868" rx="17" transform="rotate(-8.84181 840.811 436.663)" fill="url(#paint6_linear_202_1713)"/>
</g>
<path d="M892.749 451.11C893.209 450.513 893.882 450.117 894.628 450.007C895.373 449.897 896.133 450.081 896.745 450.519C897.358 450.958 897.776 451.618 897.912 452.36C898.047 453.101 897.889 453.866 897.471 454.493L885.166 475.976C884.947 476.3 884.666 476.576 884.338 476.789C884.01 477.001 883.642 477.145 883.257 477.213C882.872 477.28 882.478 477.269 882.097 477.18C881.717 477.091 881.358 476.927 881.043 476.696L869.335 468.141C869.012 467.922 868.737 467.64 868.525 467.312C868.313 466.984 868.17 466.617 868.103 466.232C868.036 465.848 868.047 465.454 868.136 465.074C868.225 464.694 868.389 464.336 868.62 464.02C868.85 463.705 869.141 463.44 869.476 463.24C869.812 463.04 870.184 462.909 870.57 462.856C870.957 462.803 871.35 462.828 871.727 462.93C872.104 463.032 872.456 463.209 872.763 463.451L882.027 470.217L892.689 451.206L892.749 451.11Z" fill="#E4E4E4"/>
<g filter="url(#filter4_d_202_1713)">
<rect x="190" y="62" width="365" height="725" rx="42" transform="rotate(-8.84181 190 62)" fill="url(#paint7_linear_202_1713)"/>
</g>
<rect x="194.567" y="65.3376" width="357" height="717" rx="38" transform="rotate(-8.84181 194.567 65.3376)" fill="url(#paint8_linear_202_1713)" stroke="url(#paint9_linear_202_1713)" stroke-width="8"/>
<path d="M295.202 48.6717C295.117 48.126 295.49 47.6148 296.036 47.5299L442.277 24.7812C442.823 24.6964 443.334 25.0699 443.419 25.6157L445.571 39.4493C446.844 47.6351 441.241 55.3033 433.055 56.5766L314.481 75.0215C306.295 76.2948 298.627 70.6912 297.353 62.5053L295.202 48.6717Z" fill="#96FEED"/>
<g filter="url(#filter5_d_202_1713)">
<rect x="322.179" y="432.405" width="315.526" height="55" rx="18" transform="rotate(-8.84181 322.179 432.405)" fill="url(#paint10_linear_202_1713)"/>
<path d="M359.108 458.764L359.234 459.575L353.405 460.481L353.279 459.671L359.108 458.764ZM351.935 449.198L353.683 460.438L352.734 460.586L350.985 449.346L351.935 449.198ZM367.892 451.855L368.08 453.06C368.202 453.847 368.21 454.576 368.103 455.246C368.001 455.91 367.792 456.499 367.477 457.012C367.166 457.524 366.762 457.942 366.265 458.268C365.767 458.593 365.184 458.807 364.515 458.911C363.861 459.013 363.245 458.985 362.667 458.827C362.095 458.669 361.58 458.393 361.123 458C360.667 457.607 360.284 457.111 359.975 456.51C359.664 455.905 359.448 455.209 359.325 454.421L359.138 453.217C359.016 452.43 359.008 451.703 359.115 451.038C359.227 450.367 359.441 449.775 359.756 449.263C360.072 448.75 360.479 448.331 360.976 448.005C361.474 447.68 362.049 447.467 362.703 447.365C363.372 447.261 363.993 447.288 364.566 447.447C365.139 447.606 365.653 447.881 366.11 448.274C366.566 448.667 366.947 449.167 367.252 449.773C367.556 450.374 367.77 451.068 367.892 451.855ZM367.138 453.206L366.948 451.986C366.845 451.323 366.675 450.738 366.438 450.231C366.206 449.725 365.912 449.307 365.555 448.977C365.203 448.647 364.798 448.415 364.34 448.281C363.881 448.147 363.379 448.122 362.834 448.207C362.304 448.289 361.843 448.464 361.452 448.73C361.062 448.996 360.746 449.34 360.506 449.763C360.271 450.184 360.115 450.672 360.038 451.227C359.966 451.781 359.982 452.39 360.085 453.054L360.275 454.274C360.379 454.943 360.55 455.533 360.788 456.044C361.03 456.549 361.329 456.969 361.687 457.304C362.044 457.633 362.449 457.865 362.902 458C363.361 458.134 363.855 458.16 364.385 458.078C364.936 457.992 365.407 457.816 365.797 457.55C366.188 457.283 366.501 456.939 366.736 456.518C366.97 456.092 367.12 455.602 367.187 455.049C367.258 454.489 367.242 453.875 367.138 453.206ZM369.489 446.468L373.141 445.9C373.918 445.779 374.612 445.8 375.222 445.963C375.833 446.127 376.331 446.431 376.716 446.877C377.106 447.317 377.357 447.895 377.468 448.61C377.551 449.141 377.512 449.639 377.353 450.107C377.199 450.574 376.949 450.984 376.604 451.338C376.257 451.687 375.835 451.956 375.338 452.144L375.025 452.319L371.126 452.926L370.985 452.117L374.25 451.61C374.837 451.518 375.308 451.329 375.664 451.042C376.02 450.754 376.267 450.41 376.405 450.009C376.547 449.602 376.585 449.185 376.519 448.758C376.439 448.249 376.26 447.826 375.981 447.49C375.707 447.148 375.34 446.91 374.882 446.775C374.424 446.641 373.886 446.622 373.268 446.718L370.566 447.138L372.187 457.56L371.238 457.708L369.489 446.468ZM378.178 456.628L374.486 452.055L375.503 451.889L379.173 456.37L379.189 456.471L378.178 456.628ZM388.172 454.243L388.298 455.054L381.976 456.037L381.85 455.227L388.172 454.243ZM380.513 444.753L382.261 455.993L381.312 456.14L379.564 444.901L380.513 444.753ZM386.547 448.977L386.673 449.788L381.138 450.649L381.012 449.838L386.547 448.977ZM386.511 443.82L386.638 444.638L380.355 445.616L380.227 444.797L386.511 443.82ZM388.858 443.455L389.815 443.306L395.508 452.556L398.129 442.013L399.079 441.865L396.08 453.843L395.354 453.956L388.858 443.455ZM388.565 443.5L389.406 443.37L390.491 449.684L391.255 454.594L390.313 454.74L388.565 443.5ZM398.546 441.948L399.388 441.817L401.136 453.057L400.186 453.204L399.423 448.295L398.546 441.948ZM407.262 440.592L409.01 451.832L408.061 451.98L406.312 440.74L407.262 440.592ZM415.176 446.184L411.973 446.682L411.846 445.872L415.05 445.374C415.719 445.269 416.245 445.077 416.629 444.796C417.016 444.509 417.276 444.163 417.408 443.758C417.545 443.351 417.577 442.914 417.504 442.446C417.433 441.988 417.27 441.581 417.014 441.226C416.764 440.869 416.409 440.608 415.951 440.442C415.498 440.27 414.936 440.236 414.267 440.34L411.395 440.787L413.017 451.209L412.067 451.356L410.319 440.116L414.14 439.522C414.963 439.394 415.678 439.428 416.282 439.624C416.893 439.819 417.381 440.146 417.748 440.605C418.114 441.065 418.349 441.624 418.451 442.283C418.559 442.972 418.507 443.589 418.296 444.133C418.085 444.672 417.719 445.116 417.199 445.466C416.679 445.816 416.005 446.055 415.176 446.184ZM427.74 446.088C427.692 445.779 427.598 445.512 427.457 445.286C427.317 445.06 427.113 444.87 426.847 444.717C426.585 444.557 426.243 444.426 425.821 444.323C425.404 444.214 424.889 444.122 424.276 444.049C423.691 443.977 423.157 443.881 422.674 443.761C422.192 443.641 421.769 443.482 421.406 443.286C421.049 443.088 420.76 442.838 420.538 442.535C420.317 442.227 420.171 441.852 420.102 441.409C420.035 440.977 420.067 440.569 420.197 440.185C420.327 439.801 420.539 439.454 420.833 439.145C421.133 438.835 421.501 438.575 421.937 438.364C422.379 438.153 422.875 438.005 423.426 437.919C424.213 437.797 424.916 437.841 425.533 438.05C426.156 438.259 426.664 438.594 427.057 439.054C427.455 439.509 427.703 440.05 427.8 440.678L426.851 440.826C426.775 440.337 426.591 439.92 426.3 439.575C426.014 439.225 425.638 438.975 425.172 438.826C424.71 438.671 424.171 438.642 423.553 438.738C422.935 438.834 422.43 439.01 422.038 439.266C421.65 439.516 421.372 439.815 421.205 440.162C421.042 440.504 420.99 440.865 421.049 441.246C421.091 441.514 421.181 441.753 421.319 441.963C421.457 442.168 421.656 442.351 421.918 442.51C422.185 442.664 422.524 442.796 422.936 442.905C423.348 443.01 423.848 443.093 424.438 443.154C425.06 443.226 425.619 443.326 426.113 443.455C426.608 443.584 427.035 443.754 427.395 443.967C427.754 444.175 428.043 444.438 428.261 444.758C428.479 445.077 428.624 445.465 428.695 445.923C428.766 446.381 428.733 446.808 428.594 447.204C428.46 447.594 428.237 447.942 427.926 448.249C427.621 448.555 427.242 448.811 426.789 449.019C426.341 449.225 425.84 449.372 425.284 449.458C424.785 449.536 424.278 449.549 423.764 449.497C423.25 449.445 422.766 449.318 422.313 449.114C421.864 448.905 421.483 448.606 421.169 448.217C420.861 447.827 420.661 447.337 420.569 446.745L421.51 446.598C421.584 447.072 421.741 447.456 421.982 447.75C422.223 448.045 422.516 448.268 422.861 448.42C423.211 448.571 423.584 448.663 423.98 448.697C424.379 448.724 424.772 448.708 425.158 448.648C425.75 448.556 426.248 448.389 426.653 448.146C427.063 447.903 427.363 447.607 427.55 447.256C427.743 446.899 427.806 446.51 427.74 446.088ZM436.218 436.088L437.168 435.94L438.352 443.552C438.483 444.396 438.415 445.126 438.147 445.742C437.879 446.358 437.466 446.852 436.907 447.224C436.353 447.594 435.713 447.836 434.988 447.949C434.241 448.065 433.548 448.031 432.908 447.846C432.268 447.661 431.729 447.315 431.292 446.808C430.86 446.301 430.578 445.625 430.447 444.781L429.263 437.17L430.204 437.023L431.389 444.635C431.49 445.288 431.704 445.816 432.03 446.219C432.356 446.622 432.763 446.898 433.25 447.049C433.738 447.2 434.275 447.23 434.861 447.138C435.443 447.048 435.943 446.857 436.362 446.565C436.78 446.273 437.083 445.886 437.272 445.404C437.46 444.921 437.504 444.353 437.402 443.699L436.218 436.088ZM440.132 435.479L441.089 435.33L446.782 444.58L449.403 434.037L450.353 433.889L447.354 445.867L446.628 445.98L440.132 435.479ZM439.839 435.524L440.68 435.394L441.765 441.708L442.529 446.618L441.587 446.764L439.839 435.524ZM449.82 433.972L450.662 433.841L452.41 445.081L451.46 445.228L450.697 440.319L449.82 433.972Z" fill="white"/>
</g>
<g filter="url(#filter6_d_202_1713)">
<rect x="337.688" y="515.576" width="323.294" height="55" rx="18" transform="rotate(-8.84181 337.688 515.576)" fill="url(#paint11_linear_202_1713)"/>
<path d="M371.659 538.803C371.587 538.339 371.694 537.927 371.98 537.567C372.266 537.199 372.672 536.975 373.2 536.893C373.734 536.81 374.189 536.9 374.566 537.164C374.949 537.421 375.176 537.781 375.248 538.244C375.32 538.707 375.214 539.123 374.928 539.49C374.648 539.85 374.241 540.071 373.707 540.154C373.18 540.236 372.725 540.149 372.342 539.892C371.958 539.629 371.731 539.266 371.659 538.803ZM386.337 536.519C386.265 536.056 386.372 535.644 386.658 535.283C386.944 534.916 387.35 534.691 387.878 534.609C388.412 534.526 388.867 534.617 389.244 534.881C389.627 535.138 389.854 535.498 389.926 535.961C389.998 536.424 389.892 536.839 389.606 537.207C389.326 537.566 388.919 537.788 388.385 537.871C387.858 537.953 387.403 537.866 387.02 537.609C386.637 537.346 386.409 536.983 386.337 536.519ZM401.015 534.236C400.943 533.773 401.05 533.361 401.337 533C401.622 532.633 402.029 532.408 402.556 532.326C403.09 532.243 403.546 532.334 403.923 532.598C404.305 532.855 404.532 533.215 404.605 533.678C404.677 534.141 404.57 534.556 404.284 534.923C404.004 535.283 403.597 535.505 403.063 535.588C402.536 535.67 402.081 535.582 401.698 535.326C401.315 535.062 401.087 534.699 401.015 534.236ZM415.693 531.953C415.621 531.49 415.728 531.078 416.015 530.717C416.3 530.35 416.707 530.125 417.234 530.043C417.768 529.96 418.224 530.05 418.601 530.315C418.983 530.571 419.211 530.931 419.283 531.394C419.355 531.858 419.248 532.273 418.963 532.64C418.682 533 418.275 533.221 417.742 533.304C417.214 533.386 416.759 533.299 416.376 533.042C415.993 532.779 415.765 532.416 415.693 531.953ZM430.371 529.67C430.299 529.206 430.406 528.794 430.693 528.434C430.978 528.066 431.385 527.842 431.912 527.76C432.446 527.677 432.902 527.767 433.279 528.031C433.662 528.288 433.889 528.648 433.961 529.111C434.033 529.574 433.926 529.99 433.641 530.357C433.361 530.717 432.954 530.938 432.42 531.021C431.892 531.103 431.437 531.016 431.055 530.759C430.671 530.496 430.443 530.133 430.371 529.67ZM445.049 527.386C444.977 526.923 445.085 526.511 445.371 526.15C445.657 525.783 446.063 525.558 446.591 525.476C447.124 525.393 447.58 525.484 447.957 525.748C448.34 526.005 448.567 526.365 448.639 526.828C448.711 527.291 448.604 527.706 448.319 528.074C448.039 528.433 447.632 528.655 447.098 528.738C446.57 528.82 446.115 528.733 445.733 528.476C445.349 528.213 445.121 527.849 445.049 527.386ZM459.728 525.103C459.655 524.64 459.763 524.228 460.049 523.867C460.335 523.5 460.741 523.275 461.269 523.193C461.803 523.11 462.258 523.201 462.635 523.465C463.018 523.721 463.245 524.081 463.317 524.545C463.389 525.008 463.283 525.423 462.997 525.79C462.717 526.15 462.31 526.372 461.776 526.455C461.249 526.537 460.793 526.449 460.411 526.193C460.027 525.929 459.8 525.566 459.728 525.103ZM474.406 522.82C474.334 522.357 474.441 521.945 474.727 521.584C475.013 521.216 475.419 520.992 475.947 520.91C476.481 520.827 476.936 520.917 477.313 521.181C477.696 521.438 477.923 521.798 477.995 522.261C478.067 522.725 477.961 523.14 477.675 523.507C477.395 523.867 476.988 524.088 476.454 524.171C475.927 524.253 475.472 524.166 475.089 523.909C474.706 523.646 474.478 523.283 474.406 522.82Z" fill="white"/>
</g>
<g filter="url(#filter7_d_202_1713)">
<rect x="426" y="629.077" width="182.664" height="45.6356" rx="18" transform="rotate(-8.84181 426 629.077)" fill="url(#paint12_linear_202_1713)"/>
</g>
<path d="M491.75 642.141L488.585 642.633L488.445 641.833L491.17 641.409C491.725 641.323 492.186 641.169 492.553 640.949C492.919 640.728 493.178 640.446 493.33 640.101C493.486 639.749 493.528 639.342 493.456 638.879C493.383 638.406 493.222 638.03 492.973 637.753C492.723 637.47 492.386 637.285 491.961 637.198C491.537 637.111 491.021 637.115 490.414 637.21L488.051 637.577L489.673 647.999L488.723 648.146L486.975 636.907L490.286 636.391C490.858 636.303 491.378 636.28 491.849 636.322C492.319 636.365 492.733 636.483 493.09 636.675C493.446 636.867 493.736 637.136 493.958 637.481C494.185 637.82 494.338 638.244 494.417 638.753C494.489 639.217 494.452 639.652 494.304 640.06C494.156 640.462 493.912 640.811 493.574 641.106C493.239 641.396 492.816 641.609 492.305 641.746L491.75 642.141ZM492.521 647.556L489.124 648.084L489.485 647.198L492.395 646.745C492.951 646.659 493.41 646.492 493.772 646.246C494.139 645.994 494.4 645.677 494.557 645.294C494.714 644.911 494.754 644.478 494.679 643.994C494.613 643.567 494.46 643.198 494.222 642.887C493.984 642.576 493.659 642.353 493.248 642.216C492.836 642.075 492.337 642.05 491.75 642.141L489.781 642.447L489.672 641.642L492.459 641.209L492.673 641.468C493.185 641.441 493.65 641.529 494.066 641.733C494.487 641.931 494.831 642.213 495.099 642.577C495.372 642.94 495.545 643.359 495.618 643.832C495.724 644.512 495.662 645.112 495.432 645.632C495.206 646.147 494.842 646.57 494.341 646.901C493.843 647.226 493.236 647.444 492.521 647.556ZM503.456 634.343L504.406 634.195L505.59 641.807C505.721 642.651 505.653 643.381 505.385 643.997C505.117 644.613 504.704 645.107 504.145 645.479C503.591 645.849 502.951 646.091 502.226 646.204C501.479 646.32 500.786 646.286 500.146 646.101C499.506 645.916 498.967 645.57 498.53 645.063C498.098 644.556 497.816 643.88 497.685 643.036L496.501 635.425L497.442 635.278L498.626 642.89C498.728 643.543 498.942 644.072 499.268 644.474C499.594 644.877 500.001 645.153 500.488 645.304C500.976 645.455 501.513 645.485 502.099 645.394C502.681 645.303 503.181 645.112 503.599 644.82C504.018 644.529 504.321 644.141 504.51 643.659C504.698 643.176 504.742 642.608 504.64 641.954L503.456 634.343ZM510.844 633.194L512.592 644.433L511.65 644.58L509.902 633.34L510.844 633.194ZM514.696 632.594L514.823 633.413L506.185 634.756L506.058 633.938L514.696 632.594ZM520.416 631.705L522.165 642.944L521.223 643.091L519.474 631.851L520.416 631.705ZM524.268 631.105L524.396 631.924L515.757 633.267L515.63 632.449L524.268 631.105ZM534.961 634.581L535.148 635.786C535.271 636.573 535.279 637.302 535.172 637.972C535.07 638.636 534.861 639.225 534.545 639.738C534.235 640.25 533.831 640.668 533.333 640.994C532.836 641.319 532.252 641.533 531.583 641.637C530.93 641.739 530.314 641.711 529.736 641.553C529.163 641.395 528.649 641.119 528.192 640.726C527.736 640.333 527.353 639.837 527.043 639.236C526.733 638.631 526.517 637.935 526.394 637.147L526.207 635.943C526.084 635.156 526.077 634.429 526.184 633.764C526.296 633.093 526.509 632.501 526.825 631.989C527.141 631.476 527.547 631.057 528.045 630.731C528.542 630.406 529.118 630.193 529.772 630.091C530.441 629.987 531.062 630.014 531.634 630.173C532.207 630.332 532.722 630.607 533.178 631C533.635 631.393 534.016 631.893 534.321 632.499C534.625 633.1 534.838 633.794 534.961 634.581ZM534.206 635.932L534.017 634.712C533.913 634.048 533.743 633.464 533.506 632.957C533.275 632.451 532.98 632.033 532.624 631.703C532.272 631.373 531.867 631.141 531.408 631.007C530.95 630.872 530.448 630.848 529.902 630.933C529.372 631.015 528.912 631.19 528.521 631.456C528.13 631.722 527.815 632.066 527.575 632.489C527.34 632.91 527.184 633.398 527.107 633.953C527.035 634.507 527.051 635.116 527.154 635.78L527.344 637C527.448 637.669 527.619 638.259 527.856 638.77C528.098 639.275 528.398 639.695 528.756 640.03C529.113 640.359 529.518 640.591 529.971 640.726C530.429 640.86 530.924 640.886 531.454 640.804C532.004 640.718 532.475 640.542 532.866 640.276C533.257 640.009 533.57 639.665 533.804 639.244C534.039 638.818 534.189 638.328 534.256 637.775C534.327 637.215 534.31 636.601 534.206 635.932ZM544.949 627.888L546.698 639.128L545.74 639.277L537.785 630.679L539.279 640.282L538.33 640.43L536.581 629.19L537.531 629.042L545.501 637.638L544.007 628.035L544.949 627.888Z" fill="white"/>
<rect x="327.217" y="52.7998" width="88" height="4" rx="2" transform="rotate(-8.84181 327.217 52.7998)" fill="#19379C"/>
<g filter="url(#filter8_d_202_1713)">
<rect x="111" y="29" width="166.234" height="160" rx="24" transform="rotate(-8.84181 111 29)" fill="url(#paint13_linear_202_1713)"/>
</g>
<path d="M250.357 56.3301C250.494 57.2131 250.412 58.1165 250.116 58.9599C249.821 59.8033 249.322 60.5606 248.663 61.1646L206.522 99.8265L154.627 75.7924C153.57 75.3038 152.697 74.4877 152.14 73.4649C151.582 72.442 151.368 71.2668 151.53 70.113C151.692 68.9593 152.221 67.8884 153.039 67.0588C153.857 66.2291 154.92 65.6848 156.072 65.5065L244.171 51.8022C247.135 51.3411 249.905 53.3728 250.365 56.3289M253.332 75.3995L259.778 116.843C260.118 119.027 259.576 121.256 258.272 123.04C256.968 124.825 255.009 126.018 252.825 126.358L170.482 139.167C168.298 139.507 166.069 138.965 164.284 137.661C162.5 136.357 161.306 134.397 160.967 132.213L154.52 90.7702C154.264 89.1234 155.948 87.8578 157.457 88.5592L208.443 112.178L249.855 74.1946C250.132 73.9394 250.474 73.7642 250.842 73.6877C251.211 73.6111 251.594 73.6361 251.95 73.7598C252.306 73.8836 252.622 74.1016 252.863 74.3906C253.105 74.6795 253.264 75.0287 253.323 75.4008" fill="url(#paint14_linear_202_1713)"/>
<g filter="url(#filter9_d_202_1713)">
<rect x="104.408" y="388" width="91.5921" height="88.1574" rx="24" transform="rotate(-8.84181 104.408 388)" fill="url(#paint15_linear_202_1713)"/>
</g>
<g clip-path="url(#clip1_202_1713)">
<rect x="128.445" y="408.55" width="50" height="7" rx="2" transform="rotate(-8.84181 128.445 408.55)" fill="url(#paint16_linear_202_1713)"/>
<rect x="130.904" y="424.359" width="50" height="7" rx="2" transform="rotate(-8.84181 130.904 424.359)" fill="url(#paint17_linear_202_1713)"/>
<rect x="133.364" y="440.17" width="50" height="7" rx="2" transform="rotate(-8.84181 133.364 440.17)" fill="url(#paint18_linear_202_1713)"/>
</g>
<g filter="url(#filter10_d_202_1713)">
<rect x="58.4082" y="522" width="91.5921" height="88.1574" rx="24" transform="rotate(-8.84181 58.4082 522)" fill="url(#paint19_linear_202_1713)"/>
</g>
<path d="M106.185 532.073C107.213 531.913 108.263 532.142 109.132 532.715C110 533.288 110.624 534.163 110.882 535.171L110.963 535.565L117.823 579.668C117.988 580.73 117.738 581.814 117.124 582.697C116.511 583.579 115.582 584.192 114.53 584.408C113.477 584.624 112.382 584.426 111.47 583.857C110.559 583.287 109.902 582.389 109.635 581.348L109.554 580.954L102.694 536.851C102.523 535.754 102.795 534.635 103.45 533.739C104.105 532.843 105.089 532.244 106.185 532.073ZM96.4461 542.058C97.5427 541.887 98.662 542.159 99.558 542.814C100.454 543.469 101.053 544.453 101.224 545.549L105.512 573.113C105.682 574.21 105.41 575.329 104.755 576.225C104.101 577.121 103.117 577.721 102.02 577.891C100.924 578.062 99.8043 577.79 98.9083 577.135C98.0124 576.48 97.4132 575.496 97.2426 574.4L92.9548 546.835C92.7842 545.739 93.0562 544.619 93.711 543.723C94.3657 542.827 95.3496 542.228 96.4461 542.058ZM118.497 538.627C119.593 538.457 120.713 538.729 121.609 539.384C122.505 540.039 123.104 541.022 123.274 542.119L127.562 569.683C127.733 570.78 127.461 571.899 126.806 572.795C126.151 573.691 125.167 574.291 124.071 574.461C122.974 574.632 121.855 574.36 120.959 573.705C120.063 573.05 119.464 572.066 119.293 570.97L115.005 543.405C114.835 542.309 115.107 541.189 115.762 540.293C116.416 539.397 117.4 538.798 118.497 538.627ZM86.7072 552.042C87.8037 551.871 88.9231 552.143 89.8191 552.798C90.715 553.453 91.3142 554.437 91.4848 555.533L93.1999 566.559C93.3705 567.656 93.0985 568.775 92.4438 569.671C91.789 570.567 90.8051 571.166 89.7086 571.337C88.6121 571.508 87.4927 571.236 86.5967 570.581C85.7007 569.926 85.1015 568.942 84.931 567.845L83.2158 556.82C83.0453 555.723 83.3173 554.604 83.972 553.708C84.6268 552.812 85.6106 552.213 86.7072 552.042ZM130.808 545.182C131.836 545.022 132.887 545.251 133.755 545.823C134.623 546.396 135.247 547.272 135.505 548.279L135.586 548.673L137.301 559.699C137.466 560.761 137.216 561.845 136.602 562.728C135.989 563.61 135.06 564.223 134.007 564.439C132.955 564.655 131.859 564.458 130.948 563.888C130.037 563.318 129.38 562.42 129.113 561.379L129.032 560.985L127.317 549.96C127.146 548.863 127.418 547.744 128.073 546.848C128.728 545.952 129.712 545.352 130.808 545.182Z" fill="url(#paint20_linear_202_1713)"/>
<g clip-path="url(#clip2_202_1713)">
<g filter="url(#filter11_d_202_1713)">
<path d="M70.3115 313.663C76.2814 312.734 81.0317 309.856 84.5624 305.029C88.0931 300.201 89.3923 294.801 88.4599 288.828C87.5276 282.856 84.6497 278.107 79.8263 274.582C75.0028 271.058 69.6025 269.757 63.6253 270.68C57.6481 271.603 52.8996 274.483 49.3799 279.318C45.8603 284.154 44.5593 289.553 45.4769 295.515C46.3945 301.477 49.2742 306.227 54.116 309.765C58.9579 313.303 64.3564 314.603 70.3115 313.663ZM68.8257 304.111C65.4826 304.631 62.4773 303.917 59.8099 301.967C57.1424 300.018 55.5487 297.372 55.0287 294.029C54.5086 290.686 55.2232 287.68 57.1725 285.013C59.1218 282.346 61.768 280.752 65.1111 280.232C68.4542 279.712 71.4595 280.426 74.1269 282.376C76.7944 284.325 78.3881 286.971 78.9081 290.314C79.4282 293.657 78.7136 296.663 76.7643 299.33C74.815 301.998 72.1688 303.591 68.8257 304.111ZM34.7046 336.322C32.0778 336.731 29.6846 336.146 27.5249 334.568C25.3652 332.989 24.0792 330.886 23.6669 328.256L14.7519 270.945C14.3433 268.319 14.9297 265.925 16.5112 263.765C18.0926 261.605 20.1948 260.319 22.8179 259.908L37.862 257.568L45.2115 246.641L73.8669 242.184L84.1882 250.361L99.2322 248.021C101.859 247.612 104.254 248.199 106.417 249.78C108.581 251.36 109.865 253.463 110.27 256.087L119.185 313.398C119.593 316.025 119.009 318.419 117.431 320.582C115.853 322.745 113.749 324.03 111.119 324.435L34.7046 336.322Z" fill="url(#paint21_linear_202_1713)"/>
</g>
</g>
<g filter="url(#filter12_d_202_1713)">
<g filter="url(#filter13_ddd_202_1713)">
<path fill-rule="evenodd" clip-rule="evenodd" d="M365.061 179.932C339.671 238.866 379.41 285.133 439.49 308.1C499.569 331.068 565.167 320.734 590.557 261.801C615.947 202.868 582.962 137.505 522.882 114.537C462.802 91.5696 390.451 120.999 365.061 179.932ZM385.129 174.351C362.679 226.463 387.545 285.173 440.669 305.483C493.793 325.792 555.057 300.011 577.507 247.899C599.957 195.787 563.234 181.709 510.11 161.399C456.987 141.089 407.579 122.239 385.129 174.351Z" fill="url(#paint22_linear_202_1713)" shape-rendering="crispEdges"/>
</g>
<g filter="url(#filter14_ddd_202_1713)">
<path fill-rule="evenodd" clip-rule="evenodd" d="M421.717 337.322C378.657 345.437 324.109 343.454 316.409 303.825C308.708 264.197 346.918 203.122 389.978 195.007C433.038 186.891 472.86 215.283 480.561 254.912C488.262 294.54 464.777 329.207 421.717 337.322ZM421.496 326.597C383.452 333.766 333.373 337.269 326.569 302.256C319.765 267.243 358.813 206.974 396.856 199.804C434.9 192.635 439.629 216.843 446.433 251.855C446.647 252.958 446.863 254.059 447.077 255.156C453.672 288.879 459.642 319.407 421.496 326.597Z" fill="url(#paint23_linear_202_1713)"/>
</g>
<g filter="url(#filter15_ddd_202_1713)">
<path fill-rule="evenodd" clip-rule="evenodd" d="M500.783 274.855C457.723 282.97 403.175 280.987 395.474 241.359C387.773 201.73 425.984 140.655 469.043 132.54C512.103 124.425 551.926 152.816 559.627 192.445C567.328 232.074 543.842 266.74 500.783 274.855ZM500.561 264.13C462.518 271.299 412.439 274.802 405.635 239.789C398.831 204.777 437.878 144.507 475.922 137.338C513.965 130.168 518.695 154.376 525.498 189.389C525.713 190.492 525.928 191.592 526.143 192.689C532.737 226.412 538.708 256.941 500.561 264.13Z" fill="url(#paint24_linear_202_1713)"/>
</g>
</g>
<defs>
<filter id="filter0_d_202_1713" x="571.833" y="434.922" width="381.268" height="358.739" filterUnits="userSpaceOnUse" color-interpolation-filters="sRGB">
<feFlood flood-opacity="0" result="BackgroundImageFix"/>
<feColorMatrix in="SourceAlpha" type="matrix" values="0 0 0 0 0 0 0 0 0 0 0 0 0 0 0 0 0 0 127 0" result="hardAlpha"/>
<feOffset dy="2"/>
<feGaussianBlur stdDeviation="3"/>
<feComposite in2="hardAlpha" operator="out"/>
<feColorMatrix type="matrix" values="0 0 0 0 0.921569 0 0 0 0 0.956863 0 0 0 0 0.964706 0 0 0 0.08 0"/>
<feBlend mode="normal" in2="BackgroundImageFix" result="effect1_dropShadow_202_1713"/>
<feBlend mode="normal" in="SourceGraphic" in2="effect1_dropShadow_202_1713" result="shape"/>
</filter>
<filter id="filter1_d_202_1713" x="689.042" y="550.284" width="139.002" height="139.002" filterUnits="userSpaceOnUse" color-interpolation-filters="sRGB">
<feFlood flood-opacity="0" result="BackgroundImageFix"/>
<feColorMatrix in="SourceAlpha" type="matrix" values="0 0 0 0 0 0 0 0 0 0 0 0 0 0 0 0 0 0 127 0" result="hardAlpha"/>
<feOffset dx="-4" dy="7"/>
<feGaussianBlur stdDeviation="7"/>
<feComposite in2="hardAlpha" operator="out"/>
<feColorMatrix type="matrix" values="0 0 0 0 0 0 0 0 0 0 0 0 0 0 0 0 0 0 0.25 0"/>
<feBlend mode="normal" in2="BackgroundImageFix" result="effect1_dropShadow_202_1713"/>
<feBlend mode="normal" in="SourceGraphic" in2="effect1_dropShadow_202_1713" result="shape"/>
</filter>
<filter id="filter2_d_202_1713" x="563.46" y="244.533" width="226.418" height="220.104" filterUnits="userSpaceOnUse" color-interpolation-filters="sRGB">
<feFlood flood-opacity="0" result="BackgroundImageFix"/>
<feColorMatrix in="SourceAlpha" type="matrix" values="0 0 0 0 0 0 0 0 0 0 0 0 0 0 0 0 0 0 127 0" result="hardAlpha"/>
<feOffset dx="-4" dy="4"/>
<feComposite in2="hardAlpha" operator="out"/>
<feColorMatrix type="matrix" values="0 0 0 0 0.027451 0 0 0 0 0.286275 0 0 0 0 0.439216 0 0 0 1 0"/>
<feBlend mode="normal" in2="BackgroundImageFix" result="effect1_dropShadow_202_1713"/>
<feBlend mode="normal" in="SourceGraphic" in2="effect1_dropShadow_202_1713" result="shape"/>
</filter>
<filter id="filter3_d_202_1713" x="839.219" y="427.914" width="81.6494" height="79.3779" filterUnits="userSpaceOnUse" color-interpolation-filters="sRGB">
<feFlood flood-opacity="0" result="BackgroundImageFix"/>
<feColorMatrix in="SourceAlpha" type="matrix" values="0 0 0 0 0 0 0 0 0 0 0 0 0 0 0 0 0 0 127 0" result="hardAlpha"/>
<feOffset dx="-4" dy="4"/>
<feComposite in2="hardAlpha" operator="out"/>
<feColorMatrix type="matrix" values="0 0 0 0 0.027451 0 0 0 0 0.0980392 0 0 0 0 0.321569 0 0 0 0.65 0"/>
<feBlend mode="normal" in2="BackgroundImageFix" result="effect1_dropShadow_202_1713"/>
<feBlend mode="normal" in="SourceGraphic" in2="effect1_dropShadow_202_1713" result="shape"/>
</filter>
<filter id="filter4_d_202_1713" x="187.95" y="11.8477" width="468.199" height="768.586" filterUnits="userSpaceOnUse" color-interpolation-filters="sRGB">
<feFlood flood-opacity="0" result="BackgroundImageFix"/>
<feColorMatrix in="SourceAlpha" type="matrix" values="0 0 0 0 0 0 0 0 0 0 0 0 0 0 0 0 0 0 127 0" result="hardAlpha"/>
<feOffset dx="-8" dy="8"/>
<feComposite in2="hardAlpha" operator="out"/>
<feColorMatrix type="matrix" values="0 0 0 0 0.592157 0 0 0 0 0.996078 0 0 0 0 0.929412 0 0 0 1 0"/>
<feBlend mode="normal" in2="BackgroundImageFix" result="effect1_dropShadow_202_1713"/>
<feBlend mode="normal" in="SourceGraphic" in2="effect1_dropShadow_202_1713" result="shape"/>
</filter>
<filter id="filter5_d_202_1713" x="320.729" y="386.457" width="319.131" height="101.744" filterUnits="userSpaceOnUse" color-interpolation-filters="sRGB">
<feFlood flood-opacity="0" result="BackgroundImageFix"/>
<feColorMatrix in="SourceAlpha" type="matrix" values="0 0 0 0 0 0 0 0 0 0 0 0 0 0 0 0 0 0 127 0" result="hardAlpha"/>
<feOffset dx="-4" dy="4"/>
<feComposite in2="hardAlpha" operator="out"/>
<feColorMatrix type="matrix" values="0 0 0 0 0.027451 0 0 0 0 0.0980392 0 0 0 0 0.321569 0 0 0 0.4 0"/>
<feBlend mode="normal" in2="BackgroundImageFix" result="effect1_dropShadow_202_1713"/>
<feBlend mode="normal" in="SourceGraphic" in2="effect1_dropShadow_202_1713" result="shape"/>
</filter>
<filter id="filter6_d_202_1713" x="336.237" y="468.434" width="326.806" height="102.938" filterUnits="userSpaceOnUse" color-interpolation-filters="sRGB">
<feFlood flood-opacity="0" result="BackgroundImageFix"/>
<feColorMatrix in="SourceAlpha" type="matrix" values="0 0 0 0 0 0 0 0 0 0 0 0 0 0 0 0 0 0 127 0" result="hardAlpha"/>
<feOffset dx="-4" dy="4"/>
<feComposite in2="hardAlpha" operator="out"/>
<feColorMatrix type="matrix" values="0 0 0 0 0.027451 0 0 0 0 0.0980392 0 0 0 0 0.321569 0 0 0 0.4 0"/>
<feBlend mode="normal" in2="BackgroundImageFix" result="effect1_dropShadow_202_1713"/>
<feBlend mode="normal" in="SourceGraphic" in2="effect1_dropShadow_202_1713" result="shape"/>
</filter>
<filter id="filter7_d_202_1713" x="424.55" y="603.551" width="186.408" height="72.0693" filterUnits="userSpaceOnUse" color-interpolation-filters="sRGB">
<feFlood flood-opacity="0" result="BackgroundImageFix"/>
<feColorMatrix in="SourceAlpha" type="matrix" values="0 0 0 0 0 0 0 0 0 0 0 0 0 0 0 0 0 0 127 0" result="hardAlpha"/>
<feOffset dx="-4" dy="4"/>
<feComposite in2="hardAlpha" operator="out"/>
<feColorMatrix type="matrix" values="0 0 0 0 0.027451 0 0 0 0 0.0980392 0 0 0 0 0.321569 0 0 0 0.4 0"/>
<feBlend mode="normal" in2="BackgroundImageFix" result="effect1_dropShadow_202_1713"/>
<feBlend mode="normal" in="SourceGraphic" in2="effect1_dropShadow_202_1713" result="shape"/>
</filter>
<filter id="filter8_d_202_1713" x="110.4" y="6.84863" width="186.051" height="180.85" filterUnits="userSpaceOnUse" color-interpolation-filters="sRGB">
<feFlood flood-opacity="0" result="BackgroundImageFix"/>
<feColorMatrix in="SourceAlpha" type="matrix" values="0 0 0 0 0 0 0 0 0 0 0 0 0 0 0 0 0 0 127 0" result="hardAlpha"/>
<feOffset dx="-4" dy="4"/>
<feComposite in2="hardAlpha" operator="out"/>
<feColorMatrix type="matrix" values="0 0 0 0 0.215686 0 0 0 0 0.717647 0 0 0 0 0.764706 0 0 0 1 0"/>
<feBlend mode="normal" in2="BackgroundImageFix" result="effect1_dropShadow_202_1713"/>
<feBlend mode="normal" in="SourceGraphic" in2="effect1_dropShadow_202_1713" result="shape"/>
</filter>
<filter id="filter9_d_202_1713" x="103.809" y="377.322" width="101.253" height="98.3867" filterUnits="userSpaceOnUse" color-interpolation-filters="sRGB">
<feFlood flood-opacity="0" result="BackgroundImageFix"/>
<feColorMatrix in="SourceAlpha" type="matrix" values="0 0 0 0 0 0 0 0 0 0 0 0 0 0 0 0 0 0 127 0" result="hardAlpha"/>
<feOffset dx="-4" dy="4"/>
<feComposite in2="hardAlpha" operator="out"/>
<feColorMatrix type="matrix" values="0 0 0 0 0.215686 0 0 0 0 0.717647 0 0 0 0 0.764706 0 0 0 1 0"/>
<feBlend mode="normal" in2="BackgroundImageFix" result="effect1_dropShadow_202_1713"/>
<feBlend mode="normal" in="SourceGraphic" in2="effect1_dropShadow_202_1713" result="shape"/>
</filter>
<filter id="filter10_d_202_1713" x="57.8086" y="511.322" width="101.253" height="98.3867" filterUnits="userSpaceOnUse" color-interpolation-filters="sRGB">
<feFlood flood-opacity="0" result="BackgroundImageFix"/>
<feColorMatrix in="SourceAlpha" type="matrix" values="0 0 0 0 0 0 0 0 0 0 0 0 0 0 0 0 0 0 127 0" result="hardAlpha"/>
<feOffset dx="-4" dy="4"/>
<feComposite in2="hardAlpha" operator="out"/>
<feColorMatrix type="matrix" values="0 0 0 0 0.215686 0 0 0 0 0.717647 0 0 0 0 0.764706 0 0 0 1 0"/>
<feBlend mode="normal" in2="BackgroundImageFix" result="effect1_dropShadow_202_1713"/>
<feBlend mode="normal" in="SourceGraphic" in2="effect1_dropShadow_202_1713" result="shape"/>
</filter>
<filter id="filter11_d_202_1713" x="11.626" y="242.184" width="107.685" height="98.2646" filterUnits="userSpaceOnUse" color-interpolation-filters="sRGB">
<feFlood flood-opacity="0" result="BackgroundImageFix"/>
<feColorMatrix in="SourceAlpha" type="matrix" values="0 0 0 0 0 0 0 0 0 0 0 0 0 0 0 0 0 0 127 0" result="hardAlpha"/>
<feOffset dx="-3" dy="4"/>
<feComposite in2="hardAlpha" operator="out"/>
<feColorMatrix type="matrix" values="0 0 0 0 0.215686 0 0 0 0 0.717647 0 0 0 0 0.764706 0 0 0 0.7 0"/>
<feBlend mode="normal" in2="BackgroundImageFix" result="effect1_dropShadow_202_1713"/>
<feBlend mode="normal" in="SourceGraphic" in2="effect1_dropShadow_202_1713" result="shape"/>
</filter>
<filter id="filter12_d_202_1713" x="273" y="40" width="393.889" height="354.814" filterUnits="userSpaceOnUse" color-interpolation-filters="sRGB">
<feFlood flood-opacity="0" result="BackgroundImageFix"/>
<feColorMatrix in="SourceAlpha" type="matrix" values="0 0 0 0 0 0 0 0 0 0 0 0 0 0 0 0 0 0 127 0" result="hardAlpha"/>
<feOffset dy="4"/>
<feGaussianBlur stdDeviation="2"/>
<feComposite in2="hardAlpha" operator="out"/>
<feColorMatrix type="matrix" values="0 0 0 0 0 0 0 0 0 0 0 0 0 0 0 0 0 0 0.25 0"/>
<feBlend mode="normal" in2="BackgroundImageFix" result="effect1_dropShadow_202_1713"/>
<feBlend mode="normal" in="SourceGraphic" in2="effect1_dropShadow_202_1713" result="shape"/>
</filter>
<filter id="filter13_ddd_202_1713" x="311.268" y="93.7266" width="303.926" height="274.691" filterUnits="userSpaceOnUse" color-interpolation-filters="sRGB">
<feFlood flood-opacity="0" result="BackgroundImageFix"/>
<feColorMatrix in="SourceAlpha" type="matrix" values="0 0 0 0 0 0 0 0 0 0 0 0 0 0 0 0 0 0 127 0" result="hardAlpha"/>
<feOffset dx="-20" dy="15"/>
<feGaussianBlur stdDeviation="3"/>
<feComposite in2="hardAlpha" operator="out"/>
<feColorMatrix type="matrix" values="0 0 0 0 0.027451 0 0 0 0 0.0980392 0 0 0 0 0.321569 0 0 0 0.65 0"/>
<feBlend mode="normal" in2="BackgroundImageFix" result="effect1_dropShadow_202_1713"/>
<feColorMatrix in="SourceAlpha" type="matrix" values="0 0 0 0 0 0 0 0 0 0 0 0 0 0 0 0 0 0 127 0" result="hardAlpha"/>
<feOffset dy="4"/>
<feGaussianBlur stdDeviation="2"/>
<feComposite in2="hardAlpha" operator="out"/>
<feColorMatrix type="matrix" values="0 0 0 0 0 0 0 0 0 0 0 0 0 0 0 0 0 0 0.65 0"/>
<feBlend mode="normal" in2="effect1_dropShadow_202_1713" result="effect2_dropShadow_202_1713"/>
<feColorMatrix in="SourceAlpha" type="matrix" values="0 0 0 0 0 0 0 0 0 0 0 0 0 0 0 0 0 0 127 0" result="hardAlpha"/>
<feOffset dx="-15" dy="18"/>
<feGaussianBlur stdDeviation="15.5"/>
<feComposite in2="hardAlpha" operator="out"/>
<feColorMatrix type="matrix" values="0 0 0 0 0 0 0 0 0 0 0 0 0 0 0 0 0 0 0.64 0"/>
<feBlend mode="normal" in2="effect2_dropShadow_202_1713" result="effect3_dropShadow_202_1713"/>
<feBlend mode="normal" in="SourceGraphic" in2="effect3_dropShadow_202_1713" result="shape"/>
</filter>
<filter id="filter14_ddd_202_1713" x="299.414" y="189.617" width="186.597" height="165.546" filterUnits="userSpaceOnUse" color-interpolation-filters="sRGB">
<feFlood flood-opacity="0" result="BackgroundImageFix"/>
<feColorMatrix in="SourceAlpha" type="matrix" values="0 0 0 0 0 0 0 0 0 0 0 0 0 0 0 0 0 0 127 0" result="hardAlpha"/>
<feOffset dy="4"/>
<feGaussianBlur stdDeviation="2"/>
<feComposite in2="hardAlpha" operator="out"/>
<feColorMatrix type="matrix" values="0 0 0 0 0.027451 0 0 0 0 0.0980392 0 0 0 0 0.321569 0 0 0 0.65 0"/>
<feBlend mode="normal" in2="BackgroundImageFix" result="effect1_dropShadow_202_1713"/>
<feColorMatrix in="SourceAlpha" type="matrix" values="0 0 0 0 0 0 0 0 0 0 0 0 0 0 0 0 0 0 127 0" result="hardAlpha"/>
<feOffset dy="4"/>
<feGaussianBlur stdDeviation="2"/>
<feComposite in2="hardAlpha" operator="out"/>
<feColorMatrix type="matrix" values="0 0 0 0 0.027451 0 0 0 0 0.0980392 0 0 0 0 0.321569 0 0 0 0.65 0"/>
<feBlend mode="normal" in2="effect1_dropShadow_202_1713" result="effect2_dropShadow_202_1713"/>
<feColorMatrix in="SourceAlpha" type="matrix" values="0 0 0 0 0 0 0 0 0 0 0 0 0 0 0 0 0 0 127 0" result="hardAlpha"/>
<feOffset dx="-7" dy="5"/>
<feGaussianBlur stdDeviation="4.5"/>
<feComposite in2="hardAlpha" operator="out"/>
<feColorMatrix type="matrix" values="0 0 0 0 0.027451 0 0 0 0 0.0980392 0 0 0 0 0.321569 0 0 0 0.65 0"/>
<feBlend mode="normal" in2="effect2_dropShadow_202_1713" result="effect3_dropShadow_202_1713"/>
<feBlend mode="normal" in="SourceGraphic" in2="effect3_dropShadow_202_1713" result="shape"/>
</filter>
<filter id="filter15_ddd_202_1713" x="380.479" y="129.15" width="184.597" height="163.546" filterUnits="userSpaceOnUse" color-interpolation-filters="sRGB">
<feFlood flood-opacity="0" result="BackgroundImageFix"/>
<feColorMatrix in="SourceAlpha" type="matrix" values="0 0 0 0 0 0 0 0 0 0 0 0 0 0 0 0 0 0 127 0" result="hardAlpha"/>
<feOffset dy="4"/>
<feGaussianBlur stdDeviation="2"/>
<feComposite in2="hardAlpha" operator="out"/>
<feColorMatrix type="matrix" values="0 0 0 0 0.027451 0 0 0 0 0.0980392 0 0 0 0 0.321569 0 0 0 0.65 0"/>
<feBlend mode="normal" in2="BackgroundImageFix" result="effect1_dropShadow_202_1713"/>
<feColorMatrix in="SourceAlpha" type="matrix" values="0 0 0 0 0 0 0 0 0 0 0 0 0 0 0 0 0 0 127 0" result="hardAlpha"/>
<feOffset dy="4"/>
<feGaussianBlur stdDeviation="2"/>
<feComposite in2="hardAlpha" operator="out"/>
<feColorMatrix type="matrix" values="0 0 0 0 0.027451 0 0 0 0 0.0980392 0 0 0 0 0.321569 0 0 0 0.65 0"/>
<feBlend mode="normal" in2="effect1_dropShadow_202_1713" result="effect2_dropShadow_202_1713"/>
<feColorMatrix in="SourceAlpha" type="matrix" values="0 0 0 0 0 0 0 0 0 0 0 0 0 0 0 0 0 0 127 0" result="hardAlpha"/>
<feOffset dx="-6" dy="6"/>
<feGaussianBlur stdDeviation="4"/>
<feComposite in2="hardAlpha" operator="out"/>
<feColorMatrix type="matrix" values="0 0 0 0 0.027451 0 0 0 0 0.0980392 0 0 0 0 0.321569 0 0 0 0.65 0"/>
<feBlend mode="normal" in2="effect2_dropShadow_202_1713" result="effect3_dropShadow_202_1713"/>
<feBlend mode="normal" in="SourceGraphic" in2="effect3_dropShadow_202_1713" result="shape"/>
</filter>
<linearGradient id="paint0_linear_202_1713" x1="552.342" y1="205.83" x2="1642.45" y2="615.542" gradientUnits="userSpaceOnUse">
<stop offset="0.0242305" stop-color="#00E8F5"/>
<stop offset="0.49" stop-color="#0098E1"/>
<stop offset="1" stop-color="#0076F0"/>
</linearGradient>
<linearGradient id="paint1_linear_202_1713" x1="906.998" y1="432.75" x2="460.81" y2="1000.12" gradientUnits="userSpaceOnUse">
<stop stop-color="#97FEED"/>
<stop offset="1" stop-color="#071952"/>
</linearGradient>
<linearGradient id="paint2_linear_202_1713" x1="711.929" y1="580.178" x2="830.454" y2="679.967" gradientUnits="userSpaceOnUse">
<stop offset="0.0242305" stop-color="#00E8F5"/>
<stop offset="0.575413" stop-color="#0098E1"/>
<stop offset="1" stop-color="#0076F0"/>
</linearGradient>
<linearGradient id="paint3_linear_202_1713" x1="747.539" y1="213.682" x2="572.568" y2="241.43" gradientUnits="userSpaceOnUse">
<stop offset="0.00364045" stop-color="white" stop-opacity="0.24"/>
<stop offset="0.484048" stop-color="#088395"/>
<stop offset="0.958411" stop-color="#071952"/>
</linearGradient>
<linearGradient id="paint4_linear_202_1713" x1="574.376" y1="278.821" x2="755.225" y2="462.097" gradientUnits="userSpaceOnUse">
<stop stop-color="#37B7C3"/>
<stop offset="1" stop-color="#474491"/>
</linearGradient>
<linearGradient id="paint5_linear_202_1713" x1="624.414" y1="297.333" x2="736.633" y2="394.707" gradientUnits="userSpaceOnUse">
<stop stop-color="#FFFCFF"/>
<stop offset="1" stop-color="#77E3D9"/>
</linearGradient>
<linearGradient id="paint6_linear_202_1713" x1="847.94" y1="446.644" x2="921.655" y2="534.469" gradientUnits="userSpaceOnUse">
<stop offset="0.0242305" stop-color="#00E8F5"/>
<stop offset="0.348614" stop-color="#0098E1"/>
<stop offset="1" stop-color="#0076F0"/>
</linearGradient>
<linearGradient id="paint7_linear_202_1713" x1="554.999" y1="-67.2391" x2="-107.508" y2="340.183" gradientUnits="userSpaceOnUse">
<stop stop-color="#FFFCFF"/>
<stop offset="1" stop-color="#77E3D9"/>
</linearGradient>
<linearGradient id="paint8_linear_202_1713" x1="182" y1="23" x2="622" y2="1159.5" gradientUnits="userSpaceOnUse">
<stop stop-color="#37B7C3"/>
<stop offset="0.489521" stop-color="#088395"/>
<stop offset="0.997029" stop-color="#071952"/>
</linearGradient>
<linearGradient id="paint9_linear_202_1713" x1="372.5" y1="62" x2="372.5" y2="787" gradientUnits="userSpaceOnUse">
<stop stop-color="#97FEED"/>
<stop offset="1" stop-color="#088395"/>
</linearGradient>
<linearGradient id="paint10_linear_202_1713" x1="632.723" y1="464.489" x2="322.178" y2="464.957" gradientUnits="userSpaceOnUse">
<stop offset="0.00364045" stop-color="white" stop-opacity="0.24"/>
<stop offset="0.484048" stop-color="#088395"/>
<stop offset="0.958411" stop-color="#071952"/>
</linearGradient>
<linearGradient id="paint11_linear_202_1713" x1="655.877" y1="547.66" x2="337.687" y2="548.151" gradientUnits="userSpaceOnUse">
<stop offset="0.00364045" stop-color="white" stop-opacity="0.24"/>
<stop offset="0.484048" stop-color="#088395"/>
<stop offset="0.958411" stop-color="#071952"/>
</linearGradient>
<linearGradient id="paint12_linear_202_1713" x1="426" y1="651.895" x2="608.664" y2="651.895" gradientUnits="userSpaceOnUse">
<stop stop-color="#00C4C9"/>
</linearGradient>
<linearGradient id="paint13_linear_202_1713" x1="119.5" y1="34.5" x2="268.5" y2="185.5" gradientUnits="userSpaceOnUse">
<stop stop-color="#37B7C3"/>
<stop offset="1" stop-color="#474491"/>
</linearGradient>
<linearGradient id="paint14_linear_202_1713" x1="158.397" y1="70.2049" x2="260.37" y2="149.979" gradientUnits="userSpaceOnUse">
<stop stop-color="#FFFCFF"/>
<stop offset="1" stop-color="#6BD8D2"/>
</linearGradient>
<linearGradient id="paint15_linear_202_1713" x1="113.404" y1="400.594" x2="206.415" y2="511.409" gradientUnits="userSpaceOnUse">
<stop offset="0.0242305" stop-color="#00E8F5"/>
<stop offset="0.348614" stop-color="#0098E1"/>
<stop offset="1" stop-color="#0076F0"/>
</linearGradient>
<linearGradient id="paint16_linear_202_1713" x1="178.445" y1="407.302" x2="176.824" y2="421.451" gradientUnits="userSpaceOnUse">
<stop stop-color="#77E3D9"/>
<stop offset="1" stop-color="#FFFCFF"/>
</linearGradient>
<linearGradient id="paint17_linear_202_1713" x1="182.404" y1="428.359" x2="178.462" y2="442.338" gradientUnits="userSpaceOnUse">
<stop stop-color="#77E3D9"/>
<stop offset="1" stop-color="#FFFCFF"/>
</linearGradient>
<linearGradient id="paint18_linear_202_1713" x1="183.364" y1="447.17" x2="177.74" y2="460.11" gradientUnits="userSpaceOnUse">
<stop stop-color="#77E3D9"/>
<stop offset="1" stop-color="#FFFCFF"/>
</linearGradient>
<linearGradient id="paint19_linear_202_1713" x1="67.4039" y1="534.594" x2="160.415" y2="645.409" gradientUnits="userSpaceOnUse">
<stop offset="0.0242305" stop-color="#00E8F5"/>
<stop offset="0.348614" stop-color="#0098E1"/>
<stop offset="1" stop-color="#0076F0"/>
</linearGradient>
<linearGradient id="paint20_linear_202_1713" x1="130.918" y1="518.664" x2="88.3383" y2="591.055" gradientUnits="userSpaceOnUse">
<stop stop-color="#FFFCFF"/>
<stop offset="1" stop-color="#77E3D9"/>
</linearGradient>
<linearGradient id="paint21_linear_202_1713" x1="23.0719" y1="262.663" x2="130.894" y2="365.285" gradientUnits="userSpaceOnUse">
<stop offset="0.0242305" stop-color="#00E8F5"/>
<stop offset="0.581595" stop-color="#0098E1"/>
<stop offset="1" stop-color="#0076F0"/>
</linearGradient>
<linearGradient id="paint22_linear_202_1713" x1="595.018" y1="164.453" x2="80.7306" y2="386.112" gradientUnits="userSpaceOnUse">
<stop offset="0.0242305" stop-color="#00E8F5" stop-opacity="0.61"/>
<stop offset="0.292905" stop-color="#0098E1"/>
<stop offset="0.441269" stop-color="#0076F0"/>
</linearGradient>
<linearGradient id="paint23_linear_202_1713" x1="453.72" y1="204.104" x2="284.817" y2="542.451" gradientUnits="userSpaceOnUse">
<stop offset="0.0242305" stop-color="#00E8F5"/>
<stop offset="0.49" stop-color="#0098E1"/>
<stop offset="1" stop-color="#0076F0"/>
</linearGradient>
<linearGradient id="paint24_linear_202_1713" x1="532.785" y1="141.637" x2="363.882" y2="479.984" gradientUnits="userSpaceOnUse">
<stop offset="0.0242305" stop-color="#00E8F5"/>
<stop offset="0.49" stop-color="#0098E1"/>
<stop offset="1" stop-color="#0076F0"/>
</linearGradient>
<clipPath id="clip0_202_1713">
<rect width="168" height="168" fill="white" transform="translate(666.63 542.695) rotate(-8.84181)"/>
</clipPath>
<clipPath id="clip1_202_1713">
<rect width="50" height="50" fill="white" transform="translate(127.677 403.609) rotate(-8.84181)"/>
</clipPath>
<clipPath id="clip2_202_1713">
<rect width="116" height="116" fill="white" transform="translate(0 239) rotate(-8.84181)"/>
</clipPath>
</defs>
</svg>
