<svg width="127" height="108" viewBox="0 0 127 108" fill="none" xmlns="http://www.w3.org/2000/svg">
<g filter="url(#filter0_i_201_547)">
<path fill-rule="evenodd" clip-rule="evenodd" d="M28.7381 36.1353C16.3398 55.8629 28.0153 74.6812 48.2889 86.2751C68.5626 97.869 92.6745 97.8225 105.073 78.0949C117.471 58.3673 109.284 33.0747 89.0108 21.4808C68.7372 9.8869 41.1365 16.4077 28.7381 36.1353ZM36.2496 35.2529C25.2868 52.6973 30.9318 75.1497 48.8581 85.4017C66.7844 95.6538 90.2037 89.8232 101.167 72.3788C112.129 54.9345 99.7396 47.8337 81.8133 37.5817C63.887 27.3297 47.2125 17.8085 36.2496 35.2529Z" fill="url(#paint0_linear_201_547)"/>
</g>
<g filter="url(#filter1_ddd_201_547)">
<path fill-rule="evenodd" clip-rule="evenodd" d="M40.2811 95.768C24.3792 96.2764 4.91917 92.5205 4.36792 77.8722C3.81667 63.224 20.9346 43.4433 36.8365 42.9349C52.7384 42.4265 65.4415 54.8358 65.9927 69.4841C66.544 84.1323 56.183 95.2597 40.2811 95.768ZM40.8003 91.9075C26.7509 92.3566 8.58798 90.8183 8.10095 77.8763C7.61391 64.9343 24.9872 45.4894 39.0366 45.0402C53.086 44.5911 53.4317 53.5407 53.9187 66.4827C53.934 66.8901 53.9498 67.2965 53.9655 67.7017L53.9656 67.7028C54.4496 80.1705 54.8878 91.4571 40.8003 91.9075Z" fill="url(#paint1_linear_201_547)"/>
</g>
<g filter="url(#filter2_ddd_201_547)">
<path fill-rule="evenodd" clip-rule="evenodd" d="M72.1346 77.768C56.2328 78.2764 36.7727 74.5205 36.2214 59.8722C35.6702 45.224 52.7881 25.4433 68.69 24.9349C84.5919 24.4265 97.295 36.8358 97.8462 51.4841C98.3975 66.1323 88.0365 77.2597 72.1346 77.768ZM72.6538 73.9075C58.6044 74.3566 40.4415 72.8183 39.9545 59.8763C39.4674 46.9343 56.8407 27.4894 70.8901 27.0402C84.9395 26.5911 85.2852 35.5407 85.7722 48.4827C85.7875 48.8901 85.8033 49.2965 85.819 49.7017L85.8191 49.7028C86.3031 62.1705 86.7413 73.4571 72.6538 73.9075Z" fill="url(#paint2_linear_201_547)"/>
</g>
<defs>
<filter id="filter0_i_201_547" x="23.6455" y="15.7432" width="87.2852" height="82.3923" filterUnits="userSpaceOnUse" color-interpolation-filters="sRGB">
<feFlood flood-opacity="0" result="BackgroundImageFix"/>
<feBlend mode="normal" in="SourceGraphic" in2="BackgroundImageFix" result="shape"/>
<feColorMatrix in="SourceAlpha" type="matrix" values="0 0 0 0 0 0 0 0 0 0 0 0 0 0 0 0 0 0 127 0" result="hardAlpha"/>
<feOffset dy="4"/>
<feGaussianBlur stdDeviation="2"/>
<feComposite in2="hardAlpha" operator="arithmetic" k2="-1" k3="1"/>
<feColorMatrix type="matrix" values="0 0 0 0 0 0 0 0 0 0 0 0 0 0 0 0 0 0 0.25 0"/>
<feBlend mode="normal" in2="shape" result="effect1_innerShadow_201_547"/>
</filter>
<filter id="filter1_ddd_201_547" x="0.35498" y="42.9199" width="69.6587" height="60.8923" filterUnits="userSpaceOnUse" color-interpolation-filters="sRGB">
<feFlood flood-opacity="0" result="BackgroundImageFix"/>
<feColorMatrix in="SourceAlpha" type="matrix" values="0 0 0 0 0 0 0 0 0 0 0 0 0 0 0 0 0 0 127 0" result="hardAlpha"/>
<feOffset dy="4"/>
<feGaussianBlur stdDeviation="2"/>
<feComposite in2="hardAlpha" operator="out"/>
<feColorMatrix type="matrix" values="0 0 0 0 0 0 0 0 0 0 0 0 0 0 0 0 0 0 0.25 0"/>
<feBlend mode="normal" in2="BackgroundImageFix" result="effect1_dropShadow_201_547"/>
<feColorMatrix in="SourceAlpha" type="matrix" values="0 0 0 0 0 0 0 0 0 0 0 0 0 0 0 0 0 0 127 0" result="hardAlpha"/>
<feOffset dy="4"/>
<feGaussianBlur stdDeviation="2"/>
<feComposite in2="hardAlpha" operator="out"/>
<feColorMatrix type="matrix" values="0 0 0 0 0 0 0 0 0 0 0 0 0 0 0 0 0 0 0.25 0"/>
<feBlend mode="normal" in2="effect1_dropShadow_201_547" result="effect2_dropShadow_201_547"/>
<feColorMatrix in="SourceAlpha" type="matrix" values="0 0 0 0 0 0 0 0 0 0 0 0 0 0 0 0 0 0 127 0" result="hardAlpha"/>
<feOffset dy="4"/>
<feGaussianBlur stdDeviation="2"/>
<feComposite in2="hardAlpha" operator="out"/>
<feColorMatrix type="matrix" values="0 0 0 0 0 0 0 0 0 0 0 0 0 0 0 0 0 0 0.25 0"/>
<feBlend mode="normal" in2="effect2_dropShadow_201_547" result="effect3_dropShadow_201_547"/>
<feBlend mode="normal" in="SourceGraphic" in2="effect3_dropShadow_201_547" result="shape"/>
</filter>
<filter id="filter2_ddd_201_547" x="32.2085" y="24.9199" width="69.6587" height="60.8923" filterUnits="userSpaceOnUse" color-interpolation-filters="sRGB">
<feFlood flood-opacity="0" result="BackgroundImageFix"/>
<feColorMatrix in="SourceAlpha" type="matrix" values="0 0 0 0 0 0 0 0 0 0 0 0 0 0 0 0 0 0 127 0" result="hardAlpha"/>
<feOffset dy="4"/>
<feGaussianBlur stdDeviation="2"/>
<feComposite in2="hardAlpha" operator="out"/>
<feColorMatrix type="matrix" values="0 0 0 0 0 0 0 0 0 0 0 0 0 0 0 0 0 0 0.25 0"/>
<feBlend mode="normal" in2="BackgroundImageFix" result="effect1_dropShadow_201_547"/>
<feColorMatrix in="SourceAlpha" type="matrix" values="0 0 0 0 0 0 0 0 0 0 0 0 0 0 0 0 0 0 127 0" result="hardAlpha"/>
<feOffset dy="4"/>
<feGaussianBlur stdDeviation="2"/>
<feComposite in2="hardAlpha" operator="out"/>
<feColorMatrix type="matrix" values="0 0 0 0 0 0 0 0 0 0 0 0 0 0 0 0 0 0 0.25 0"/>
<feBlend mode="normal" in2="effect1_dropShadow_201_547" result="effect2_dropShadow_201_547"/>
<feColorMatrix in="SourceAlpha" type="matrix" values="0 0 0 0 0 0 0 0 0 0 0 0 0 0 0 0 0 0 127 0" result="hardAlpha"/>
<feOffset dy="4"/>
<feGaussianBlur stdDeviation="2"/>
<feComposite in2="hardAlpha" operator="out"/>
<feColorMatrix type="matrix" values="0 0 0 0 0 0 0 0 0 0 0 0 0 0 0 0 0 0 0.25 0"/>
<feBlend mode="normal" in2="effect2_dropShadow_201_547" result="effect3_dropShadow_201_547"/>
<feBlend mode="normal" in="SourceGraphic" in2="effect3_dropShadow_201_547" result="shape"/>
</filter>
<linearGradient id="paint0_linear_201_547" x1="112.106" y1="43.4163" x2="-84.7811" y2="94.2406" gradientUnits="userSpaceOnUse">
<stop offset="0.0242305" stop-color="#00E8F5"/>
<stop offset="0.292905" stop-color="#0098E1"/>
<stop offset="0.441269" stop-color="#0076F0"/>
</linearGradient>
<linearGradient id="paint1_linear_201_547" x1="59.198" y1="49.7565" x2="-20.2878" y2="161.724" gradientUnits="userSpaceOnUse">
<stop offset="0.0242305" stop-color="#00E8F5"/>
<stop offset="0.49" stop-color="#0098E1"/>
<stop offset="1" stop-color="#0076F0"/>
</linearGradient>
<linearGradient id="paint2_linear_201_547" x1="91.0515" y1="31.7565" x2="11.5658" y2="143.724" gradientUnits="userSpaceOnUse">
<stop offset="0.0242305" stop-color="#00E8F5"/>
<stop offset="0.49" stop-color="#0098E1"/>
<stop offset="1" stop-color="#0076F0"/>
</linearGradient>
</defs>
</svg>
