<svg width="128" height="108" viewBox="0 0 128 108" fill="none" xmlns="http://www.w3.org/2000/svg">
<g filter="url(#filter0_i_201_509)">
<path fill-rule="evenodd" clip-rule="evenodd" d="M29.7381 36.1353C17.3398 55.8629 29.0153 74.6812 49.2889 86.2751C69.5626 97.869 93.6745 97.8225 106.073 78.0949C118.471 58.3673 110.284 33.0747 90.0108 21.4808C69.7372 9.8869 42.1365 16.4077 29.7381 36.1353ZM37.2496 35.2529C26.2868 52.6973 31.9318 75.1497 49.8581 85.4017C67.7844 95.6538 91.2037 89.8232 102.167 72.3788C113.129 54.9345 100.74 47.8337 82.8133 37.5817C64.887 27.3297 48.2125 17.8085 37.2496 35.2529Z" fill="url(#paint0_linear_201_509)"/>
</g>
<g filter="url(#filter1_ddd_201_509)">
<path fill-rule="evenodd" clip-rule="evenodd" d="M58.6788 95.1905C34.9229 95.9487 5.8411 90.0511 4.9831 67.2132C4.12509 44.3752 29.6525 13.5739 53.4084 12.8157C77.1643 12.0576 96.1717 31.4312 97.0297 54.2691C97.8877 77.107 82.4347 94.4323 58.6788 95.1905ZM59.4453 89.173C38.4568 89.8429 11.3182 87.4054 10.5601 67.2277C9.80206 47.0499 35.7117 16.7726 56.7002 16.1028C77.6886 15.4329 78.2261 29.3862 78.9842 49.564C79.008 50.1996 79.0326 50.8339 79.0571 51.4662C79.8095 70.9045 80.4907 88.5013 59.4453 89.173Z" fill="url(#paint1_linear_201_509)"/>
</g>
<defs>
<filter id="filter0_i_201_509" x="24.6455" y="15.7432" width="87.2852" height="82.3923" filterUnits="userSpaceOnUse" color-interpolation-filters="sRGB">
<feFlood flood-opacity="0" result="BackgroundImageFix"/>
<feBlend mode="normal" in="SourceGraphic" in2="BackgroundImageFix" result="shape"/>
<feColorMatrix in="SourceAlpha" type="matrix" values="0 0 0 0 0 0 0 0 0 0 0 0 0 0 0 0 0 0 127 0" result="hardAlpha"/>
<feOffset dy="4"/>
<feGaussianBlur stdDeviation="2"/>
<feComposite in2="hardAlpha" operator="arithmetic" k2="-1" k3="1"/>
<feColorMatrix type="matrix" values="0 0 0 0 0 0 0 0 0 0 0 0 0 0 0 0 0 0 0.25 0"/>
<feBlend mode="normal" in2="shape" result="effect1_innerShadow_201_509"/>
</filter>
<filter id="filter1_ddd_201_509" x="0.961914" y="12.7942" width="100.102" height="90.4593" filterUnits="userSpaceOnUse" color-interpolation-filters="sRGB">
<feFlood flood-opacity="0" result="BackgroundImageFix"/>
<feColorMatrix in="SourceAlpha" type="matrix" values="0 0 0 0 0 0 0 0 0 0 0 0 0 0 0 0 0 0 127 0" result="hardAlpha"/>
<feOffset dy="4"/>
<feGaussianBlur stdDeviation="2"/>
<feComposite in2="hardAlpha" operator="out"/>
<feColorMatrix type="matrix" values="0 0 0 0 0 0 0 0 0 0 0 0 0 0 0 0 0 0 0.25 0"/>
<feBlend mode="normal" in2="BackgroundImageFix" result="effect1_dropShadow_201_509"/>
<feColorMatrix in="SourceAlpha" type="matrix" values="0 0 0 0 0 0 0 0 0 0 0 0 0 0 0 0 0 0 127 0" result="hardAlpha"/>
<feOffset dy="4"/>
<feGaussianBlur stdDeviation="2"/>
<feComposite in2="hardAlpha" operator="out"/>
<feColorMatrix type="matrix" values="0 0 0 0 0 0 0 0 0 0 0 0 0 0 0 0 0 0 0.25 0"/>
<feBlend mode="normal" in2="effect1_dropShadow_201_509" result="effect2_dropShadow_201_509"/>
<feColorMatrix in="SourceAlpha" type="matrix" values="0 0 0 0 0 0 0 0 0 0 0 0 0 0 0 0 0 0 127 0" result="hardAlpha"/>
<feOffset dy="4"/>
<feGaussianBlur stdDeviation="2"/>
<feComposite in2="hardAlpha" operator="out"/>
<feColorMatrix type="matrix" values="0 0 0 0 0 0 0 0 0 0 0 0 0 0 0 0 0 0 0.25 0"/>
<feBlend mode="normal" in2="effect2_dropShadow_201_509" result="effect3_dropShadow_201_509"/>
<feBlend mode="normal" in="SourceGraphic" in2="effect3_dropShadow_201_509" result="shape"/>
</filter>
<linearGradient id="paint0_linear_201_509" x1="113.106" y1="43.4163" x2="-83.7811" y2="94.2406" gradientUnits="userSpaceOnUse">
<stop offset="0.0242305" stop-color="#00E8F5"/>
<stop offset="0.292905" stop-color="#0098E1"/>
<stop offset="0.441269" stop-color="#0076F0"/>
</linearGradient>
<linearGradient id="paint1_linear_201_509" x1="86.8321" y1="23.499" x2="-38.628" y2="192.715" gradientUnits="userSpaceOnUse">
<stop offset="0.0242305" stop-color="#00E8F5"/>
<stop offset="0.49" stop-color="#0098E1"/>
<stop offset="1" stop-color="#0076F0"/>
</linearGradient>
</defs>
</svg>
