<svg width="86" height="87" viewBox="0 0 86 87" fill="none" xmlns="http://www.w3.org/2000/svg">
<path d="M40.1668 57.1667H45.8335M37.3335 47.25H48.6668M33.0835 38.75C33.0835 36.1199 34.1283 33.5976 35.988 31.7379C37.8478 29.8781 40.3701 28.8333 43.0002 28.8333C45.6302 28.8333 48.1526 29.8781 50.0123 31.7379C51.872 33.5976 52.9168 36.1199 52.9168 38.75C52.9178 40.3467 52.5316 41.9198 51.7914 43.3346C51.0512 44.7493 49.9791 45.9635 48.6668 46.8732L47.899 50.5083C47.7973 51.1784 47.4589 51.7898 46.945 52.2316C46.4312 52.6735 45.776 52.9165 45.0982 52.9167H40.9021C40.2244 52.9165 39.5692 52.6735 39.0553 52.2316C38.5414 51.7898 38.203 51.1784 38.1013 50.5083L37.3335 46.8887C36.0208 45.9759 34.9486 44.7588 34.2085 43.3415C33.4685 41.9243 33.0824 40.3489 33.0835 38.75Z" stroke="url(#paint0_linear_42_84)" stroke-width="3" stroke-linecap="round" stroke-linejoin="round"/>
<path d="M26.1359 58.4733C32.7128 65.4937 40.5403 69.9727 47.8016 71.6091C55.0758 73.2484 61.5552 72.0089 65.865 67.9714C70.1747 63.934 71.8339 57.549 70.6721 50.1836C69.5124 42.831 65.5531 34.7282 58.9762 27.7078C52.3994 20.6874 44.5718 16.2084 37.3105 14.572C30.0364 12.9327 23.5569 14.1722 19.2472 18.2097C14.9374 22.2471 13.2783 28.632 14.44 35.9975C15.5997 43.3501 19.5591 51.4529 26.1359 58.4733Z" stroke="url(#paint1_linear_42_84)" stroke-width="4"/>
<path fill-rule="evenodd" clip-rule="evenodd" d="M51.6401 60.9282C46.9353 64.7468 41.9072 67.2709 37.2132 68.4366C30.6136 70.0756 25.2371 68.9525 21.8009 65.871C18.3646 62.7895 16.6647 57.5667 17.5777 50.8283C18.313 45.4017 20.7328 39.3604 24.8485 33.6631C23.1951 33.1296 21.8105 31.9978 20.9498 30.5229C10.6389 44.6469 9.30688 61.3829 18.4627 69.5935C27.2014 77.43 42.6235 74.9262 55.2453 64.4371C53.6526 63.7546 52.3642 62.4983 51.6401 60.9282ZM64.2403 54.825C74.4869 40.7214 75.7921 24.0429 66.6571 15.851C57.9876 8.0765 42.7402 10.4793 30.175 20.7597C31.703 21.5387 32.9069 22.8624 33.5308 24.4749C38.2208 20.6795 43.2296 18.1694 47.9067 17.0078C54.5062 15.3689 59.8827 16.4919 63.3189 19.5734C66.7552 22.6549 68.4551 27.8778 67.5421 34.6162C66.8206 39.9409 64.4773 45.8574 60.5014 51.4601C62.1246 52.0813 63.4575 53.2895 64.2403 54.825Z" fill="url(#paint2_linear_42_84)"/>
<circle cx="26.5002" cy="27.5" r="2.5" fill="#EF559E"/>
<circle cx="57.5" cy="57.5" r="2.5" fill="#D451CE"/>
<defs>
<linearGradient id="paint0_linear_42_84" x1="43.0002" y1="28.8333" x2="43.0002" y2="57.1667" gradientUnits="userSpaceOnUse">
<stop stop-color="#FA578B"/>
<stop offset="1" stop-color="#C34FEA"/>
</linearGradient>
<linearGradient id="paint1_linear_42_84" x1="17.8798" y1="16.7501" x2="67.2323" y2="69.431" gradientUnits="userSpaceOnUse">
<stop stop-color="#FA578B"/>
<stop offset="1" stop-color="#BE4EF4"/>
</linearGradient>
<linearGradient id="paint2_linear_42_84" x1="42.56" y1="11.2595" x2="42.56" y2="74.185" gradientUnits="userSpaceOnUse">
<stop stop-color="#FA578B"/>
<stop offset="1" stop-color="#BE4EF4"/>
</linearGradient>
</defs>
</svg>
