<svg width="101" height="95" viewBox="0 0 101 95" fill="none" xmlns="http://www.w3.org/2000/svg">
<g filter="url(#filter0_d_201_495)">
<path fill-rule="evenodd" clip-rule="evenodd" d="M58.5 86C34.766 86.8219 5.72151 80.734 4.89966 57C4.07781 33.266 29.628 1.21814 53.3621 0.396294C77.0961 -0.425556 96.0551 19.6821 96.8769 43.4162C97.6988 67.1502 82.234 85.1782 58.5 86ZM59.2849 79.7431C38.3107 80.4693 11.1956 77.9743 10.4693 57C9.74303 36.0258 35.6806 4.51486 56.6548 3.78858C77.629 3.06229 78.1445 17.5663 78.8707 38.5406C78.8936 39.2013 78.9172 39.8606 78.9407 40.5179C79.6625 60.7234 80.3159 79.0148 59.2849 79.7431Z" fill="url(#paint0_linear_201_495)"/>
</g>
<defs>
<filter id="filter0_d_201_495" x="0.880371" y="0.371948" width="100.028" height="93.6993" filterUnits="userSpaceOnUse" color-interpolation-filters="sRGB">
<feFlood flood-opacity="0" result="BackgroundImageFix"/>
<feColorMatrix in="SourceAlpha" type="matrix" values="0 0 0 0 0 0 0 0 0 0 0 0 0 0 0 0 0 0 127 0" result="hardAlpha"/>
<feOffset dy="4"/>
<feGaussianBlur stdDeviation="2"/>
<feComposite in2="hardAlpha" operator="out"/>
<feColorMatrix type="matrix" values="0 0 0 0 0 0 0 0 0 0 0 0 0 0 0 0 0 0 0.25 0"/>
<feBlend mode="normal" in2="BackgroundImageFix" result="effect1_dropShadow_201_495"/>
<feBlend mode="normal" in="SourceGraphic" in2="effect1_dropShadow_201_495" result="shape"/>
</filter>
<linearGradient id="paint0_linear_201_495" x1="86.6919" y1="11.4967" x2="-45.0872" y2="182.424" gradientUnits="userSpaceOnUse">
<stop offset="0.0242305" stop-color="#CE74FF"/>
<stop offset="0.49" stop-color="#7B57F9"/>
<stop offset="1" stop-color="#2037F3"/>
</linearGradient>
</defs>
</svg>
